<svg width="426" height="398" viewBox="0 0 426 398" fill="none" xmlns="http://www.w3.org/2000/svg">
<g clip-path="url(#clip0_59_5669)">
<mask id="mask0_59_5669" style="mask-type:luminance" maskUnits="userSpaceOnUse" x="0" y="0" width="426" height="398">
<path d="M426 0H0V398H426V0Z" fill="white"/>
</mask>
<g mask="url(#mask0_59_5669)">
<g style="mix-blend-mode:multiply">
<path d="M206.326 323.801C279.182 323.801 338.244 264.68 338.244 191.75C338.244 118.821 279.182 59.6997 206.326 59.6997C133.47 59.6997 74.408 118.821 74.408 191.75C74.408 264.68 133.47 323.801 206.326 323.801Z" fill="#E1F6FF"/>
</g>
<path opacity="0.5" d="M44.304 395.157L128.51 290.256L303.738 287.697L388.654 395.157H44.304Z" fill="#A0AEC0"/>
<g style="mix-blend-mode:multiply">
<path d="M51.2535 213.043L97.362 292.743H5.14499L51.2535 213.043Z" fill="#E1F6FF"/>
</g>
<path d="M200.523 205.315L250.532 292.624H150.514L200.523 205.315Z" fill="#E2E8F0"/>
<g style="mix-blend-mode:multiply">
<path d="M129.185 175.688L196.677 292.703H61.6945L129.185 175.688Z" fill="#E1F6FF"/>
</g>
<path d="M212.396 204.217L261.933 289.843H162.859L212.396 204.217Z" fill="#EDF2F7"/>
<g style="mix-blend-mode:multiply">
<path d="M372.764 195.913L426.491 289.713H319.037L372.764 195.913Z" fill="#7DD3F1" fill-opacity="0.32"/>
</g>
<g style="mix-blend-mode:multiply">
<path d="M292.75 164.033L365.261 289.75H220.241L292.75 164.033Z" fill="#7DD3F1" fill-opacity="0.32"/>
</g>
<path d="M122.498 338.05H304.292L328.429 367.513H98.832L122.498 338.05Z" fill="#EDF2F7"/>
<path d="M122.498 338.05H304.292V236.01C304.292 232.87 301.747 230.324 298.612 230.324H128.178C125.041 230.324 122.498 232.87 122.498 236.01V338.05Z" fill="#2D3748"/>
<path d="M134.154 331.213H292.634V237.396H134.154V331.213Z" fill="#A0AEC0"/>
<path d="M132.466 343.306H296.229L309.455 362.223H118.987L132.466 343.306Z" fill="#A0AEC0"/>
<path d="M98.832 367.277H328.193V371.05H98.832V367.277Z" fill="#2D3748"/>
<path d="M216.363 304.974C235.495 304.974 251.005 294.417 251.005 281.394C251.005 268.371 235.495 257.813 216.363 257.813C197.231 257.813 181.721 268.371 181.721 281.394C181.721 294.417 197.231 304.974 216.363 304.974Z" fill="#718096"/>
<path d="M143.54 148.109H104.512C101.375 148.109 98.832 150.654 98.832 153.794V182.018C98.832 185.158 101.375 187.703 104.512 187.703H143.54C146.677 187.703 149.22 185.158 149.22 182.018V153.794C149.22 150.654 146.677 148.109 143.54 148.109Z" fill="#2D3748"/>
<path d="M222.674 272.441H207.282C201.792 272.441 197.342 276.896 197.342 282.391V283.423C197.342 288.919 201.792 293.373 207.282 293.373H222.674C228.163 293.373 232.614 288.919 232.614 283.423V282.391C232.614 276.896 228.163 272.441 222.674 272.441Z" fill="#2D3748"/>
<path d="M168.182 208.552C166.401 192.87 178.656 179.129 194.425 179.129H232.771C248.172 179.129 260.306 192.265 259.103 207.634L257.682 225.773L254.847 254.001C253.687 265.557 245.127 275.003 233.75 277.281L221.273 279.78C218.029 280.43 214.691 280.464 211.435 279.88L194.914 276.918C183.423 274.858 174.645 265.491 173.327 253.879L168.182 208.552Z" fill="#C9F1FF"/>
<path d="M174.901 208.282C173.294 192.689 185.514 179.129 201.174 179.129H226.173C241.499 179.129 253.607 192.143 252.518 207.445L251.404 223.111L249.061 248.808C248.015 260.275 239.674 269.746 228.44 272.224L221.402 273.776C217.852 274.559 214.178 274.6 210.61 273.896L200.223 271.845C188.838 269.598 180.252 260.175 179.061 248.621L174.901 208.282Z" fill="#F7FAFC"/>
<path d="M231.223 240.389C230.882 240.389 230.548 240.49 230.264 240.679C229.981 240.869 229.759 241.138 229.629 241.454C229.498 241.769 229.464 242.116 229.531 242.451C229.597 242.785 229.762 243.093 230.003 243.334C230.244 243.576 230.552 243.74 230.886 243.806C231.221 243.873 231.568 243.839 231.883 243.708C232.199 243.578 232.468 243.356 232.658 243.073C232.847 242.789 232.949 242.455 232.949 242.114C232.949 241.656 232.767 241.218 232.443 240.894C232.12 240.57 231.681 240.389 231.223 240.389Z" fill="#1FA6D6"/>
<path d="M215.823 240.389C215.482 240.389 215.148 240.49 214.864 240.679C214.581 240.869 214.359 241.138 214.229 241.454C214.098 241.769 214.064 242.116 214.131 242.451C214.197 242.785 214.362 243.093 214.603 243.334C214.844 243.576 215.152 243.74 215.486 243.806C215.821 243.873 216.168 243.839 216.483 243.708C216.799 243.578 217.068 243.356 217.258 243.073C217.447 242.789 217.548 242.455 217.548 242.114C217.548 241.656 217.367 241.218 217.043 240.894C216.719 240.57 216.281 240.389 215.823 240.389Z" fill="#1FA6D6"/>
<path d="M233.04 230.528L231.542 233.738H215.545L217.041 230.528L220.453 223.209H216.944L218.171 220.58L218.441 220H225.494L223.997 223.211L220.584 230.529L233.04 230.528Z" fill="#1FA6D6"/>
<path d="M236.46 225.392H224.003L222.506 228.601H234.963L231.55 235.919H214.769L213.273 239.127V239.13H233.594L235.091 235.919L238.503 228.601L240 225.392H236.46Z" fill="#1FA6D6"/>
<path d="M220.377 223.208H216.943L218.17 220.579L220.377 223.208Z" fill="#1FA6D6"/>
<path d="M216.663 224.532L215.458 227.119L207.531 226.8L204.8 226.691L184 225.853L204.827 225.011L208.437 224.865L216.663 224.532Z" fill="#1FA6D6"/>
<path d="M206.497 237.946L210.483 237.786L209.963 238.902C205.439 238.719 200.914 238.537 196.387 238.355L206.497 237.946Z" fill="#F9CDA2"/>
<path d="M212.539 233.379L211.798 234.966L192.462 234.187L212.539 233.379Z" fill="#75B344"/>
<path d="M214.604 228.949L213.626 231.052L188.035 230.02L214.604 228.949Z" fill="#EE0882"/>
<path d="M228.699 221.939C228.685 221.939 228.672 221.936 228.66 221.931L228.35 221.792C228.328 221.781 228.31 221.763 228.302 221.74C228.293 221.716 228.294 221.691 228.304 221.668C228.314 221.646 228.333 221.628 228.356 221.619C228.379 221.611 228.404 221.611 228.427 221.621L228.737 221.761C228.758 221.769 228.775 221.784 228.786 221.803C228.796 221.823 228.8 221.846 228.795 221.867C228.79 221.889 228.778 221.908 228.761 221.922C228.743 221.935 228.721 221.942 228.699 221.941" fill="#1FA6D6"/>
<path d="M228.393 221.257C228.371 221.257 228.35 221.249 228.334 221.235C228.317 221.221 228.306 221.202 228.302 221.181C228.298 221.159 228.302 221.137 228.312 221.118C228.323 221.099 228.34 221.085 228.36 221.077L228.678 220.957C228.69 220.952 228.702 220.949 228.715 220.949C228.727 220.949 228.74 220.952 228.751 220.957C228.763 220.962 228.773 220.969 228.782 220.978C228.791 220.987 228.797 220.998 228.802 221.01C228.806 221.021 228.808 221.034 228.808 221.047C228.807 221.059 228.804 221.071 228.799 221.083C228.793 221.094 228.786 221.104 228.776 221.112C228.767 221.121 228.756 221.127 228.744 221.131L228.426 221.251C228.415 221.255 228.404 221.257 228.393 221.257Z" fill="#1FA6D6"/>
<path d="M228.011 220.868C227.996 220.868 227.98 220.864 227.967 220.857C227.953 220.85 227.941 220.839 227.933 220.826C227.924 220.812 227.919 220.797 227.918 220.782C227.917 220.766 227.92 220.751 227.926 220.736L228.067 220.427C228.078 220.404 228.096 220.387 228.119 220.379C228.142 220.37 228.168 220.371 228.19 220.381C228.212 220.391 228.23 220.41 228.239 220.433C228.247 220.456 228.247 220.481 228.237 220.503L228.096 220.813C228.089 220.83 228.077 220.844 228.062 220.853C228.047 220.863 228.029 220.868 228.011 220.868" fill="#1FA6D6"/>
<path d="M227.467 220.862C227.448 220.862 227.43 220.857 227.414 220.846C227.398 220.835 227.386 220.819 227.38 220.802L227.261 220.483C227.256 220.471 227.254 220.459 227.255 220.447C227.255 220.435 227.258 220.423 227.263 220.411C227.268 220.4 227.275 220.39 227.284 220.382C227.293 220.374 227.304 220.367 227.315 220.363C227.327 220.359 227.339 220.357 227.351 220.357C227.363 220.357 227.375 220.36 227.387 220.365C227.398 220.37 227.408 220.378 227.416 220.387C227.424 220.396 227.431 220.406 227.435 220.417L227.554 220.736C227.563 220.759 227.562 220.785 227.552 220.807C227.542 220.829 227.523 220.847 227.5 220.856C227.489 220.859 227.478 220.861 227.467 220.861" fill="#1FA6D6"/>
<path d="M227.077 221.242C227.064 221.242 227.05 221.239 227.038 221.234L226.729 221.092C226.718 221.087 226.707 221.08 226.698 221.071C226.689 221.062 226.682 221.052 226.677 221.04C226.673 221.028 226.67 221.016 226.671 221.003C226.671 220.991 226.674 220.978 226.679 220.967C226.684 220.955 226.692 220.945 226.701 220.936C226.711 220.928 226.722 220.921 226.733 220.917C226.745 220.913 226.758 220.912 226.771 220.912C226.783 220.913 226.796 220.917 226.807 220.923L227.116 221.064C227.137 221.072 227.154 221.087 227.164 221.107C227.175 221.127 227.178 221.149 227.174 221.171C227.169 221.193 227.157 221.212 227.139 221.226C227.121 221.239 227.099 221.246 227.077 221.244" fill="#1FA6D6"/>
<path d="M225.993 222.831L227.799 221.279L227.802 223.649L227.217 223.195L226.684 224.375L226.448 224.268L226.212 224.161L226.745 222.982L225.993 222.831Z" fill="#1FA6D6"/>
<path d="M188.02 180.654C188.02 178.516 189.602 176.707 191.718 176.425C199.839 175.344 203.655 174.897 212.836 174.649C221.962 174.403 227.267 174.909 234.71 176.265C236.715 176.63 238.156 178.39 238.156 180.429V182.494C238.156 186.464 235.413 189.91 231.477 190.401C223.114 191.444 213.515 191.659 212.87 191.672C212.844 191.672 212.827 191.672 212.801 191.671C212.165 191.647 203.099 191.284 194.93 190.322C190.894 189.847 188.02 186.347 188.02 182.278V180.654Z" fill="#3DB7E2"/>
<path d="M223.04 165.51H203.388V187.703H223.04V165.51Z" fill="#EDF2F7"/>
<path d="M216.489 153.909H210.191C205.042 153.909 200.869 158.087 200.869 163.241C200.869 168.394 205.042 172.572 210.191 172.572H216.489C221.638 172.572 225.811 168.394 225.811 163.241C225.811 158.087 221.638 153.909 216.489 153.909Z" fill="#2992B7"/>
<path d="M188.02 179.318C198.873 178.076 202.366 187.091 212.836 186.848C223.306 186.605 228.747 177.733 238.156 179.318V182.93C238.156 187.001 235.278 190.498 231.234 190.924C222.887 191.802 213.414 191.981 212.861 191.99C212.838 191.991 212.833 191.991 212.81 191.99C212.264 191.972 203.3 191.667 195.146 190.852C191.015 190.44 188.02 186.894 188.02 182.739V179.318Z" fill="#2992B7"/>
<path d="M255.085 197.104C254.785 191.864 258.949 187.451 264.192 187.451C269.371 187.451 273.511 191.762 273.307 196.943L272.956 205.855L272.255 219.749C272.103 222.743 270.221 225.375 267.438 226.483C265.71 227.171 263.791 227.206 262.039 226.582L261.824 226.505C258.693 225.389 256.535 222.505 256.345 219.184L255.085 197.104Z" fill="#2992B7"/>
<path d="M236.248 131.226C236.189 129.704 237.406 128.438 238.928 128.438C240.438 128.438 241.65 129.684 241.609 131.194L241.473 136.308L241.24 143.142C241.214 143.896 240.805 144.584 240.155 144.966C239.499 145.352 238.69 145.371 238.016 145.016L237.949 144.981C237.21 144.592 236.735 143.838 236.703 143.003L236.248 131.226Z" fill="#2992B7"/>
<path d="M153.299 197.104C153 191.864 157.164 187.451 162.407 187.451C167.586 187.451 171.726 191.762 171.521 196.943L171.17 205.855L170.469 219.749C170.318 222.743 168.436 225.375 165.652 226.483C163.925 227.171 162.006 227.206 160.254 226.582L160.038 226.505C156.908 225.389 154.749 222.505 154.56 219.184L153.299 197.104Z" fill="#2992B7"/>
<path d="M185.356 131.226C185.297 129.704 186.514 128.438 188.036 128.438C189.545 128.438 190.757 129.684 190.717 131.194L190.581 136.308L190.347 143.142C190.321 143.896 189.912 144.584 189.263 144.966C188.607 145.352 187.798 145.371 187.124 145.016L187.057 144.981C186.318 144.592 185.843 143.838 185.811 143.003L185.356 131.226Z" fill="#2992B7"/>
<path d="M149.742 198.361C149.459 193.397 153.404 189.217 158.371 189.217C163.278 189.217 167.2 193.301 167.007 198.209L166.674 206.694L166.008 219.904C165.866 222.739 164.085 225.231 161.451 226.282C159.811 226.937 157.989 226.971 156.326 226.376L156.122 226.303C153.159 225.245 151.117 222.514 150.938 219.37L149.742 198.361Z" fill="#3DB7E2"/>
<path d="M189.286 135.15C187.8 120.77 199.07 108.262 213.513 108.262C227.646 108.262 238.812 120.265 237.807 134.377L237.655 136.503L236.479 149.379C235.609 158.901 228.682 166.763 219.354 168.816C216.411 169.464 213.367 169.497 210.411 168.915L209.95 168.824C199.525 166.77 191.661 158.144 190.568 147.565L189.286 135.15Z" fill="#7DD3F1"/>
<path d="M193.114 135.734C191.872 123.74 201.271 113.306 213.317 113.306C225.105 113.306 234.418 123.318 233.577 135.088L233.454 136.802L232.477 147.473C231.749 155.418 225.965 161.977 218.18 163.686C215.731 164.224 213.198 164.252 210.737 163.769L210.353 163.693C201.653 161.983 195.087 154.788 194.173 145.959L193.114 135.734Z" fill="#F7FAFC"/>
<path d="M259.589 198.109C259.306 193.145 263.252 188.964 268.218 188.964C273.125 188.964 277.048 193.048 276.855 197.956L276.521 206.442L275.856 219.652C275.713 222.487 273.933 224.979 271.299 226.03C269.659 226.685 267.837 226.718 266.174 226.124L265.969 226.051C263.007 224.992 260.965 222.261 260.786 219.117L259.589 198.109Z" fill="#3DB7E2"/>
<path d="M219.398 126.168H207.282C201.792 126.168 197.342 130.623 197.342 136.118V137.15C197.342 142.645 201.792 147.1 207.282 147.1H219.398C224.888 147.1 229.338 142.645 229.338 137.15V136.118C229.338 130.623 224.888 126.168 219.398 126.168Z" fill="#14576F"/>
<path d="M215.871 125.916H207.282C201.792 125.916 197.342 130.37 197.342 135.866V136.898C197.342 142.393 201.792 146.848 207.282 146.848H215.871C221.361 146.848 225.811 142.393 225.811 136.898V135.866C225.811 130.37 221.361 125.916 215.871 125.916Z" fill="#2992B7"/>
<path d="M203.262 136.508C204.584 136.508 205.656 135.435 205.656 134.112C205.656 132.789 204.584 131.716 203.262 131.716C201.94 131.716 200.869 132.789 200.869 134.112C200.869 135.435 201.94 136.508 203.262 136.508Z" fill="white"/>
<path d="M220.394 136.508C221.716 136.508 222.788 135.435 222.788 134.112C222.788 132.789 221.716 131.716 220.394 131.716C219.072 131.716 218.001 132.789 218.001 134.112C218.001 135.435 219.072 136.508 220.394 136.508Z" fill="white"/>
<path d="M207.167 139.282C210.758 141.853 212.772 141.585 216.363 139.282" stroke="#F7FAFC" stroke-width="5" stroke-linecap="round"/>
<path d="M263.794 213.085C261.633 209.96 262.521 205.66 265.743 203.649C268.9 201.679 273.058 202.685 274.967 205.881L301.838 250.871C302.645 252.22 302.204 253.968 300.855 254.773L297.305 256.889C296.022 257.654 294.366 257.294 293.517 256.064L263.794 213.085Z" fill="#7DD3F1"/>
<path d="M299.205 257.353C296.132 259.585 291.818 258.793 289.737 255.613C287.7 252.498 288.612 248.314 291.762 246.332L336.097 218.437C337.426 217.6 339.181 218.002 340.013 219.335L342.206 222.839C342.998 224.106 342.677 225.771 341.467 226.649L299.205 257.353Z" fill="#7DD3F1"/>
<path d="M339.408 205.797C338.997 206.951 339.684 208.207 340.877 208.481C342.013 208.742 343.137 208 343.345 206.851L344.14 202.465C344.29 201.631 343.756 200.827 342.93 200.645L342.672 200.588C341.93 200.424 341.181 200.838 340.925 201.555L339.408 205.797Z" fill="#7DD3F1"/>
<path d="M348.408 200.046C347.781 201.101 348.175 202.467 349.269 203.023C350.334 203.563 351.632 203.12 352.143 202.041L356.664 192.516C357.048 191.709 356.712 190.744 355.909 190.352C355.148 189.978 354.227 190.253 353.796 190.982L348.408 200.046Z" fill="#7DD3F1"/>
<path d="M111.402 181.64C111.184 182.848 112.032 183.989 113.251 184.127C114.436 184.261 115.498 183.39 115.6 182.201L116.506 171.693C116.582 170.804 115.929 170.018 115.042 169.931C114.198 169.848 113.431 170.427 113.28 171.263L111.402 181.64Z" fill="#7DD3F1"/>
<path d="M352.952 201.967C352.183 202.924 352.384 204.332 353.39 205.036C354.367 205.72 355.716 205.463 356.372 204.467L362.182 195.669C362.674 194.924 362.475 193.921 361.736 193.42C361.035 192.944 360.084 193.087 359.553 193.748L352.952 201.967Z" fill="#7DD3F1"/>
<path d="M115.313 180.288C114.949 181.46 115.652 182.696 116.846 182.981C118.006 183.257 119.165 182.522 119.411 181.354L121.584 171.034C121.768 170.161 121.215 169.301 120.345 169.107C119.517 168.922 118.686 169.404 118.435 170.215L115.313 180.288Z" fill="#7DD3F1"/>
<path d="M355.974 204.143C355.204 205.1 355.406 206.508 356.411 207.212C357.388 207.896 358.735 207.639 359.393 206.643L365.201 197.845C365.695 197.1 365.497 196.097 364.758 195.596C364.057 195.12 363.105 195.263 362.574 195.925L355.974 204.143Z" fill="#7DD3F1"/>
<path d="M119.511 179.301C119.147 180.474 119.851 181.71 121.044 181.995C122.204 182.271 123.364 181.536 123.61 180.368L125.782 170.048C125.966 169.175 125.414 168.315 124.543 168.121C123.716 167.936 122.885 168.418 122.633 169.229L119.511 179.301Z" fill="#7DD3F1"/>
<path d="M358.493 206.759C357.726 207.716 357.925 209.124 358.931 209.828C359.908 210.512 361.257 210.255 361.915 209.259L367.723 200.46C368.215 199.716 368.019 198.713 367.28 198.212C366.576 197.736 365.627 197.878 365.096 198.54L358.493 206.759Z" fill="#7DD3F1"/>
<path d="M123.44 180.028C123.055 181.193 123.749 182.438 124.942 182.723C126.093 182.997 127.242 182.263 127.478 181.102L128.971 173.753C129.15 172.874 128.593 172.012 127.718 171.815C126.89 171.627 126.055 172.1 125.789 172.907L123.44 180.028Z" fill="#7DD3F1"/>
<path d="M149.477 206.808C150.872 203.272 154.936 201.622 158.396 203.185C161.788 204.717 163.263 208.737 161.669 212.102L139.239 259.468C138.566 260.888 136.869 261.492 135.451 260.817L131.721 259.039C130.373 258.397 129.752 256.819 130.301 255.428L149.477 206.808Z" fill="#7DD3F1"/>
<path d="M142.361 255.027C143.255 258.721 140.883 262.413 137.154 263.13C133.5 263.833 129.981 261.398 129.348 257.728L120.432 206.075C120.164 204.527 121.203 203.054 122.751 202.789L126.823 202.092C128.295 201.84 129.711 202.772 130.062 204.224L142.361 255.027Z" fill="#70C7E6"/>
<path d="M140.403 256.301C140.403 253.654 138.26 251.509 135.616 251.509C132.972 251.509 130.829 253.654 130.829 256.301V256.553C130.829 259.199 132.972 261.345 135.616 261.345C138.26 261.345 140.403 259.199 140.403 256.553V256.301Z" fill="#2992B7"/>
<path d="M300.387 251.761C300.387 249.115 298.244 246.969 295.6 246.969C292.956 246.969 290.813 249.115 290.813 251.761V252.013C290.813 254.66 292.956 256.805 295.6 256.805C298.244 256.805 300.387 254.66 300.387 252.013V251.761Z" fill="#2992B7"/>
<path d="M336.162 220.993C336.162 218.347 338.304 216.202 340.948 216.202C343.592 216.202 345.736 218.347 345.736 220.993V221.246C345.736 223.892 343.592 226.037 340.948 226.037C338.304 226.037 336.162 223.892 336.162 221.246V220.993Z" fill="#2992B7"/>
<path d="M119.491 201.574C119.491 198.928 121.634 196.782 124.278 196.782C126.922 196.782 129.065 198.928 129.065 201.574V201.827C129.065 204.473 126.922 206.618 124.278 206.618C121.634 206.618 119.491 204.473 119.491 201.827V201.574Z" fill="#2992B7"/>
<path d="M344.415 205.74C346.082 203.108 349.661 202.5 352.103 204.434L355.792 207.354C358.38 209.401 358.686 213.215 356.463 215.65L354.634 217.651L351.879 220.55C349.817 222.718 346.591 223.3 343.901 221.989C343.058 221.577 342.308 220.996 341.697 220.282L341.601 220.171C339.44 217.642 339.178 213.996 340.962 211.185L344.415 205.74Z" fill="#7DD3F1"/>
<path d="M111.892 191.154C110.715 188.268 112.292 184.996 115.282 184.122L119.795 182.802C122.96 181.877 126.244 183.835 126.94 187.061L127.511 189.711L128.277 193.639C128.849 196.576 127.455 199.547 124.83 200.981C124.006 201.431 123.099 201.707 122.164 201.792L122.018 201.806C118.705 202.107 115.585 200.208 114.328 197.125L111.892 191.154Z" fill="#7DD3F1"/>
<path d="M241.32 56.0705L236.849 56.05L236.723 83.6696L241.194 83.6901L241.32 56.0705Z" fill="#1DA6D6"/>
<path d="M248.289 59.8819L243.818 59.8615L243.709 83.7004L248.18 83.7209L248.289 59.8819Z" fill="#1DA6D6"/>
<path d="M255.249 65.7475L250.778 65.7271L250.696 83.7331L255.167 83.7535L255.249 65.7475Z" fill="#1DA6D6"/>
<path d="M262.204 72.7126L257.733 72.6921L257.682 83.7644L262.153 83.7848L262.204 72.7126Z" fill="#1DA6D6"/>
<path d="M269.18 74.9416L264.709 74.9211L264.668 83.7974L269.139 83.8178L269.18 74.9416Z" fill="#1DA6D6"/>
<path d="M276.208 65.8442L271.737 65.8237L271.655 83.8298L276.126 83.8502L276.208 65.8442Z" fill="#1DA6D6"/>
<path d="M170.375 54.773C181.981 54.773 191.391 45.6456 191.391 34.3865C191.391 23.1273 181.981 14 170.375 14C158.768 14 149.359 23.1273 149.359 34.3865C149.359 45.6456 158.768 54.773 170.375 54.773Z" fill="#D5F2FF"/>
<path d="M178.391 47.833H161.925V72.9908H178.391V47.833Z" fill="#D5F2FF"/>
<path d="M161.925 60.4121H178.391V79.0166C178.391 82.1568 175.848 84.7023 172.711 84.7023H167.605C164.468 84.7023 161.925 82.1568 161.925 79.0166V60.4121Z" fill="#1DA6D6"/>
<path d="M164.958 36.9893L168.425 60.629H172.325L176.224 36.9893L172.975 40.2426L170.591 36.9893L168.425 40.2426L164.958 36.9893Z" stroke="#1F7694" stroke-width="3" stroke-linecap="round" stroke-linejoin="round"/>
<path d="M178.391 60.4121H161.925V63.8822H178.391V60.4121Z" fill="#1F7694"/>
<path d="M216.489 319.096H143.678V321.114H216.489V319.096Z" fill="#F7FAFC"/>
<path d="M216.489 314.053H143.678V316.071H216.489V314.053Z" fill="#F7FAFC"/>
<path d="M180.209 309.01H143.678V311.028H180.209V309.01Z" fill="#F7FAFC"/>
<path d="M194.57 303.967H143.678V305.984H194.57V303.967Z" fill="#F7FAFC"/>
<path d="M180.209 298.921H143.678V300.938H180.209V298.921Z" fill="#F7FAFC"/>
<path d="M175.674 293.877H143.678V295.895H175.674V293.877Z" fill="#F7FAFC"/>
<path d="M168.872 288.834H143.678V290.852H168.872V288.834Z" fill="#F7FAFC"/>
<path d="M175.674 283.79H143.678V285.808H175.674V283.79Z" fill="#F7FAFC"/>
<path d="M164.337 278.746H143.678V280.763H164.337V278.746Z" fill="#F7FAFC"/>
<path d="M164.337 254.787H143.678V272.441H164.337V254.787Z" fill="#EDF2F7"/>
<path d="M283.254 298.921H253.776V320.105H283.254V298.921Z" fill="#EDF2F7"/>
<path d="M82.2302 308.72C89.5233 307.361 107.089 305.456 119.006 308.72C112.605 311.438 96.2888 315.244 82.2302 308.72Z" fill="#2D3748"/>
<path d="M81.5449 308.268C81.5449 308.268 89.7923 311.995 100.744 311.995C111.696 311.995 120.148 308.268 120.148 308.268L115.054 337.459C114.341 341.541 110.801 344.52 106.661 344.52H94.4297C90.2248 344.52 86.6487 341.45 86.0088 337.291L81.5449 308.268Z" fill="#1DA6D6"/>
<path d="M82.0016 308.492C97.3708 306.096 105.11 306.087 119.691 308.492" stroke="#1DA6D6" stroke-width="3" stroke-linecap="round" stroke-linejoin="round"/>
<path d="M89.9962 271.792C105.529 282.059 103.321 301.289 100.275 309.618C97.0391 302.15 95.5924 285.886 115.693 280.573" stroke="#4A5568" stroke-width="3" stroke-linecap="round" stroke-linejoin="round"/>
<path d="M115.829 286.605C110.963 289.778 106.68 287.398 103.839 287.617C105.272 284.411 104.603 280.307 109.469 277.132C114.336 273.958 118 277.197 122.042 275.74C119.065 279.317 120.695 283.429 115.829 286.605Z" fill="#4A5568"/>
<path d="M82.1984 302.957C75.3861 300.234 74.8865 294.054 72.6452 291.268C77.0631 290.412 80.9485 286.719 87.7605 289.443C94.5726 292.169 93.7231 298.332 98.1282 301.459C92.2244 300.987 89.0104 305.681 82.1984 302.957Z" fill="#4A5568"/>
<path d="M111.065 287.424C117.354 283.671 122.678 286.972 126.283 286.87C124.337 290.87 125.014 296.149 118.725 299.902C112.436 303.651 107.931 299.293 102.755 300.902C106.67 296.521 104.776 291.174 111.065 287.424Z" fill="#718096"/>
<path d="M89.1499 274.262C95.6083 275.892 97.0686 280.434 99.5054 282.366C95.7495 283.249 92.9313 286.199 86.4729 284.567C80.0147 282.938 79.7466 278.331 75.3452 276.269C80.6307 276.285 82.6914 272.632 89.1499 274.262Z" fill="#718096"/>
<path d="M105.707 269.518C104.686 276.012 100.242 277.885 98.5267 280.463C97.272 276.864 94.0213 274.384 95.0417 267.89C96.0618 261.396 100.687 260.687 102.344 256.169C102.839 261.356 106.727 263.024 105.707 269.518Z" fill="#718096"/>
<path d="M96.1996 282.328C98.7033 275.514 104.95 274.788 107.689 272.475C108.724 276.794 112.614 280.482 110.11 287.296C107.607 294.108 101.324 293.505 98.3222 297.963C98.5775 292.129 93.6958 289.141 96.1996 282.328Z" fill="#A0AEC0"/>
<path d="M89.8195 258.984C93.8469 264.58 91.0734 269.747 91.4295 273.091C87.4717 271.547 82.4824 272.527 78.455 266.931C74.4276 261.334 78.2678 256.858 76.3636 252.154C80.823 255.503 85.7921 253.387 89.8195 258.984Z" fill="#718096"/>
<g style="mix-blend-mode:multiply">
<path d="M340.8 94.9514H290.248C286.64 94.9514 283.716 97.8788 283.716 101.49V128.213C283.716 131.824 286.64 134.751 290.248 134.751H340.8C344.407 134.751 347.332 131.824 347.332 128.213V101.49C347.332 97.8788 344.407 94.9514 340.8 94.9514Z" fill="#C9ECFA"/>
</g>
<path d="M328.588 108.029H289.964V110.303H328.588V108.029Z" fill="#79BBD7"/>
<path d="M317.796 113.43H290.532V115.704H317.796V113.43Z" fill="#79BBD7"/>
<path d="M317.796 118.831H290.532V121.106H317.796V118.831Z" fill="#79BBD7"/>
<path d="M96.5074 115.989H91.7149L100.441 91.1781H105.984L114.721 115.989H109.929L103.309 96.2662H103.115L96.5074 115.989ZM96.6648 106.261H109.735V109.871H96.6648V106.261ZM122.476 91.1781V115.989H117.986V91.1781H122.476Z" fill="#1DA6D6"/>
</g>
<path fill-rule="evenodd" clip-rule="evenodd" d="M83.6016 36.0036C73.8114 34.4686 60.6892 38.3248 58.1059 52.8322C55.504 67.3396 65.7808 75.5761 76.17 77.4667C81.0932 78.3652 86.6154 77.3357 91.0518 74.584C95.9563 71.5514 99.5691 66.4598 100.636 60.4509C101.797 53.8056 99.6253 47.0854 95.3011 42.3681C92.175 38.9612 87.7198 36.64 83.6016 36.0036Z" fill="#197291"/>
<path d="M76.362 76.4614C65.4634 74.5072 58.2127 64.0879 60.1669 53.1893C62.1212 42.2908 72.5405 35.04 83.4391 36.9943C94.3376 38.9486 101.588 49.3679 99.6341 60.2664C97.6798 71.165 87.2605 78.4157 76.362 76.4614Z" fill="#1DA6D6"/>
<path d="M77.5518 69.8289C70.3166 68.5316 65.5031 61.6146 66.8005 54.3794C68.0979 47.1442 75.0149 42.3307 82.25 43.6281C89.4852 44.9254 94.2987 51.8424 93.0014 59.0776C91.704 66.3128 84.787 71.1263 77.5518 69.8289Z" fill="#F1FBFF"/>
<path d="M78.8308 63.5632C75.1573 62.9044 72.7133 59.3924 73.372 55.7189C74.0307 52.0453 77.5427 49.6013 81.2163 50.26C84.8899 50.9188 87.3339 54.4308 86.6751 58.1043C86.0164 61.7779 82.5044 64.2219 78.8308 63.5632Z" fill="#1DA6D6"/>
<path fill-rule="evenodd" clip-rule="evenodd" d="M81.636 57.6244C77.6301 57.0628 71.3217 54.18 70.3296 53.7308C59.1542 48.583 51.1798 44.914 40.0044 39.7662C39.4802 39.5229 39.2743 38.8303 39.5364 38.25C39.8172 37.651 40.4723 37.3702 40.9965 37.6135C52.1719 42.7613 60.1463 46.4303 71.3217 51.5781C72.3138 52.0273 78.6035 54.9663 81.636 57.6244Z" fill="#EDE4F1"/>
<path fill-rule="evenodd" clip-rule="evenodd" d="M70.6666 53.0195L40.3414 39.0549C39.8173 38.8116 39.4616 38.4559 39.5552 38.25C39.2744 38.849 39.4803 39.5229 40.0232 39.7663L41.2025 40.3091L43.5237 41.3761L45.8448 42.4431L48.166 43.5101L50.4872 44.5771L70.3484 53.7308C71.3405 54.1988 77.6489 57.0629 81.6548 57.6244C77.9484 56.3702 71.6587 53.4688 70.6666 53.0195Z" fill="#74D0F0"/>
<path fill-rule="evenodd" clip-rule="evenodd" d="M50.4684 44.5771L45.6201 47.4785C45.1896 47.7406 44.4034 47.7406 43.8418 47.4785L36.4103 44.0529C35.9423 43.847 35.8674 43.4913 36.2231 43.2667L41.1837 40.3091L50.4684 44.5771ZM51.4605 42.4243L50.5059 36.8647C50.431 36.378 49.9069 35.7603 49.364 35.5169L41.9324 32.0913C41.4645 31.8854 41.1462 32.0352 41.2211 32.4657L42.1945 38.1564L51.4605 42.4243Z" fill="#1DA6D6"/>
</g>
<defs>
<clipPath id="clip0_59_5669">
<rect width="426" height="398" fill="white"/>
</clipPath>
</defs>
</svg>
