<svg width="201" height="61" viewBox="0 0 201 61" fill="none" xmlns="http://www.w3.org/2000/svg">
<rect x="0.5" y="1.03979" width="200" height="59" rx="5.5" fill="#1D274A"/>
<rect x="0.5" y="1.03979" width="200" height="59" rx="5.5" stroke="#A6A6A6"/>
<path fill-rule="evenodd" clip-rule="evenodd" d="M61.7689 31.1202C61.7907 29.4237 62.6801 27.8567 64.1254 26.9682C63.2095 25.66 61.7304 24.8604 60.1343 24.8105C58.455 24.6342 56.8271 25.8153 55.9714 25.8153C55.0991 25.8153 53.7816 24.828 52.3629 24.8572C50.4962 24.9175 48.7981 25.9531 47.89 27.585C45.956 30.9335 47.3985 35.8545 49.2512 38.5611C50.1781 39.8865 51.2613 41.3669 52.6788 41.3144C54.0658 41.2569 54.5839 40.4299 56.2582 40.4299C57.9169 40.4299 58.403 41.3144 59.8492 41.281C61.3376 41.2569 62.2753 39.9498 63.1697 38.6119C63.8357 37.6675 64.3481 36.6238 64.6881 35.5194C62.9204 34.7717 61.7709 33.0396 61.7689 31.1202Z" fill="white"/>
<path fill-rule="evenodd" clip-rule="evenodd" d="M59.0372 23.0304C59.8488 22.0562 60.2486 20.804 60.1518 19.5398C58.9119 19.67 57.7667 20.2626 56.9442 21.1994C56.132 22.1237 55.7206 23.333 55.8005 24.5608C57.0569 24.5737 58.2499 24.0097 59.0372 23.0304Z" fill="white"/>
<path d="M77.557 24.3198V19.3338H78.997C79.393 19.3338 79.726 19.3908 79.996 19.5048C80.266 19.6128 80.485 19.7748 80.653 19.9908C80.827 20.2008 80.95 20.4588 81.022 20.7648C81.1 21.0648 81.139 21.4068 81.139 21.7908C81.139 22.1868 81.097 22.5258 81.013 22.8078C80.935 23.0838 80.833 23.3148 80.707 23.5008C80.581 23.6868 80.437 23.8338 80.275 23.9418C80.119 24.0498 79.96 24.1338 79.798 24.1938C79.636 24.2478 79.483 24.2838 79.339 24.3018C79.195 24.3138 79.075 24.3198 78.979 24.3198H77.557ZM76.702 18.6138V25.0398H78.907C79.441 25.0398 79.903 24.9648 80.293 24.8148C80.683 24.6648 81.004 24.4488 81.256 24.1668C81.508 23.8788 81.694 23.5278 81.814 23.1138C81.934 22.6938 81.994 22.2138 81.994 21.6738C81.994 20.6418 81.727 19.8738 81.193 19.3698C80.659 18.8658 79.897 18.6138 78.907 18.6138H76.702ZM83.6509 22.7178C83.6509 22.4358 83.6869 22.1868 83.7589 21.9708C83.8369 21.7488 83.9419 21.5628 84.0739 21.4128C84.2059 21.2628 84.3589 21.1488 84.5329 21.0708C84.7129 20.9928 84.9019 20.9538 85.0999 20.9538C85.2979 20.9538 85.4839 20.9928 85.6579 21.0708C85.8379 21.1488 85.9939 21.2628 86.1259 21.4128C86.2579 21.5628 86.3599 21.7488 86.4319 21.9708C86.5099 22.1868 86.5489 22.4358 86.5489 22.7178C86.5489 22.9998 86.5099 23.2518 86.4319 23.4738C86.3599 23.6898 86.2579 23.8728 86.1259 24.0228C85.9939 24.1668 85.8379 24.2778 85.6579 24.3558C85.4839 24.4338 85.2979 24.4728 85.0999 24.4728C84.9019 24.4728 84.7129 24.4338 84.5329 24.3558C84.3589 24.2778 84.2059 24.1668 84.0739 24.0228C83.9419 23.8728 83.8369 23.6898 83.7589 23.4738C83.6869 23.2518 83.6509 22.9998 83.6509 22.7178ZM82.8409 22.7178C82.8409 23.0598 82.8889 23.3778 82.9849 23.6718C83.0809 23.9658 83.2249 24.2238 83.4169 24.4458C83.6089 24.6618 83.8459 24.8328 84.1279 24.9588C84.4099 25.0788 84.7339 25.1388 85.0999 25.1388C85.4719 25.1388 85.7959 25.0788 86.0719 24.9588C86.3539 24.8328 86.5909 24.6618 86.7829 24.4458C86.9749 24.2238 87.1189 23.9658 87.2149 23.6718C87.3109 23.3778 87.3589 23.0598 87.3589 22.7178C87.3589 22.3758 87.3109 22.0578 87.2149 21.7638C87.1189 21.4638 86.9749 21.2058 86.7829 20.9898C86.5909 20.7678 86.3539 20.5938 86.0719 20.4678C85.7959 20.3418 85.4719 20.2788 85.0999 20.2788C84.7339 20.2788 84.4099 20.3418 84.1279 20.4678C83.8459 20.5938 83.6089 20.7678 83.4169 20.9898C83.2249 21.2058 83.0809 21.4638 82.9849 21.7638C82.8889 22.0578 82.8409 22.3758 82.8409 22.7178ZM93.0489 25.0398L94.5339 20.3868H93.7419L92.6979 24.1938H92.6799L91.7079 20.3868H90.8709L89.9349 24.1938H89.9169L88.8639 20.3868H88.0179L89.5119 25.0398H90.3399L91.2759 21.3408H91.2939L92.2389 25.0398H93.0489ZM95.4412 20.3868V25.0398H96.2062V22.4118C96.2062 22.2018 96.2332 22.0098 96.2872 21.8358C96.3472 21.6558 96.4342 21.4998 96.5482 21.3678C96.6622 21.2358 96.8032 21.1338 96.9712 21.0618C97.1452 20.9898 97.3492 20.9538 97.5832 20.9538C97.8772 20.9538 98.1082 21.0378 98.2762 21.2058C98.4442 21.3738 98.5282 21.6018 98.5282 21.8898V25.0398H99.2932V21.9798C99.2932 21.7278 99.2662 21.4998 99.2122 21.2958C99.1642 21.0858 99.0772 20.9058 98.9512 20.7558C98.8252 20.6058 98.6602 20.4888 98.4562 20.4048C98.2522 20.3208 97.9972 20.2788 97.6912 20.2788C97.0012 20.2788 96.4972 20.5608 96.1792 21.1248H96.1612V20.3868H95.4412ZM100.667 18.6138V25.0398H101.432V18.6138H100.667ZM103.355 22.7178C103.355 22.4358 103.391 22.1868 103.463 21.9708C103.541 21.7488 103.646 21.5628 103.778 21.4128C103.91 21.2628 104.063 21.1488 104.237 21.0708C104.417 20.9928 104.606 20.9538 104.804 20.9538C105.002 20.9538 105.188 20.9928 105.362 21.0708C105.542 21.1488 105.698 21.2628 105.83 21.4128C105.962 21.5628 106.064 21.7488 106.136 21.9708C106.214 22.1868 106.253 22.4358 106.253 22.7178C106.253 22.9998 106.214 23.2518 106.136 23.4738C106.064 23.6898 105.962 23.8728 105.83 24.0228C105.698 24.1668 105.542 24.2778 105.362 24.3558C105.188 24.4338 105.002 24.4728 104.804 24.4728C104.606 24.4728 104.417 24.4338 104.237 24.3558C104.063 24.2778 103.91 24.1668 103.778 24.0228C103.646 23.8728 103.541 23.6898 103.463 23.4738C103.391 23.2518 103.355 22.9998 103.355 22.7178ZM102.545 22.7178C102.545 23.0598 102.593 23.3778 102.689 23.6718C102.785 23.9658 102.929 24.2238 103.121 24.4458C103.313 24.6618 103.55 24.8328 103.832 24.9588C104.114 25.0788 104.438 25.1388 104.804 25.1388C105.176 25.1388 105.5 25.0788 105.776 24.9588C106.058 24.8328 106.295 24.6618 106.487 24.4458C106.679 24.2238 106.823 23.9658 106.919 23.6718C107.015 23.3778 107.063 23.0598 107.063 22.7178C107.063 22.3758 107.015 22.0578 106.919 21.7638C106.823 21.4638 106.679 21.2058 106.487 20.9898C106.295 20.7678 106.058 20.5938 105.776 20.4678C105.5 20.3418 105.176 20.2788 104.804 20.2788C104.438 20.2788 104.114 20.3418 103.832 20.4678C103.55 20.5938 103.313 20.7678 103.121 20.9898C102.929 21.2058 102.785 21.4638 102.689 21.7638C102.593 22.0578 102.545 22.3758 102.545 22.7178ZM112.267 25.0218C112.135 25.0998 111.952 25.1388 111.718 25.1388C111.52 25.1388 111.361 25.0848 111.241 24.9768C111.127 24.8628 111.07 24.6798 111.07 24.4278C110.86 24.6798 110.614 24.8628 110.332 24.9768C110.056 25.0848 109.756 25.1388 109.432 25.1388C109.222 25.1388 109.021 25.1148 108.829 25.0668C108.643 25.0188 108.481 24.9438 108.343 24.8418C108.205 24.7398 108.094 24.6078 108.01 24.4458C107.932 24.2778 107.893 24.0768 107.893 23.8428C107.893 23.5788 107.938 23.3628 108.028 23.1948C108.118 23.0268 108.235 22.8918 108.379 22.7898C108.529 22.6818 108.697 22.6008 108.883 22.5468C109.075 22.4928 109.27 22.4478 109.468 22.4118C109.678 22.3698 109.876 22.3398 110.062 22.3218C110.254 22.2978 110.422 22.2678 110.566 22.2318C110.71 22.1898 110.824 22.1328 110.908 22.0608C110.992 21.9828 111.034 21.8718 111.034 21.7278C111.034 21.5598 111.001 21.4248 110.935 21.3228C110.875 21.2208 110.794 21.1428 110.692 21.0888C110.596 21.0348 110.485 20.9988 110.359 20.9808C110.239 20.9628 110.119 20.9538 109.999 20.9538C109.675 20.9538 109.405 21.0168 109.189 21.1428C108.973 21.2628 108.856 21.4938 108.838 21.8358H108.073C108.085 21.5478 108.145 21.3048 108.253 21.1068C108.361 20.9088 108.505 20.7498 108.685 20.6298C108.865 20.5038 109.069 20.4138 109.297 20.3598C109.531 20.3058 109.78 20.2788 110.044 20.2788C110.254 20.2788 110.461 20.2938 110.665 20.3238C110.875 20.3538 111.064 20.4168 111.232 20.5128C111.4 20.6028 111.535 20.7318 111.637 20.8998C111.739 21.0678 111.79 21.2868 111.79 21.5568V23.9508C111.79 24.1308 111.799 24.2628 111.817 24.3468C111.841 24.4308 111.913 24.4728 112.033 24.4728C112.099 24.4728 112.177 24.4578 112.267 24.4278V25.0218ZM111.025 22.6368C110.929 22.7088 110.803 22.7628 110.647 22.7988C110.491 22.8288 110.326 22.8558 110.152 22.8798C109.984 22.8978 109.813 22.9218 109.639 22.9518C109.465 22.9758 109.309 23.0178 109.171 23.0778C109.033 23.1378 108.919 23.2248 108.829 23.3388C108.745 23.4468 108.703 23.5968 108.703 23.7888C108.703 23.9148 108.727 24.0228 108.775 24.1128C108.829 24.1968 108.895 24.2658 108.973 24.3198C109.057 24.3738 109.153 24.4128 109.261 24.4368C109.369 24.4608 109.483 24.4728 109.603 24.4728C109.855 24.4728 110.071 24.4398 110.251 24.3738C110.431 24.3018 110.578 24.2148 110.692 24.1128C110.806 24.0048 110.89 23.8908 110.944 23.7708C110.998 23.6448 111.025 23.5278 111.025 23.4198V22.6368ZM113.717 22.7538C113.717 22.5258 113.741 22.3038 113.789 22.0878C113.837 21.8718 113.915 21.6798 114.023 21.5118C114.131 21.3438 114.275 21.2088 114.455 21.1068C114.635 21.0048 114.854 20.9538 115.112 20.9538C115.376 20.9538 115.601 21.0048 115.787 21.1068C115.973 21.2028 116.123 21.3318 116.237 21.4938C116.357 21.6558 116.444 21.8448 116.498 22.0608C116.552 22.2708 116.579 22.4898 116.579 22.7178C116.579 22.9338 116.552 23.1468 116.498 23.3568C116.45 23.5668 116.369 23.7558 116.255 23.9238C116.141 24.0858 115.994 24.2178 115.814 24.3198C115.634 24.4218 115.415 24.4728 115.157 24.4728C114.911 24.4728 114.695 24.4248 114.509 24.3288C114.329 24.2328 114.179 24.1038 114.059 23.9418C113.945 23.7798 113.858 23.5968 113.798 23.3928C113.744 23.1828 113.717 22.9698 113.717 22.7538ZM117.317 25.0398V18.6138H116.552V21.0078H116.534C116.45 20.8698 116.345 20.7558 116.219 20.6658C116.099 20.5698 115.97 20.4948 115.832 20.4408C115.694 20.3808 115.556 20.3388 115.418 20.3148C115.28 20.2908 115.151 20.2788 115.031 20.2788C114.677 20.2788 114.365 20.3448 114.095 20.4768C113.831 20.6028 113.609 20.7768 113.429 20.9988C113.255 21.2148 113.123 21.4698 113.033 21.7638C112.949 22.0578 112.907 22.3698 112.907 22.6998C112.907 23.0298 112.952 23.3418 113.042 23.6358C113.132 23.9298 113.264 24.1878 113.438 24.4098C113.618 24.6318 113.84 24.8088 114.104 24.9408C114.374 25.0728 114.689 25.1388 115.049 25.1388C115.373 25.1388 115.67 25.0818 115.94 24.9678C116.21 24.8538 116.408 24.6678 116.534 24.4098H116.552V25.0398H117.317ZM121.917 22.7178C121.917 22.4358 121.953 22.1868 122.025 21.9708C122.103 21.7488 122.208 21.5628 122.34 21.4128C122.472 21.2628 122.625 21.1488 122.799 21.0708C122.979 20.9928 123.168 20.9538 123.366 20.9538C123.564 20.9538 123.75 20.9928 123.924 21.0708C124.104 21.1488 124.26 21.2628 124.392 21.4128C124.524 21.5628 124.626 21.7488 124.698 21.9708C124.776 22.1868 124.815 22.4358 124.815 22.7178C124.815 22.9998 124.776 23.2518 124.698 23.4738C124.626 23.6898 124.524 23.8728 124.392 24.0228C124.26 24.1668 124.104 24.2778 123.924 24.3558C123.75 24.4338 123.564 24.4728 123.366 24.4728C123.168 24.4728 122.979 24.4338 122.799 24.3558C122.625 24.2778 122.472 24.1668 122.34 24.0228C122.208 23.8728 122.103 23.6898 122.025 23.4738C121.953 23.2518 121.917 22.9998 121.917 22.7178ZM121.107 22.7178C121.107 23.0598 121.155 23.3778 121.251 23.6718C121.347 23.9658 121.491 24.2238 121.683 24.4458C121.875 24.6618 122.112 24.8328 122.394 24.9588C122.676 25.0788 123 25.1388 123.366 25.1388C123.738 25.1388 124.062 25.0788 124.338 24.9588C124.62 24.8328 124.857 24.6618 125.049 24.4458C125.241 24.2238 125.385 23.9658 125.481 23.6718C125.577 23.3778 125.625 23.0598 125.625 22.7178C125.625 22.3758 125.577 22.0578 125.481 21.7638C125.385 21.4638 125.241 21.2058 125.049 20.9898C124.857 20.7678 124.62 20.5938 124.338 20.4678C124.062 20.3418 123.738 20.2788 123.366 20.2788C123 20.2788 122.676 20.3418 122.394 20.4678C122.112 20.5938 121.875 20.7678 121.683 20.9898C121.491 21.2058 121.347 21.4638 121.251 21.7638C121.155 22.0578 121.107 22.3758 121.107 22.7178ZM126.707 20.3868V25.0398H127.472V22.4118C127.472 22.2018 127.499 22.0098 127.553 21.8358C127.613 21.6558 127.7 21.4998 127.814 21.3678C127.928 21.2358 128.069 21.1338 128.237 21.0618C128.411 20.9898 128.615 20.9538 128.849 20.9538C129.143 20.9538 129.374 21.0378 129.542 21.2058C129.71 21.3738 129.794 21.6018 129.794 21.8898V25.0398H130.559V21.9798C130.559 21.7278 130.532 21.4998 130.478 21.2958C130.43 21.0858 130.343 20.9058 130.217 20.7558C130.091 20.6058 129.926 20.4888 129.722 20.4048C129.518 20.3208 129.263 20.2788 128.957 20.2788C128.267 20.2788 127.763 20.5608 127.445 21.1248H127.427V20.3868H126.707ZM135.635 20.3868V18.9918H134.87V20.3868H134.078V21.0618H134.87V24.0228C134.87 24.2388 134.891 24.4128 134.933 24.5448C134.975 24.6768 135.038 24.7788 135.122 24.8508C135.212 24.9228 135.326 24.9738 135.464 25.0038C135.608 25.0278 135.779 25.0398 135.977 25.0398H136.562V24.3648H136.211C136.091 24.3648 135.992 24.3618 135.914 24.3558C135.842 24.3438 135.785 24.3228 135.743 24.2928C135.701 24.2628 135.671 24.2208 135.653 24.1668C135.641 24.1128 135.635 24.0408 135.635 23.9508V21.0618H136.562V20.3868H135.635ZM137.592 18.6138V25.0398H138.357V22.4118C138.357 22.2018 138.384 22.0098 138.438 21.8358C138.498 21.6558 138.585 21.4998 138.699 21.3678C138.813 21.2358 138.954 21.1338 139.122 21.0618C139.296 20.9898 139.5 20.9538 139.734 20.9538C140.028 20.9538 140.259 21.0378 140.427 21.2058C140.595 21.3738 140.679 21.6018 140.679 21.8898V25.0398H141.444V21.9798C141.444 21.7278 141.417 21.4998 141.363 21.2958C141.315 21.0858 141.228 20.9058 141.102 20.7558C140.976 20.6058 140.811 20.4888 140.607 20.4048C140.403 20.3208 140.148 20.2788 139.842 20.2788C139.704 20.2788 139.56 20.2938 139.41 20.3238C139.266 20.3538 139.125 20.4018 138.987 20.4678C138.855 20.5278 138.735 20.6088 138.627 20.7108C138.519 20.8068 138.435 20.9268 138.375 21.0708H138.357V18.6138H137.592ZM146.004 22.2678H143.331C143.343 22.0878 143.382 21.9198 143.448 21.7638C143.514 21.6018 143.604 21.4608 143.718 21.3408C143.832 21.2208 143.967 21.1278 144.123 21.0618C144.285 20.9898 144.465 20.9538 144.663 20.9538C144.855 20.9538 145.029 20.9898 145.185 21.0618C145.347 21.1278 145.485 21.2208 145.599 21.3408C145.719 21.4548 145.812 21.5928 145.878 21.7548C145.95 21.9168 145.992 22.0878 146.004 22.2678ZM146.742 23.5638H145.986C145.92 23.8698 145.782 24.0978 145.572 24.2478C145.368 24.3978 145.104 24.4728 144.78 24.4728C144.528 24.4728 144.309 24.4308 144.123 24.3468C143.937 24.2628 143.784 24.1518 143.664 24.0138C143.544 23.8698 143.457 23.7078 143.403 23.5278C143.349 23.3418 143.325 23.1468 143.331 22.9428H146.814C146.826 22.6608 146.799 22.3638 146.733 22.0518C146.673 21.7398 146.559 21.4518 146.391 21.1878C146.229 20.9238 146.01 20.7078 145.734 20.5398C145.464 20.3658 145.122 20.2788 144.708 20.2788C144.39 20.2788 144.096 20.3388 143.826 20.4588C143.562 20.5788 143.331 20.7468 143.133 20.9628C142.941 21.1788 142.791 21.4338 142.683 21.7278C142.575 22.0218 142.521 22.3458 142.521 22.6998C142.533 23.0538 142.584 23.3808 142.674 23.6808C142.77 23.9808 142.911 24.2388 143.097 24.4548C143.283 24.6708 143.511 24.8388 143.781 24.9588C144.057 25.0788 144.381 25.1388 144.753 25.1388C145.281 25.1388 145.719 25.0068 146.067 24.7428C146.415 24.4788 146.64 24.0858 146.742 23.5638Z" fill="white"/>
<path d="M92.9199 32.5164C95.2177 32.5164 96.7324 34.3328 96.7324 37.1385C96.7324 39.952 95.2266 41.7596 92.9541 41.7596C91.7795 41.821 90.6731 41.2058 90.1055 40.1756H90.0625V44.66H88.2041V32.6111H90.0029V34.117H90.0371C90.6299 33.0932 91.7375 32.4783 92.9199 32.5164ZM102.885 32.5164C105.183 32.5164 106.697 34.3328 106.697 37.1385C106.697 39.952 105.191 41.7596 102.919 41.7596C101.744 41.821 100.638 41.2058 100.07 40.1756H100.027V44.66H98.1689V32.6111H99.9677V34.117H100.002C100.595 33.0932 101.702 32.4783 102.885 32.5164ZM116.227 29.0398C118.851 29.0398 120.649 30.5115 120.71 32.6541H118.834C118.722 31.4148 117.697 30.6668 116.2 30.6668C114.703 30.6668 113.679 31.4236 113.679 32.5252C113.679 33.4031 114.333 33.9197 115.934 34.3152L117.302 34.6511C119.85 35.2536 120.908 36.2771 120.908 38.0935C120.908 40.4167 119.058 41.8718 116.114 41.8718C113.36 41.8718 111.501 40.4509 111.381 38.2048L113.283 38.2049C113.421 39.4363 114.617 40.2449 116.252 40.2449C117.818 40.2449 118.945 39.4363 118.945 38.3259C118.945 37.3621 118.266 36.7849 116.656 36.3894L115.047 36.0017C112.767 35.4509 111.708 34.3845 111.708 32.6541C111.708 30.5115 113.575 29.0398 116.227 29.0398ZM131.932 32.4998C134.557 32.4998 136.227 34.2898 136.227 37.1385C136.227 39.9949 134.565 41.7772 131.932 41.7772C129.299 41.7772 127.638 39.9949 127.638 37.1385C127.638 34.2899 129.315 32.4998 131.932 32.4998ZM146.98 32.4998C149.485 32.4998 151.061 34.2205 151.061 36.9656V37.6023H144.666V37.7146C144.606 38.3887 144.839 39.0559 145.305 39.5465C145.771 40.0372 146.425 40.304 147.102 40.2791C148.003 40.3636 148.854 39.8457 149.192 39.0057L150.957 39.0057C150.707 40.6492 149.106 41.7771 147.059 41.7771C144.425 41.7771 142.79 40.0125 142.79 37.1814C142.79 34.3416 144.434 32.4998 146.98 32.4998ZM124.919 30.4686V32.6111H126.641V34.0828H124.919V39.074C124.919 39.8494 125.264 40.2107 126.021 40.2107C126.225 40.2072 126.429 40.1928 126.632 40.1677V41.6306C126.292 41.6942 125.946 41.723 125.6 41.7166C123.767 41.7166 123.052 41.0281 123.052 39.2722V34.0828H121.735V32.6111H123.052V30.4686H124.919ZM82.5664 29.2469L87.0498 41.6649H85.0107L83.875 38.3084H79.1416L78.0049 41.6649H76L80.4834 29.2469H82.5664ZM141.752 32.5164C141.966 32.5156 142.18 32.5389 142.389 32.5857V34.324C142.118 34.2414 141.836 34.2035 141.554 34.2117C141.007 34.1895 140.479 34.4073 140.106 34.8078C139.734 35.2082 139.555 35.7514 139.617 36.2947V41.6648H137.759V32.6111H139.531V34.1521H139.574C139.821 33.1601 140.73 32.4774 141.752 32.5164ZM131.932 34.0311C130.426 34.0311 129.531 35.1932 129.531 37.1385C129.531 39.1004 130.426 40.2449 131.932 40.2449C133.438 40.2449 134.333 39.1004 134.333 37.1385C134.333 35.1844 133.438 34.0311 131.932 34.0311ZM92.4297 34.1004C91.0098 34.1004 90.0547 35.3309 90.0547 37.1385C90.0547 38.9627 91.0098 40.1844 92.4297 40.1844C93.875 40.1844 94.8223 38.9881 94.8223 37.1385C94.8223 35.3055 93.875 34.1004 92.4297 34.1004ZM102.395 34.1004C100.975 34.1004 100.02 35.3309 100.02 37.1385C100.02 38.9627 100.975 40.1844 102.395 40.1844C103.84 40.1844 104.787 38.9881 104.787 37.1385C104.787 35.3055 103.84 34.1004 102.395 34.1004ZM81.5342 31.3123H81.4825L79.6318 36.7596H83.3838L81.5342 31.3123ZM146.98 34.0057C146.369 34.002 145.782 34.2427 145.349 34.6742C144.916 35.1057 144.673 35.6923 144.675 36.3035H149.201C149.235 35.6979 149.014 35.1056 148.593 34.6694C148.171 34.2332 147.587 33.9926 146.98 34.0057Z" fill="white"/>
</svg>
