<svg width="15" height="10" viewBox="0 0 15 10" fill="none" xmlns="http://www.w3.org/2000/svg">
<path fill-rule="evenodd" clip-rule="evenodd" d="M0.343179 1.03522C0.123375 1.25593 0 1.55449 0 1.86569C0 2.1769 0.123375 2.47545 0.343179 2.69616L6.58935 8.959C6.69781 9.06803 6.82681 9.15456 6.96893 9.21361C7.11104 9.27266 7.26345 9.30306 7.41738 9.30306C7.57132 9.30306 7.72373 9.27266 7.86584 9.21361C8.00795 9.15456 8.13695 9.06803 8.24542 8.959L14.4916 2.69616C14.7114 2.47545 14.8348 2.1769 14.8348 1.86569C14.8348 1.55449 14.7114 1.25593 14.4916 1.03522C14.3831 0.926298 14.254 0.83986 14.1119 0.780877C13.9698 0.721894 13.8175 0.69153 13.6636 0.69153C13.5097 0.69153 13.3573 0.721894 13.2152 0.780877C13.0731 0.83986 12.944 0.926298 12.8355 1.03522L7.41782 6.46759L1.99925 1.03522C1.89078 0.926192 1.76178 0.839661 1.61967 0.780612C1.47756 0.721563 1.32515 0.691162 1.17121 0.691162C1.01728 0.691162 0.864868 0.721563 0.722757 0.780612C0.580645 0.839661 0.451642 0.926192 0.343179 1.03522Z" fill="#6D6B6B"/>
</svg>
