<svg width="17" height="46" viewBox="0 0 17 46" fill="none" xmlns="http://www.w3.org/2000/svg">
<path d="M14.9845 19.2143C15.1512 19.381 15.2346 19.5834 15.2346 19.8215C15.2346 20.0596 15.1512 20.2619 14.9845 20.4286L8.52026 26.8929L7.30598 28.1072C7.13931 28.2738 6.93693 28.3572 6.69884 28.3572C6.46074 28.3572 6.25836 28.2738 6.09169 28.1072L4.87741 26.8929L1.64526 23.6607C1.4786 23.4941 1.39526 23.2917 1.39526 23.0536C1.39526 22.8155 1.4786 22.6131 1.64526 22.4465L2.85955 21.2322C3.02622 21.0655 3.2286 20.9822 3.46669 20.9822C3.70479 20.9822 3.90717 21.0655 4.07384 21.2322L6.69884 23.8661L12.556 18C12.7226 17.8334 12.925 17.75 13.1631 17.75C13.4012 17.75 13.6036 17.8334 13.7703 18L14.9845 19.2143Z" fill="#1DA6D6"/>
</svg>
