<svg width="525" height="402" viewBox="0 0 525 402" fill="none" xmlns="http://www.w3.org/2000/svg">
<path d="M525 353.271H-14V353.541H525V353.271Z" fill="#EBEBEB"/>
<path d="M470.993 370.632H435.291V370.902H470.994L470.993 370.632Z" fill="#EBEBEB"/>
<path d="M343.055 373.567H333.687V373.837H343.055V373.567Z" fill="#EBEBEB"/>
<path d="M434.211 360.619H413.524V360.889H434.211V360.619Z" fill="#EBEBEB"/>
<path d="M89.1107 362.432H42.5518V362.702H89.1107V362.432Z" fill="#EBEBEB"/>
<path d="M105.539 362.432H98.7143V362.702H105.539V362.432Z" fill="#EBEBEB"/>
<path d="M228.712 366.986H127.724V367.256H228.712V366.986Z" fill="#EBEBEB"/>
<path d="M241.487 305.147H33.3353C31.7046 305.144 30.1416 304.494 28.9895 303.339C27.8374 302.184 27.1904 300.618 27.1906 298.986V6.10708C27.2046 4.48412 27.8578 2.93224 29.0083 1.78859C30.1589 0.644938 31.7138 0.00191398 33.3353 -0.000778198H241.487C243.119 -0.000778198 244.685 0.648315 245.839 1.80371C246.993 2.9591 247.642 4.52615 247.642 6.16012V298.988C247.642 299.797 247.483 300.598 247.174 301.346C246.864 302.093 246.411 302.772 245.839 303.344C245.268 303.917 244.589 304.37 243.842 304.68C243.096 304.989 242.295 305.149 241.487 305.149V305.147ZM33.3353 0.216212C31.7761 0.219192 30.2819 0.841235 29.1804 1.94582C28.079 3.0504 27.4604 4.54726 27.4604 6.10788V298.988C27.4606 300.548 28.0793 302.045 29.1807 303.149C30.2821 304.254 31.7763 304.876 33.3353 304.879H241.487C243.047 304.876 244.542 304.254 245.645 303.15C246.748 302.046 247.369 300.549 247.372 298.988V6.10708C247.369 4.5455 246.748 3.04865 245.645 1.94437C244.542 0.840091 243.047 0.218382 241.487 0.215408L33.3353 0.216212Z" fill="#EBEBEB"/>
<path d="M474.668 305.147H266.506C264.875 305.145 263.31 304.495 262.157 303.34C261.003 302.185 260.354 300.619 260.351 298.986V6.10708C260.368 4.48324 261.024 2.93148 262.176 1.78817C263.328 0.644849 264.884 0.00209401 266.506 -0.000778198H474.668C476.288 0.00466029 477.84 0.648898 478.988 1.79225C480.137 2.93561 480.789 4.48593 480.802 6.10708V298.988C480.802 300.618 480.157 302.182 479.007 303.337C477.857 304.492 476.297 305.143 474.668 305.149V305.147ZM266.506 0.216212C264.946 0.219186 263.451 0.840895 262.348 1.94518C261.245 3.04946 260.624 4.5463 260.621 6.10788V298.988C260.624 300.549 261.245 302.046 262.348 303.15C263.451 304.254 264.946 304.876 266.506 304.879H474.668C476.228 304.876 477.724 304.254 478.827 303.15C479.93 302.046 480.551 300.549 480.554 298.988V6.10708C480.551 4.5455 479.93 3.04874 478.827 1.94461C477.724 0.840477 476.228 0.218973 474.668 0.216212H266.506Z" fill="#EBEBEB"/>
<path d="M367.537 46.5483C367.538 45.8514 367.401 45.1611 367.134 44.5174C366.867 43.8738 366.475 43.2896 365.981 42.7988C365.486 42.308 364.9 41.9203 364.254 41.6583C363.609 41.3962 362.918 41.265 362.222 41.2723C361.708 41.2722 361.196 41.345 360.702 41.4885C360.779 40.9524 360.819 40.4115 360.82 39.8699C360.82 36.9152 359.651 34.0809 357.568 31.9873C355.485 29.8936 352.658 28.7113 349.706 28.6989C349.016 28.6996 348.327 28.7609 347.647 28.8822C346.546 27.0724 344.888 25.6701 342.921 24.8867C340.954 24.1033 338.787 23.9813 336.745 24.5391C334.703 25.097 332.897 26.3044 331.601 27.9792C330.305 29.6541 329.588 31.7055 329.558 33.8239H329.398C327.067 33.9064 324.859 34.8912 323.239 36.5708C321.62 38.2504 320.714 40.4937 320.714 42.8282C320.714 45.1626 321.62 47.406 323.239 49.0856C324.859 50.7652 327.067 51.75 329.398 51.8324H362.406C363.781 51.7931 365.086 51.2187 366.044 50.2314C367.002 49.2441 367.538 47.9216 367.537 46.5451L367.537 46.5483Z" fill="#F0F0F0"/>
<path d="M348.154 54.4363V44.1494H339.78V54.4363H332.955L343.973 63.7588L354.99 54.4363H348.154Z" fill="#E0E0E0"/>
<path d="M202.334 62.1081C202.334 59.1365 201.155 56.2865 199.057 54.1843C196.959 52.0821 194.113 50.8997 191.144 50.897C190.049 50.8986 188.959 51.0586 187.91 51.3719C188.084 50.2329 188.171 49.0822 188.169 47.9298C188.169 41.634 185.67 35.5959 181.223 31.1441C176.775 26.6922 170.743 24.1912 164.453 24.1912C162.988 24.1908 161.526 24.328 160.087 24.601C157.75 20.7561 154.228 17.776 150.051 16.1107C145.875 14.4453 141.27 14.185 136.932 15.3691C132.595 16.5531 128.76 19.1172 126.006 22.6745C123.252 26.2317 121.729 30.5891 121.666 35.0889H121.322C118.776 35.0293 116.245 35.4797 113.876 36.4135C111.507 37.3473 109.348 38.7458 107.527 40.5267C105.706 42.3075 104.258 44.4349 103.27 46.7836C102.282 49.1324 101.773 51.6552 101.773 54.2037C101.773 56.7521 102.282 59.2749 103.27 61.6237C104.258 63.9724 105.706 66.0998 107.527 67.8806C109.348 69.6615 111.507 71.06 113.876 71.9938C116.245 72.9276 118.776 73.378 121.322 73.3184H191.446C194.363 73.2394 197.133 72.0232 199.167 69.9289C201.201 67.8347 202.338 65.0288 202.334 62.1081Z" fill="#F0F0F0"/>
<path d="M143.388 62.972V84.8229H161.185V62.972H175.685L152.282 43.1834L128.889 62.972H143.388Z" fill="#E0E0E0"/>
<path d="M211.27 116.674V87.2926H301.153V116.385" stroke="#E6E6E6" stroke-width="0.973" stroke-miterlimit="10"/>
<path d="M257.538 59.6047V116.598" stroke="#E6E6E6" stroke-width="0.973" stroke-miterlimit="10"/>
<path d="M272.835 48.4161H242.262C242.094 48.4161 241.927 48.4493 241.771 48.5139C241.615 48.5786 241.473 48.6733 241.354 48.7927C241.235 48.9121 241.14 49.0538 241.076 49.2098C241.011 49.3658 240.978 49.5331 240.978 49.7019V67.9049C240.978 68.0738 241.011 68.241 241.076 68.397C241.14 68.553 241.235 68.6948 241.354 68.8142C241.473 68.9336 241.615 69.0283 241.771 69.0929C241.927 69.1576 242.094 69.1908 242.262 69.1908H272.835C273.175 69.1908 273.502 69.0553 273.743 68.8142C273.984 68.573 274.119 68.246 274.119 67.9049V49.7003C274.119 49.3596 273.983 49.0329 273.743 48.7921C273.502 48.5513 273.175 48.4161 272.835 48.4161Z" fill="#F0F0F0"/>
<path d="M272.51 50.8544H242.575C242.455 50.8544 242.34 50.9021 242.255 50.9871C242.17 51.0721 242.122 51.1874 242.122 51.3076V67.9033C242.122 68.0236 242.17 68.1388 242.255 68.2239C242.34 68.3089 242.455 68.3566 242.575 68.3566H272.51C272.57 68.3567 272.629 68.3451 272.684 68.3223C272.739 68.2996 272.789 68.2662 272.831 68.2241C272.873 68.182 272.906 68.132 272.929 68.0769C272.952 68.0219 272.963 67.9629 272.963 67.9033V51.3068C272.963 51.2474 272.951 51.1885 272.929 51.1335C272.906 51.0786 272.873 51.0286 272.83 50.9866C272.788 50.9446 272.739 50.9113 272.684 50.8886C272.629 50.8659 272.57 50.8543 272.51 50.8544Z" fill="#E0E0E0"/>
<path d="M226.556 114.009H195.984C195.643 114.009 195.316 114.144 195.075 114.385C194.835 114.627 194.699 114.954 194.699 115.295V133.498C194.699 133.839 194.835 134.166 195.075 134.407C195.316 134.648 195.643 134.784 195.984 134.784H226.555C226.896 134.784 227.223 134.648 227.464 134.407C227.705 134.166 227.84 133.839 227.84 133.498V115.295C227.84 114.954 227.705 114.627 227.464 114.386C227.223 114.145 226.897 114.009 226.556 114.009Z" fill="#F0F0F0"/>
<path d="M226.232 116.448H196.296C196.176 116.448 196.061 116.496 195.976 116.581C195.891 116.666 195.843 116.781 195.843 116.901V133.496C195.843 133.616 195.891 133.732 195.976 133.817C196.061 133.902 196.176 133.949 196.296 133.949H226.232C226.292 133.949 226.351 133.938 226.406 133.915C226.461 133.892 226.51 133.859 226.552 133.817C226.594 133.774 226.628 133.725 226.65 133.67C226.673 133.615 226.685 133.556 226.685 133.496V116.901C226.685 116.842 226.673 116.783 226.65 116.728C226.628 116.673 226.594 116.623 226.552 116.581C226.51 116.539 226.461 116.505 226.406 116.482C226.351 116.46 226.292 116.448 226.232 116.448Z" fill="#E0E0E0"/>
<path d="M272.835 114.009H242.262C242.094 114.009 241.927 114.042 241.771 114.107C241.615 114.171 241.473 114.266 241.354 114.385C241.235 114.505 241.14 114.647 241.076 114.803C241.011 114.959 240.978 115.126 240.978 115.295V133.498C240.978 133.667 241.011 133.834 241.076 133.99C241.14 134.146 241.235 134.288 241.354 134.407C241.473 134.526 241.615 134.621 241.771 134.686C241.927 134.75 242.094 134.784 242.262 134.784H272.835C273.175 134.784 273.502 134.648 273.743 134.407C273.984 134.166 274.119 133.839 274.119 133.498V115.295C274.119 114.954 273.984 114.627 273.743 114.385C273.502 114.144 273.175 114.009 272.835 114.009Z" fill="#F0F0F0"/>
<path d="M272.51 116.448H242.575C242.455 116.448 242.34 116.496 242.255 116.581C242.17 116.666 242.122 116.781 242.122 116.901V133.496C242.122 133.616 242.17 133.732 242.255 133.817C242.34 133.902 242.455 133.949 242.575 133.949H272.51C272.63 133.949 272.746 133.902 272.831 133.817C272.915 133.732 272.963 133.616 272.963 133.496V116.901C272.963 116.781 272.915 116.666 272.831 116.581C272.746 116.496 272.63 116.448 272.51 116.448Z" fill="#E0E0E0"/>
<path d="M316.516 114.009H285.943C285.602 114.009 285.275 114.144 285.035 114.385C284.794 114.627 284.658 114.954 284.658 115.295V133.498C284.658 133.839 284.794 134.166 285.035 134.407C285.275 134.648 285.602 134.784 285.943 134.784H316.515C316.856 134.784 317.183 134.648 317.424 134.407C317.665 134.166 317.8 133.839 317.8 133.498V115.295C317.8 114.954 317.665 114.627 317.424 114.386C317.183 114.145 316.857 114.009 316.516 114.009Z" fill="#F0F0F0"/>
<path d="M316.192 116.448H286.255C286.135 116.448 286.02 116.496 285.935 116.581C285.85 116.666 285.802 116.781 285.802 116.901V133.496C285.802 133.616 285.85 133.732 285.935 133.817C286.02 133.902 286.135 133.949 286.255 133.949H316.192C316.251 133.949 316.31 133.938 316.365 133.915C316.42 133.892 316.47 133.859 316.512 133.817C316.553 133.774 316.587 133.725 316.609 133.67C316.632 133.615 316.644 133.556 316.644 133.496V116.901C316.644 116.842 316.632 116.783 316.609 116.728C316.587 116.673 316.553 116.623 316.512 116.581C316.47 116.539 316.42 116.505 316.365 116.482C316.31 116.46 316.251 116.448 316.192 116.448Z" fill="#E0E0E0"/>
<path d="M256.919 78.392L248.641 86.6778C248.477 86.8418 248.385 87.0641 248.385 87.2958C248.385 87.5275 248.477 87.7498 248.641 87.9138L256.919 96.1996C257.083 96.3632 257.305 96.4551 257.536 96.4551C257.768 96.4551 257.99 96.3632 258.154 96.1996L266.432 87.9138C266.513 87.8327 266.577 87.7363 266.621 87.6303C266.665 87.5243 266.687 87.4106 266.687 87.2958C266.687 87.181 266.665 87.0673 266.621 86.9613C266.577 86.8553 266.513 86.7589 266.432 86.6778L258.156 78.392C258.075 78.3106 257.978 78.246 257.872 78.202C257.766 78.1579 257.652 78.1353 257.537 78.1353C257.422 78.1353 257.309 78.1579 257.203 78.202C257.096 78.246 257 78.3106 256.919 78.392Z" fill="#E0E0E0"/>
<path opacity="0.8" d="M82.0387 72.9954H60.4679C60.2192 72.9954 59.9806 73.0943 59.8048 73.2703C59.6289 73.4463 59.5301 73.6851 59.5301 73.934V86.116C59.5301 86.2393 59.5543 86.3613 59.6015 86.4752C59.6486 86.5891 59.7177 86.6926 59.8048 86.7798C59.8918 86.8669 59.9952 86.9361 60.109 86.9832C60.2228 87.0304 60.3447 87.0547 60.4679 87.0547H82.0387C82.1619 87.0547 82.2838 87.0304 82.3976 86.9832C82.5114 86.9361 82.6148 86.8669 82.7019 86.7798C82.7889 86.6926 82.858 86.5891 82.9052 86.4752C82.9523 86.3613 82.9765 86.2393 82.9765 86.116V73.934C82.9765 73.6851 82.8777 73.4463 82.7019 73.2703C82.526 73.0943 82.2875 72.9954 82.0387 72.9954Z" fill="#E0E0E0"/>
<g style="mix-blend-mode:multiply">
<path d="M65.5784 103.241H48.4917C48.243 103.241 48.0045 103.339 47.8286 103.515C47.6527 103.691 47.554 103.93 47.554 104.179V113.038C47.554 113.287 47.6527 113.526 47.8286 113.702C48.0045 113.878 48.243 113.977 48.4917 113.977H65.5784C65.8271 113.977 66.0656 113.878 66.2415 113.702C66.4174 113.526 66.5162 113.287 66.5162 113.038V104.179C66.5162 103.93 66.4174 103.691 66.2415 103.515C66.0656 103.339 65.8271 103.241 65.5784 103.241Z" fill="#E0E0E0"/>
</g>
<path d="M94.3505 103.241H77.2638C77.1407 103.241 77.0187 103.265 76.905 103.312C76.7912 103.359 76.6878 103.428 76.6007 103.515C76.5136 103.603 76.4446 103.706 76.3974 103.82C76.3503 103.934 76.326 104.056 76.326 104.179V113.038C76.326 113.161 76.3503 113.283 76.3974 113.397C76.4446 113.511 76.5136 113.615 76.6007 113.702C76.6878 113.789 76.7912 113.858 76.905 113.905C77.0187 113.952 77.1407 113.977 77.2638 113.977H94.3505C94.599 113.976 94.8374 113.877 95.0131 113.701C95.1888 113.525 95.2875 113.287 95.2875 113.038V104.179C95.2875 103.93 95.1888 103.692 95.0131 103.516C94.8374 103.34 94.599 103.241 94.3505 103.241Z" fill="#E0E0E0"/>
<path d="M76.6601 125.964H68.586C68.3373 125.964 68.0988 126.063 67.9229 126.239C67.7471 126.415 67.6483 126.654 67.6483 126.903V134.198C67.6483 134.321 67.6725 134.443 67.7197 134.557C67.7668 134.671 67.8359 134.774 67.923 134.861C68.0101 134.948 68.1135 135.017 68.2272 135.064C68.341 135.112 68.4629 135.136 68.586 135.136H76.6601C76.7832 135.136 76.9051 135.112 77.0189 135.064C77.1327 135.017 77.236 134.948 77.3231 134.861C77.4102 134.774 77.4793 134.671 77.5265 134.557C77.5736 134.443 77.5979 134.321 77.5979 134.198V126.903C77.5979 126.654 77.4991 126.415 77.3232 126.239C77.1473 126.063 76.9088 125.964 76.6601 125.964Z" fill="#E0E0E0"/>
<path d="M89.293 125.964H81.2197C80.971 125.964 80.7325 126.063 80.5566 126.239C80.3808 126.415 80.282 126.654 80.282 126.903V134.198C80.282 134.321 80.3062 134.443 80.3534 134.557C80.4005 134.671 80.4696 134.774 80.5567 134.861C80.6438 134.948 80.7472 135.017 80.8609 135.064C80.9747 135.112 81.0966 135.136 81.2197 135.136H89.293C89.4161 135.136 89.538 135.112 89.6518 135.064C89.7655 135.017 89.8689 134.948 89.956 134.861C90.0431 134.774 90.1122 134.671 90.1593 134.557C90.2065 134.443 90.2307 134.321 90.2307 134.198V126.903C90.2307 126.654 90.1319 126.415 89.9561 126.239C89.7802 126.063 89.5417 125.964 89.293 125.964Z" fill="#E0E0E0"/>
<path d="M101.939 125.964H93.8647C93.616 125.964 93.3775 126.063 93.2016 126.239C93.0257 126.415 92.9269 126.654 92.9269 126.903V134.198C92.9269 134.321 92.9512 134.443 92.9983 134.557C93.0454 134.671 93.1145 134.774 93.2016 134.861C93.2887 134.948 93.3921 135.017 93.5059 135.064C93.6197 135.112 93.7416 135.136 93.8647 135.136H101.939C102.062 135.136 102.184 135.112 102.298 135.064C102.411 135.017 102.515 134.948 102.602 134.861C102.689 134.774 102.758 134.671 102.805 134.557C102.852 134.443 102.877 134.321 102.877 134.198V126.903C102.877 126.78 102.852 126.658 102.805 126.544C102.758 126.43 102.689 126.326 102.602 126.239C102.515 126.152 102.411 126.083 102.298 126.036C102.184 125.988 102.062 125.964 101.939 125.964Z" fill="#E0E0E0"/>
<path d="M47.4142 125.964H39.3386C39.0899 125.964 38.8514 126.063 38.6755 126.239C38.4996 126.415 38.4008 126.654 38.4008 126.903V134.198C38.4008 134.321 38.4251 134.443 38.4722 134.557C38.5194 134.671 38.5884 134.774 38.6755 134.861C38.7626 134.948 38.866 135.017 38.9798 135.064C39.0936 135.112 39.2155 135.136 39.3386 135.136H47.4134C47.5366 135.136 47.6585 135.112 47.7723 135.064C47.886 135.017 47.9894 134.948 48.0765 134.861C48.1636 134.774 48.2327 134.671 48.2798 134.557C48.327 134.443 48.3512 134.321 48.3512 134.198V126.903C48.3512 126.654 48.2525 126.415 48.0768 126.239C47.9011 126.063 47.6628 125.964 47.4142 125.964Z" fill="#E0E0E0"/>
<path d="M61.1254 125.964H53.0514C52.8027 125.964 52.5642 126.063 52.3883 126.239C52.2124 126.415 52.1136 126.654 52.1136 126.903V134.198C52.1136 134.321 52.1379 134.443 52.185 134.557C52.2322 134.671 52.3012 134.774 52.3883 134.861C52.4754 134.948 52.5788 135.017 52.6926 135.064C52.8064 135.112 52.9283 135.136 53.0514 135.136H61.1254C61.2485 135.136 61.3705 135.112 61.4842 135.064C61.598 135.017 61.7014 134.948 61.7885 134.861C61.8756 134.774 61.9447 134.671 61.9918 134.557C62.039 134.443 62.0632 134.321 62.0632 134.198V126.903C62.0632 126.654 61.9644 126.415 61.7885 126.239C61.6127 126.063 61.3741 125.964 61.1254 125.964Z" fill="#E0E0E0"/>
<path d="M84.7228 103.241H85.8011V95.6861H71.7872V87.0555H70.7089V95.6877H56.695V103.242H57.7733V96.7678H84.7236L84.7228 103.241Z" fill="#E0E0E0"/>
<path d="M56.6918 120.501H42.6811V125.896H43.7594V121.58H56.6918V125.896H57.7701V114.031H56.6918V120.501Z" fill="#E0E0E0"/>
<path d="M85.8012 121.583V114.029H84.7228V121.583H71.7872V125.899H72.8655V122.663H84.7236V125.9H85.802V122.663H97.6601V125.9H98.7408V121.584L85.8012 121.583Z" fill="#E0E0E0"/>
<path d="M396.718 76.3724V84.1631L400.707 84.5408C401.242 87.0943 402.251 89.5246 403.682 91.7055L401.112 94.802L406.588 100.284L409.682 97.7121C411.858 99.1489 414.287 100.16 416.84 100.69L417.196 104.661H424.936L425.314 100.669C427.866 100.138 430.295 99.1278 432.471 97.6912L435.565 100.263L441.041 94.7819L438.489 91.716C439.92 89.535 440.929 87.1047 441.464 84.5513L445.453 84.1736V76.4262L441.464 76.0485C440.931 73.4982 439.922 71.0716 438.489 68.8959L441.059 65.7993L435.583 60.3175L432.488 62.8748C430.31 61.4424 427.882 60.4322 425.331 59.8964L424.953 55.9038H417.203L416.825 59.8964C414.274 60.432 411.846 61.4423 409.667 62.8748L406.573 60.3175L401.097 65.7993L403.667 68.8959C402.234 71.0715 401.225 73.4982 400.692 76.0485L396.718 76.3724ZM421.091 69.7582C423.869 69.7596 426.533 70.8653 428.496 72.8321C430.46 74.7989 431.562 77.4658 431.561 80.2462C431.561 83.0267 430.457 85.693 428.492 87.6589C426.528 89.6247 423.864 90.7291 421.086 90.7291C418.308 90.7291 415.644 89.6247 413.68 87.6589C411.715 85.693 410.611 83.0267 410.61 80.2462C410.61 77.4658 411.712 74.7989 413.676 72.8321C415.639 70.8653 418.303 69.7596 421.081 69.7582H421.091Z" fill="#F5F5F5"/>
<path d="M401.71 132.935C403.709 132.514 405.611 131.719 407.316 130.593L409.741 132.61L414.052 128.293L412.045 125.865C413.165 124.157 413.955 122.254 414.373 120.254L417.5 119.952V113.876L414.373 113.585C413.957 111.585 413.167 109.681 412.045 107.974L414.052 105.546L409.741 101.23L407.315 103.239C405.61 102.116 403.708 101.325 401.709 100.908L401.418 97.7788H395.348L395.057 100.908C393.058 101.325 391.156 102.116 389.451 103.239L387.015 101.275L382.703 105.59L384.711 108.018C383.589 109.725 382.799 111.629 382.382 113.63L379.255 113.921V119.996L382.382 120.298C382.801 122.298 383.591 124.201 384.711 125.91L382.703 128.316L387.015 132.633L389.441 130.615C391.146 131.741 393.047 132.536 395.047 132.957L395.337 136.075H401.407L401.71 132.935ZM390.164 116.942C390.162 115.037 390.819 113.19 392.025 111.716C393.23 110.243 394.909 109.233 396.775 108.859C398.641 108.485 400.579 108.771 402.259 109.667C403.938 110.563 405.255 112.015 405.985 113.774C406.715 115.533 406.813 117.491 406.262 119.315C405.711 121.138 404.546 122.714 402.964 123.773C401.382 124.833 399.483 125.311 397.589 125.125C395.695 124.94 393.923 124.103 392.577 122.757C391.035 121.216 390.167 119.125 390.164 116.945V116.942Z" fill="#F5F5F5"/>
<path d="M388.17 100.057L390.207 101.745L393.82 98.1405L392.127 96.1008C393.073 94.6671 393.739 93.0672 394.089 91.3857L396.709 91.1365V86.0445L394.089 85.7954C393.739 84.1138 393.073 82.5139 392.127 81.0802L393.82 79.0405L390.252 75.4361L388.214 77.1238C386.784 76.1798 385.19 75.5135 383.514 75.1596L383.266 72.5381H378.167L377.919 75.1596C376.239 75.5111 374.641 76.1776 373.208 77.1238L371.171 75.4361L367.57 79.0405L369.256 81.0802C368.314 82.5146 367.652 84.1144 367.305 85.7954L364.675 86.0445V91.1365L367.305 91.3857C367.652 93.0666 368.314 94.6664 369.256 96.1008L367.532 98.1943L371.132 101.799L373.17 100.111C374.6 101.058 376.2 101.722 377.88 102.065L378.129 104.697H383.227L383.475 102.065C385.154 101.702 386.747 101.021 388.17 100.057ZM373.771 88.5873C373.771 86.9896 374.324 85.4413 375.337 84.2062C376.35 82.9711 377.759 82.1256 379.324 81.8139C380.89 81.5021 382.515 81.7433 383.923 82.4964C385.33 83.2496 386.434 84.468 387.045 85.944C387.656 87.4201 387.736 89.0625 387.273 90.5915C386.81 92.1204 385.831 93.4413 384.504 94.3289C383.177 95.2166 381.583 95.6162 379.994 95.4597C378.406 95.3031 376.921 94.6001 375.792 93.4704C374.499 92.175 373.772 90.4187 373.771 88.5873Z" fill="#F5F5F5"/>
<path d="M459.663 290.29H387.275V337.411H459.663V290.29Z" fill="#F5F5F5"/>
<path d="M456.999 299.126H389.915V335.057H456.999V299.126Z" fill="#E0E0E0"/>
<path d="M445.01 304.499H395.381V306.042H445.01V304.499Z" fill="#F5F5F5"/>
<path d="M419.195 309.226H395.381V310.769H419.195V309.226Z" fill="#F5F5F5"/>
<path d="M425.371 313.962H395.381V315.506H425.371V313.962Z" fill="#F5F5F5"/>
<path d="M405.946 318.699H395.381V320.243H405.946V318.699Z" fill="#F5F5F5"/>
<path d="M402.227 323.436H395.381V324.979H402.227V323.436Z" fill="#F5F5F5"/>
<path d="M89.044 290.022L37.5385 290.256L37.6822 322.055L89.1886 321.82L89.044 290.022Z" fill="#EBEBEB"/>
<path d="M57.2988 314.059C57.0703 314.059 56.8474 313.988 56.6621 313.854L47.2729 306.98C47.1367 306.88 47.0258 306.75 46.949 306.6C46.8721 306.449 46.8316 306.283 46.8305 306.114C46.8294 305.945 46.8678 305.779 46.9427 305.627C47.0176 305.476 47.1268 305.344 47.2617 305.243L56.5978 298.283C56.828 298.112 57.1165 298.04 57.3997 298.083C57.6829 298.125 57.9378 298.278 58.1081 298.509C58.2785 298.739 58.3504 299.028 58.3081 299.311C58.2658 299.595 58.1127 299.85 57.8825 300.02L49.7218 306.106L57.9363 312.106C58.1204 312.24 58.2576 312.428 58.3281 312.645C58.3986 312.861 58.3989 313.095 58.3289 313.312C58.2585 313.529 58.1209 313.718 57.936 313.852C57.7511 313.986 57.5286 314.057 57.3004 314.057L57.2988 314.059Z" fill="#FAFAFA"/>
<path d="M69.5021 313.995C69.2749 313.997 69.0529 313.927 68.8679 313.794C68.683 313.662 68.5447 313.475 68.4728 313.259C68.4009 313.043 68.3991 312.81 68.4678 312.593C68.5365 312.377 68.672 312.187 68.855 312.052L77.0149 305.966L68.8012 299.967C68.6873 299.882 68.5911 299.776 68.5181 299.654C68.4451 299.533 68.3968 299.398 68.3759 299.258C68.355 299.117 68.3619 298.974 68.3962 298.837C68.4306 298.699 68.4916 298.569 68.576 298.455C68.6603 298.341 68.7663 298.245 68.8878 298.172C69.0093 298.099 69.1441 298.051 69.2843 298.03C69.4245 298.009 69.5674 298.016 69.705 298.05C69.8425 298.084 69.9719 298.145 70.0859 298.23L79.4758 305.092C79.6815 305.244 79.8272 305.463 79.8872 305.711C79.9471 305.959 79.9175 306.221 79.8034 306.449C79.7276 306.599 79.6176 306.73 79.4822 306.83L70.1469 313.79C69.9595 313.925 69.7334 313.997 69.5021 313.995Z" fill="#FAFAFA"/>
<path d="M60.9424 314.049C60.7407 314.046 60.544 313.986 60.374 313.878C60.204 313.769 60.0672 313.616 59.9789 313.434C59.8555 313.178 59.8384 312.882 59.9315 312.613L64.7722 298.759C64.8187 298.625 64.8911 298.501 64.9854 298.396C65.0796 298.29 65.1938 298.204 65.3214 298.142C65.5136 298.049 65.7291 298.015 65.9406 298.045C66.1521 298.075 66.3499 298.167 66.5089 298.309C66.6151 298.404 66.7014 298.518 66.7626 298.646C66.8245 298.774 66.8604 298.913 66.8684 299.054C66.8764 299.196 66.8563 299.338 66.8092 299.472L61.9693 313.327C61.8947 313.539 61.756 313.723 61.5724 313.852C61.3888 313.982 61.1695 314.051 60.9448 314.05L60.9424 314.049Z" fill="#FAFAFA"/>
<path d="M255.5 401.999C370.935 401.999 464.514 396.534 464.514 389.783C464.514 383.033 370.935 377.568 255.5 377.568C140.065 377.568 46.4861 383.033 46.4861 389.783C46.4861 396.534 140.065 401.999 255.5 401.999Z" fill="#F5F5F5"/>
<path d="M346.461 389.785H354.384L365.164 330.18H357.241L346.461 389.785Z" fill="#263238"/>
<path opacity="0.2" d="M346.461 389.785H354.384L365.164 330.18H357.241L346.461 389.785Z" fill="white"/>
<path opacity="0.2" d="M346.461 389.785H352.228L363.008 330.18H357.241L346.461 389.785Z" fill="white"/>
<path d="M324.158 347.908H355.84C356.07 347.91 356.298 347.866 356.51 347.779C356.723 347.691 356.916 347.563 357.078 347.4C357.324 347.155 357.491 346.843 357.559 346.503C357.627 346.164 357.593 345.811 357.46 345.491C357.327 345.171 357.102 344.897 356.814 344.705C356.525 344.513 356.186 344.412 355.84 344.413H324.158C323.695 344.413 323.251 344.598 322.923 344.925C322.596 345.253 322.412 345.698 322.412 346.161C322.412 346.625 322.596 347.07 322.923 347.397C323.251 347.725 323.695 347.909 324.158 347.909V347.908Z" fill="#263238"/>
<path d="M320.632 367.87H352.326C352.79 367.87 353.236 367.685 353.564 367.356C353.893 367.027 354.077 366.581 354.077 366.116C354.077 365.651 353.893 365.205 353.564 364.876C353.236 364.548 352.79 364.363 352.326 364.363H320.632C320.168 364.363 319.722 364.548 319.394 364.876C319.065 365.205 318.881 365.651 318.881 366.116C318.881 366.581 319.065 367.027 319.394 367.356C319.722 367.685 320.168 367.87 320.632 367.87Z" fill="#263238"/>
<path d="M314.122 389.785H322.045L332.825 330.18H324.902L314.122 389.785Z" fill="#263238"/>
<path opacity="0.2" d="M314.122 389.785H322.045L332.825 330.18H324.902L314.122 389.785Z" fill="white"/>
<path opacity="0.2" d="M314.122 389.785H319.889L330.669 330.18H324.902L314.122 389.785Z" fill="white"/>
<path d="M387.803 389.785H379.88L369.1 330.18H377.023L387.803 389.785Z" fill="#263238"/>
<path opacity="0.4" d="M387.803 389.785H379.88L369.1 330.18H377.023L387.803 389.785Z" fill="white"/>
<path opacity="0.2" d="M385.647 389.785H379.88L369.1 330.18H374.867L385.647 389.785Z" fill="white"/>
<path d="M373.886 347.908H342.193C341.73 347.908 341.286 347.724 340.958 347.397C340.631 347.069 340.447 346.624 340.447 346.161C340.447 345.697 340.631 345.252 340.958 344.925C341.286 344.597 341.73 344.413 342.193 344.413H373.886C374.349 344.413 374.793 344.597 375.121 344.925C375.448 345.252 375.632 345.697 375.632 346.161C375.632 346.624 375.448 347.069 375.121 347.397C374.793 347.724 374.349 347.908 373.886 347.908Z" fill="#263238"/>
<path d="M377.4 367.87H345.718C345.253 367.87 344.807 367.685 344.479 367.356C344.15 367.027 343.966 366.581 343.966 366.116C343.966 365.651 344.15 365.205 344.479 364.876C344.807 364.548 345.253 364.363 345.718 364.363H377.4C377.864 364.363 378.31 364.548 378.638 364.876C378.967 365.205 379.151 365.651 379.151 366.116C379.151 366.581 378.967 367.027 378.638 367.356C378.31 367.685 377.864 367.87 377.4 367.87Z" fill="#263238"/>
<path opacity="0.2" d="M373.886 347.908H342.193C341.73 347.908 341.286 347.724 340.958 347.397C340.631 347.069 340.447 346.624 340.447 346.161C340.447 345.697 340.631 345.252 340.958 344.925C341.286 344.597 341.73 344.413 342.193 344.413H373.886C374.349 344.413 374.793 344.597 375.121 344.925C375.448 345.252 375.632 345.697 375.632 346.161C375.632 346.624 375.448 347.069 375.121 347.397C374.793 347.724 374.349 347.908 373.886 347.908Z" fill="white"/>
<path opacity="0.2" d="M377.4 367.87H345.718C345.253 367.87 344.807 367.685 344.479 367.356C344.15 367.027 343.966 366.581 343.966 366.116C343.966 365.651 344.15 365.205 344.479 364.876C344.807 364.548 345.253 364.363 345.718 364.363H377.4C377.864 364.363 378.31 364.548 378.638 364.876C378.967 365.205 379.151 365.651 379.151 366.116C379.151 366.581 378.967 367.027 378.638 367.356C378.31 367.685 377.864 367.87 377.4 367.87Z" fill="white"/>
<path d="M355.462 389.785H347.539L336.759 330.18H344.682L355.462 389.785Z" fill="#263238"/>
<path opacity="0.4" d="M355.462 389.785H347.539L336.759 330.18H344.682L355.462 389.785Z" fill="white"/>
<path opacity="0.2" d="M353.306 389.785H347.539L336.759 330.18H342.526L353.306 389.785Z" fill="white"/>
<path d="M380.107 327.331H322.876C322.535 327.331 322.208 327.467 321.967 327.708C321.727 327.949 321.591 328.276 321.591 328.617V331.736C321.591 332.077 321.727 332.404 321.967 332.646C322.208 332.887 322.535 333.022 322.876 333.022H380.107C380.448 333.022 380.774 332.887 381.015 332.646C381.256 332.404 381.392 332.077 381.392 331.736V328.617C381.392 328.276 381.256 327.949 381.015 327.708C380.774 327.467 380.448 327.331 380.107 327.331Z" fill="#263238"/>
<path opacity="0.2" d="M344.629 327.331H322.875C322.534 327.331 322.208 327.467 321.967 327.708C321.726 327.949 321.59 328.276 321.59 328.617V331.736C321.59 332.077 321.726 332.404 321.967 332.646C322.208 332.887 322.534 333.022 322.875 333.022H344.629C344.97 333.022 345.296 332.887 345.537 332.646C345.778 332.404 345.914 332.077 345.914 331.736V328.617C345.914 328.448 345.88 328.281 345.816 328.125C345.751 327.969 345.657 327.827 345.537 327.708C345.418 327.589 345.276 327.494 345.121 327.429C344.965 327.365 344.798 327.331 344.629 327.331Z" fill="white"/>
<path d="M195.509 341.887H123.119V389.008H195.509V341.887Z" fill="#1DA6D6"/>
<path opacity="0.6" d="M195.509 341.887H123.119V389.008H195.509V341.887Z" fill="white"/>
<path d="M192.869 350.725H125.774V386.656H192.869V350.725Z" fill="#1DA6D6"/>
<path d="M180.871 356.087H131.239V357.627H180.871V356.087Z" fill="white"/>
<path d="M155.049 360.824H131.239V362.367H155.049V360.824Z" fill="white"/>
<path d="M161.231 365.562H131.239V367.105H161.231V365.562Z" fill="white"/>
<path d="M141.801 370.287H131.239V371.83H141.801V370.287Z" fill="white"/>
<path d="M138.085 375.024H131.239V376.568H138.085V375.024Z" fill="white"/>
<path d="M284.961 389.785H226.038L236.01 311.373H274.99L284.961 389.785Z" fill="#1DA6D6"/>
<path opacity="0.6" d="M284.961 389.785H226.038L232.863 336.136L236.022 311.373H274.981L279.638 347.909L284.961 389.785Z" fill="white"/>
<path opacity="0.1" d="M279.636 347.909L232.862 336.136L236.021 311.373H274.98L279.636 347.909Z" fill="black"/>
<path d="M394.423 118.023H116.578C115.644 118.023 114.72 118.207 113.857 118.565C112.995 118.923 112.211 119.448 111.551 120.11C110.892 120.771 110.369 121.556 110.012 122.42C109.656 123.284 109.473 124.21 109.475 125.144V313.413C109.475 315.299 110.223 317.107 111.555 318.441C112.887 319.774 114.694 320.523 116.578 320.524H394.423C396.307 320.523 398.113 319.774 399.446 318.441C400.778 317.107 401.526 315.299 401.526 313.413V125.166C401.53 124.23 401.35 123.301 400.995 122.435C400.64 121.569 400.117 120.781 399.457 120.117C398.797 119.453 398.013 118.927 397.149 118.567C396.285 118.208 395.358 118.023 394.423 118.023Z" fill="#1DA6D6"/>
<path opacity="0.7" d="M394.423 118.023H116.578C115.644 118.023 114.72 118.207 113.857 118.565C112.995 118.923 112.211 119.448 111.551 120.11C110.892 120.771 110.369 121.556 110.012 122.42C109.656 123.284 109.473 124.21 109.475 125.144V313.413C109.475 315.299 110.223 317.107 111.555 318.441C112.887 319.774 114.694 320.523 116.578 320.524H394.423C396.307 320.523 398.113 319.774 399.446 318.441C400.778 317.107 401.526 315.299 401.526 313.413V125.166C401.53 124.23 401.35 123.301 400.995 122.435C400.64 121.569 400.117 120.781 399.457 120.117C398.797 119.453 398.013 118.927 397.149 118.567C396.285 118.208 395.358 118.023 394.423 118.023Z" fill="white"/>
<path d="M392.179 124.994H118.831V306.542H392.179V124.994Z" fill="#1DA6D6"/>
<path d="M304.981 383.894H206.01C205.712 383.894 205.426 384.013 205.215 384.224C205.004 384.435 204.886 384.721 204.886 385.019V388.569C204.886 388.868 205.004 389.154 205.215 389.365C205.426 389.576 205.712 389.694 206.01 389.694H304.981C305.279 389.694 305.565 389.576 305.775 389.365C305.986 389.154 306.105 388.868 306.105 388.569V385.017C306.104 384.719 305.985 384.433 305.775 384.223C305.564 384.012 305.278 383.894 304.981 383.894Z" fill="#1DA6D6"/>
<path opacity="0.7" d="M304.981 383.894H206.01C205.712 383.894 205.426 384.013 205.215 384.224C205.004 384.435 204.886 384.721 204.886 385.019V388.569C204.886 388.868 205.004 389.154 205.215 389.365C205.426 389.576 205.712 389.694 206.01 389.694H304.981C305.279 389.694 305.565 389.576 305.775 389.365C305.986 389.154 306.105 388.868 306.105 388.569V385.017C306.104 384.719 305.985 384.433 305.775 384.223C305.564 384.012 305.278 383.894 304.981 383.894Z" fill="white"/>
<path opacity="0.2" d="M392.179 125.166H118.831V152.228H392.179V125.166Z" fill="black"/>
<path opacity="0.4" d="M235.966 152.552H118.831V306.539H235.966V152.552Z" fill="white"/>
<path d="M350.106 191.828V194.526H347.41" stroke="white" stroke-width="0.973" stroke-miterlimit="10"/>
<path d="M341.718 194.526H253.43" stroke="white" stroke-width="0.973" stroke-miterlimit="10" stroke-dasharray="5.14 5.14"/>
<path d="M250.585 194.526H247.889V191.828" stroke="white" stroke-width="0.973" stroke-miterlimit="10"/>
<path d="M247.889 186.94V140.51" stroke="white" stroke-width="0.973" stroke-miterlimit="10" stroke-dasharray="4.41 4.41"/>
<path d="M247.889 138.071V135.373H250.585" stroke="white" stroke-width="0.973" stroke-miterlimit="10"/>
<path d="M256.276 135.373H344.565" stroke="white" stroke-width="0.973" stroke-miterlimit="10" stroke-dasharray="5.14 5.14"/>
<path d="M347.41 135.373H350.106V138.071" stroke="white" stroke-width="0.973" stroke-miterlimit="10"/>
<path d="M350.105 142.96V189.39" stroke="white" stroke-width="0.973" stroke-miterlimit="10" stroke-dasharray="4.41 4.41"/>
<path d="M351.819 133.658H348.402V137.08H351.819V133.658Z" fill="#1DA6D6" stroke="white" stroke-width="0.973" stroke-miterlimit="10"/>
<path d="M351.819 192.823H348.402V196.242H351.819V192.823Z" fill="#1DA6D6" stroke="white" stroke-width="0.973" stroke-miterlimit="10"/>
<path d="M249.592 133.658H246.175V137.08H249.592V133.658Z" fill="#1DA6D6" stroke="white" stroke-width="0.973" stroke-miterlimit="10"/>
<path d="M249.592 192.823H246.175V196.242H249.592V192.823Z" fill="#1DA6D6" stroke="white" stroke-width="0.973" stroke-miterlimit="10"/>
<path d="M300.712 133.658H297.294V137.08H300.712V133.658Z" fill="#1DA6D6" stroke="white" stroke-width="0.973" stroke-miterlimit="10"/>
<path d="M300.712 192.823H297.294V196.242H300.712V192.823Z" fill="#1DA6D6" stroke="white" stroke-width="0.973" stroke-miterlimit="10"/>
<path d="M351.819 163.234H348.402V166.655H351.819V163.234Z" fill="#1DA6D6" stroke="white" stroke-width="0.973" stroke-miterlimit="10"/>
<path d="M249.592 163.234H246.175V166.655H249.592V163.234Z" fill="#1DA6D6" stroke="white" stroke-width="0.973" stroke-miterlimit="10"/>
<path opacity="0.7" d="M340.824 155.238H315.8C315.259 155.238 314.741 155.453 314.359 155.836C313.977 156.218 313.762 156.737 313.762 157.278V163.978C313.762 164.519 313.977 165.038 314.359 165.421C314.741 165.803 315.259 166.018 315.8 166.018H340.82C341.36 166.018 341.879 165.803 342.261 165.421C342.643 165.038 342.858 164.519 342.858 163.978V157.278C342.858 156.738 342.644 156.22 342.262 155.837C341.881 155.455 341.364 155.24 340.824 155.238Z" fill="white"/>
<path opacity="0.7" d="M297.704 155.238H272.68C272.139 155.238 271.621 155.453 271.239 155.836C270.857 156.218 270.642 156.737 270.642 157.278V163.978C270.642 164.519 270.857 165.038 271.239 165.421C271.621 165.803 272.139 166.018 272.68 166.018H297.7C298.24 166.018 298.759 165.803 299.141 165.421C299.523 165.038 299.738 164.519 299.738 163.978V157.278C299.738 156.738 299.524 156.22 299.142 155.837C298.761 155.455 298.244 155.24 297.704 155.238Z" fill="white"/>
<path opacity="0.7" d="M242.198 286.437H217.178C216.638 286.437 216.119 286.652 215.737 287.034C215.355 287.417 215.14 287.936 215.14 288.477V295.177C215.14 295.718 215.355 296.237 215.737 296.619C216.119 297.002 216.638 297.216 217.178 297.216H242.198C242.739 297.216 243.257 297.002 243.639 296.619C244.021 296.237 244.236 295.718 244.236 295.177V288.477C244.236 287.936 244.021 287.417 243.639 287.034C243.257 286.652 242.739 286.437 242.198 286.437Z" fill="white"/>
<path d="M374.134 134.791H383.232" stroke="white" stroke-width="1.459" stroke-linecap="round" stroke-linejoin="round"/>
<path d="M374.134 139.107H383.232" stroke="white" stroke-width="1.459" stroke-linecap="round" stroke-linejoin="round"/>
<path d="M374.134 143.423H383.232" stroke="white" stroke-width="1.459" stroke-linecap="round" stroke-linejoin="round"/>
<path opacity="0.5" d="M229.046 176.42H137.362V268.19H229.046V176.42Z" fill="white"/>
<path d="M175.739 183.919V263.087" stroke="#1DA6D6" stroke-width="0.973" stroke-miterlimit="10"/>
<path d="M215.28 263.086C210.087 263.087 204.944 262.064 200.146 260.075C195.347 258.087 190.987 255.172 187.315 251.496C183.642 247.821 180.728 243.458 178.74 238.656C176.752 233.853 175.728 228.706 175.728 223.508C175.727 218.31 176.749 213.162 178.736 208.359C180.723 203.556 183.635 199.192 187.307 195.516C190.978 191.84 195.338 188.923 200.135 186.933C204.933 184.943 210.075 183.919 215.269 183.918" stroke="#1DA6D6" stroke-width="0.973" stroke-miterlimit="10"/>
<path d="M216.993 182.214H213.577V185.636H216.993V182.214Z" fill="white" stroke="#1DA6D6" stroke-width="0.973" stroke-miterlimit="10"/>
<path d="M216.993 261.371H213.577V264.791H216.993V261.371Z" fill="white" stroke="#1DA6D6" stroke-width="0.973" stroke-miterlimit="10"/>
<path d="M177.453 221.792H174.036V225.213H177.453V221.792Z" fill="white" stroke="#1DA6D6" stroke-width="0.973" stroke-miterlimit="10"/>
<path d="M176.623 183.919C176.626 184.14 176.545 184.354 176.397 184.518C176.25 184.683 176.046 184.786 175.826 184.807C175.607 184.829 175.387 184.767 175.21 184.635C175.034 184.502 174.913 184.308 174.872 184.091C174.847 183.963 174.85 183.83 174.881 183.703C174.913 183.576 174.973 183.458 175.056 183.356C175.138 183.255 175.243 183.174 175.361 183.118C175.479 183.062 175.609 183.033 175.739 183.033C175.973 183.036 176.196 183.13 176.361 183.295C176.526 183.461 176.62 183.684 176.623 183.917L176.623 183.919Z" fill="white" stroke="#1DA6D6" stroke-width="0.973" stroke-miterlimit="10"/>
<path d="M176.623 263.086C176.623 263.261 176.572 263.431 176.475 263.576C176.379 263.721 176.242 263.835 176.081 263.902C175.92 263.969 175.743 263.987 175.572 263.954C175.401 263.921 175.244 263.838 175.12 263.716C174.996 263.593 174.911 263.437 174.875 263.266C174.84 263.095 174.856 262.918 174.921 262.756C174.986 262.595 175.097 262.456 175.241 262.357C175.384 262.259 175.554 262.205 175.728 262.202C175.904 262.2 176.077 262.251 176.224 262.347C176.371 262.444 176.486 262.583 176.554 262.746C176.6 262.853 176.623 262.969 176.623 263.086Z" fill="white" stroke="#1DA6D6" stroke-width="0.973" stroke-miterlimit="10"/>
<path opacity="0.7" d="M327.651 287.742H299.892C297.765 287.742 295.725 286.896 294.221 285.391C292.717 283.885 291.872 281.843 291.872 279.714C291.872 277.585 292.717 275.543 294.221 274.038C295.725 272.532 297.765 271.686 299.892 271.686H327.651C329.778 271.686 331.818 272.532 333.322 274.038C334.826 275.543 335.671 277.585 335.671 279.714C335.671 281.843 334.826 283.885 333.322 285.391C331.818 286.896 329.778 287.742 327.651 287.742Z" fill="white"/>
<path opacity="0.7" d="M352.035 219.278H266.28C265.82 219.278 265.378 219.095 265.053 218.769C264.727 218.443 264.544 218.001 264.544 217.541C264.544 217.08 264.727 216.638 265.053 216.312C265.378 215.987 265.82 215.804 266.28 215.804H352.025C352.252 215.803 352.478 215.847 352.689 215.934C352.9 216.02 353.092 216.148 353.253 216.309C353.415 216.469 353.543 216.661 353.631 216.871C353.719 217.082 353.765 217.307 353.765 217.535C353.766 217.764 353.722 217.99 353.635 218.201C353.549 218.412 353.421 218.604 353.261 218.765C353.1 218.927 352.909 219.056 352.699 219.144C352.488 219.232 352.263 219.277 352.035 219.278Z" fill="white"/>
<path opacity="0.7" d="M352.035 232.087H266.28C266.05 232.087 265.822 232.041 265.609 231.953C265.397 231.865 265.204 231.736 265.041 231.573C264.878 231.41 264.749 231.217 264.661 231.004C264.573 230.791 264.528 230.563 264.528 230.333C264.528 230.103 264.573 229.875 264.661 229.662C264.749 229.449 264.878 229.256 265.041 229.093C265.204 228.93 265.397 228.801 265.609 228.713C265.822 228.625 266.05 228.579 266.28 228.579H352.024C352.489 228.578 352.935 228.761 353.265 229.089C353.594 229.417 353.78 229.863 353.782 230.328C353.783 230.793 353.6 231.239 353.272 231.569C352.945 231.899 352.5 232.085 352.035 232.087Z" fill="white"/>
<path opacity="0.7" d="M352.032 244.937H298.62C298.387 244.942 298.155 244.901 297.938 244.815C297.721 244.729 297.524 244.601 297.357 244.437C297.19 244.274 297.058 244.079 296.968 243.864C296.877 243.649 296.831 243.418 296.831 243.184C296.831 242.951 296.877 242.72 296.968 242.504C297.058 242.289 297.19 242.094 297.357 241.931C297.524 241.768 297.721 241.639 297.938 241.553C298.155 241.468 298.387 241.426 298.62 241.431H352.024C352.483 241.439 352.919 241.627 353.241 241.954C353.562 242.28 353.743 242.72 353.744 243.179C353.746 243.638 353.568 244.079 353.248 244.407C352.929 244.736 352.493 244.926 352.035 244.937H352.032Z" fill="white"/>
<path opacity="0.4" d="M133.524 132.666H127.466V138.73H133.524V132.666Z" fill="black"/>
<path opacity="0.4" d="M143.744 132.666H140.791C140.587 132.666 140.385 132.706 140.196 132.784C140.008 132.862 139.837 132.976 139.693 133.121C139.548 133.265 139.434 133.436 139.356 133.625C139.278 133.813 139.238 134.015 139.238 134.219V137.176C139.238 137.38 139.278 137.582 139.356 137.771C139.434 137.96 139.548 138.131 139.692 138.275C139.837 138.419 140.008 138.534 140.196 138.612C140.385 138.69 140.587 138.73 140.791 138.73H143.744C143.948 138.73 144.15 138.69 144.339 138.612C144.527 138.534 144.698 138.419 144.842 138.275C144.986 138.131 145.101 137.959 145.179 137.771C145.256 137.582 145.297 137.38 145.296 137.176V134.219C145.296 133.807 145.133 133.412 144.842 133.121C144.551 132.83 144.156 132.666 143.744 132.666Z" fill="black"/>
<path opacity="0.4" d="M154.308 132.666H153.791C153.427 132.666 153.067 132.738 152.731 132.877C152.395 133.016 152.089 133.221 151.832 133.478C151.575 133.736 151.37 134.042 151.231 134.378C151.092 134.715 151.02 135.075 151.02 135.439V135.957C151.02 136.321 151.092 136.682 151.231 137.018C151.37 137.355 151.575 137.661 151.832 137.918C152.089 138.176 152.395 138.38 152.731 138.519C153.067 138.659 153.427 138.73 153.791 138.73H154.308C154.672 138.73 155.032 138.659 155.369 138.519C155.705 138.38 156.01 138.176 156.267 137.918C156.525 137.661 156.729 137.355 156.868 137.018C157.007 136.682 157.079 136.321 157.079 135.957V135.439C157.079 135.075 157.007 134.715 156.868 134.378C156.729 134.042 156.525 133.736 156.267 133.478C156.01 133.221 155.705 133.016 155.369 132.877C155.032 132.738 154.672 132.666 154.308 132.666Z" fill="black"/>
<path opacity="0.9" d="M146.029 282.164V279.8L144.825 279.693C144.653 278.925 144.347 278.195 143.92 277.535L144.697 276.596L143.026 274.924L142.088 275.701C141.428 275.274 140.699 274.967 139.932 274.795L139.825 273.59H137.463L137.345 274.795C136.579 274.968 135.849 275.275 135.189 275.701L134.252 274.924L132.581 276.596L133.357 277.535C132.922 278.19 132.615 278.923 132.452 279.693L131.234 279.8V282.164L132.452 282.282C132.615 283.052 132.922 283.784 133.357 284.44L132.581 285.389L134.252 287.051L135.189 286.274C135.845 286.709 136.576 287.017 137.345 287.18L137.463 288.399H139.825L139.932 287.18C140.702 287.017 141.433 286.71 142.088 286.274L143.026 287.051L144.697 285.389L143.92 284.44C144.351 283.782 144.657 283.05 144.825 282.282L146.029 282.164ZM138.603 284.182C137.854 284.182 137.128 283.923 136.549 283.448C135.97 282.973 135.574 282.311 135.427 281.576C135.281 280.841 135.394 280.078 135.747 279.417C136.099 278.756 136.67 278.238 137.362 277.951C138.053 277.664 138.823 277.626 139.54 277.844C140.256 278.061 140.875 278.521 141.291 279.144C141.707 279.767 141.894 280.515 141.821 281.261C141.747 282.006 141.418 282.704 140.888 283.234C140.282 283.84 139.46 284.181 138.603 284.182Z" fill="white"/>
<path opacity="0.6" d="M155.602 288.832V287.02L154.653 286.922C154.524 286.315 154.283 285.736 153.941 285.218L154.545 284.473L153.24 283.168L152.507 283.783C151.985 283.441 151.404 283.2 150.794 283.07L150.707 282.111H148.853L148.767 283.07C148.156 283.2 147.575 283.441 147.053 283.783L146.32 283.168L145.005 284.473L145.62 285.218C145.278 285.736 145.036 286.315 144.908 286.922L143.96 287.02V288.868L144.908 288.965C145.036 289.573 145.278 290.151 145.62 290.67L145.005 291.415L146.32 292.72L147.053 292.105C147.575 292.447 148.156 292.689 148.767 292.818L148.853 293.767H150.707L150.794 292.818C151.404 292.689 151.985 292.447 152.507 292.105L153.24 292.72L154.545 291.415L153.941 290.67C154.283 290.151 154.525 289.573 154.653 288.965L155.602 288.832ZM149.781 290.421C149.16 290.421 148.562 290.189 148.103 289.772C147.644 289.354 147.356 288.781 147.295 288.163C147.235 287.545 147.406 286.927 147.775 286.428C148.145 285.929 148.687 285.586 149.295 285.464C149.904 285.343 150.535 285.453 151.068 285.772C151.6 286.09 151.995 286.596 152.175 287.19C152.356 287.784 152.31 288.424 152.045 288.986C151.781 289.548 151.317 289.991 150.744 290.229C150.439 290.356 150.111 290.422 149.781 290.421Z" fill="white"/>
<path opacity="0.4" d="M146.029 294.087V292.534L145.232 292.459C145.125 291.948 144.924 291.461 144.64 291.023L145.157 290.409L144.078 289.329L143.453 289.836C143.016 289.551 142.53 289.35 142.02 289.243L141.944 288.444H140.37L140.295 289.243C139.785 289.35 139.298 289.551 138.861 289.836L138.236 289.329L137.157 290.409L137.674 291.023C137.39 291.461 137.189 291.948 137.082 292.459L136.273 292.534V294.088L137.082 294.163C137.187 294.679 137.388 295.169 137.674 295.61L137.157 296.226L138.236 297.305L138.861 296.787C139.295 297.08 139.782 297.285 140.295 297.391L140.37 298.19H141.923L141.998 297.391C142.511 297.285 142.998 297.08 143.432 296.787L144.058 297.305L145.136 296.226L144.619 295.61C144.906 295.169 145.107 294.679 145.211 294.163L146.029 294.087ZM141.146 295.414C140.627 295.4 140.131 295.193 139.755 294.834C139.379 294.475 139.15 293.988 139.112 293.47C139.074 292.951 139.23 292.436 139.55 292.026C139.869 291.616 140.329 291.339 140.841 291.249C141.353 291.16 141.88 291.264 142.32 291.541C142.76 291.818 143.081 292.249 143.221 292.75C143.362 293.251 143.311 293.786 143.079 294.252C142.848 294.717 142.451 295.08 141.968 295.27C141.706 295.373 141.427 295.421 141.146 295.414Z" fill="white"/>
<path d="M349.481 134.759L354.051 146.995L361.695 139.334L349.481 134.759Z" fill="#1DA6D6"/>
<path d="M356.842 140.416L355.134 142.126L358.922 145.918L360.63 144.209L356.842 140.416Z" fill="#1DA6D6"/>
<path opacity="0.4" d="M361.695 139.331L349.481 134.755L354.051 146.992L357.027 144.015L358.913 145.914L360.616 144.209L358.73 142.309L361.695 139.331Z" fill="white"/>
<path d="M162.207 178.491L173.709 182.807L167.687 176.78C167.438 176.919 167.148 176.964 166.869 176.905C166.59 176.847 166.341 176.689 166.169 176.462C165.997 176.234 165.913 175.952 165.933 175.668C165.952 175.383 166.073 175.115 166.275 174.913C166.385 174.802 166.517 174.714 166.661 174.654C166.806 174.593 166.961 174.563 167.118 174.563C167.274 174.563 167.43 174.593 167.574 174.654C167.719 174.714 167.85 174.802 167.961 174.913C168.141 175.096 168.257 175.334 168.29 175.589C168.323 175.844 168.272 176.103 168.144 176.327L174.166 182.354L169.854 170.842L166.037 171.683L165.897 170.313L165.174 169.59L160.948 173.819L161.671 174.543L163.05 174.682L162.207 178.491Z" fill="#263238"/>
<path opacity="0.2" d="M162.207 178.491L173.709 182.807L167.687 176.78C167.438 176.919 167.148 176.964 166.869 176.905C166.59 176.847 166.341 176.689 166.169 176.462C165.997 176.234 165.913 175.952 165.933 175.668C165.952 175.383 166.073 175.115 166.275 174.913C166.385 174.802 166.517 174.714 166.661 174.654C166.806 174.593 166.961 174.563 167.118 174.563C167.274 174.563 167.43 174.593 167.574 174.654C167.719 174.714 167.85 174.802 167.961 174.913C168.141 175.096 168.257 175.334 168.29 175.589C168.323 175.844 168.272 176.103 168.144 176.327L174.166 182.354L169.854 170.842L166.037 171.683L165.897 170.313L165.174 169.59L160.948 173.819L161.671 174.543L163.05 174.682L162.207 178.491Z" fill="white"/>
<g opacity="0.1">
<path d="M158.804 124.994L118.292 276.509V124.994H158.804Z" fill="white"/>
<path d="M204.522 124.994L155.979 306.542H122.54L171.07 124.994H204.522Z" fill="white"/>
<path d="M253.139 124.994L204.597 306.542H189.472L238.014 124.994H253.139Z" fill="white"/>
<path d="M297.908 124.994L249.366 306.542H243.954L292.496 124.994H297.908Z" fill="white"/>
</g>
<path d="M462.369 165.09C466.195 169.503 485.664 207.041 481.902 215.801C478.139 224.561 446.942 214.463 446.942 214.463L448.807 202.087C448.807 202.087 460.923 202.518 462.088 201.363C463.252 200.208 445.691 182.664 445.691 182.664L462.369 165.09Z" fill="#263238"/>
<g opacity="0.2">
<path d="M481.88 215.804C481.417 216.818 480.611 217.636 479.605 218.112L478.98 218.394H478.894C478.701 218.475 478.503 218.544 478.301 218.599C477.425 218.881 476.522 219.069 475.606 219.161L474.819 219.237C474.431 219.237 474.043 219.291 473.644 219.301H472.565C462.109 219.301 446.898 214.392 446.898 214.392L448.763 202.015C448.763 202.015 460.88 202.447 462.044 201.292C462.324 201.01 461.494 199.759 460.082 198.055C456.654 193.835 449.787 186.811 446.952 183.941L445.667 182.647L462.368 165.091C466.195 169.46 485.663 206.999 481.88 215.804Z" fill="white"/>
</g>
<path opacity="0.2" d="M479.627 218.08L479.002 218.362H478.916C478.722 218.442 478.524 218.511 478.322 218.566C477.446 218.848 476.543 219.037 475.627 219.128L474.84 219.204C474.452 219.204 474.064 219.258 473.665 219.268H472.585C462.128 219.268 446.918 214.359 446.918 214.359L448.783 201.982C448.783 201.982 462.433 203.137 463.595 201.982C463.811 201.53 462.301 199.997 460.07 198.044C456.641 193.826 449.775 186.802 446.939 183.931L454.83 175.492L460.835 174.845C460.835 174.845 474.129 196.381 479.627 218.08Z" fill="black"/>
<path d="M423.032 163.817C420.876 165.382 419.798 167.604 420.66 168.78L477.622 247.386C478.473 248.563 480.921 248.239 483.076 246.674C485.232 245.109 486.31 242.876 485.448 241.71L428.487 163.094C427.635 161.929 425.199 162.24 423.032 163.817Z" fill="#263238"/>
<path opacity="0.7" d="M428.487 163.094L485.449 241.701C486.3 242.866 485.233 245.088 483.077 246.664C480.921 248.24 478.474 248.542 477.633 247.376L420.671 168.759C420.454 168.35 420.357 167.886 420.394 167.424C420.43 166.961 420.597 166.519 420.876 166.148C421.167 165.628 421.53 165.153 421.954 164.735C422.285 164.394 422.646 164.083 423.033 163.807C425.199 162.253 427.636 161.929 428.487 163.094Z" fill="white"/>
<path opacity="0.3" d="M485.448 241.7C486.299 242.866 485.233 245.088 483.076 246.664C480.92 248.239 478.473 248.542 477.633 247.376C477.158 246.729 478.334 245.747 479.022 244.334L420.876 166.168C421.167 165.648 421.53 165.172 421.954 164.755L478.927 243.372C479.261 243.031 479.622 242.718 480.005 242.434C482.16 240.859 484.596 240.535 485.448 241.7Z" fill="black"/>
<path d="M415.982 161.637C414.161 163.58 413.535 165.953 414.592 166.957L485.416 233.327C486.494 234.319 488.811 233.542 490.635 231.59C492.458 229.638 493.082 227.273 492.025 226.259L421.2 159.889C420.143 158.906 417.8 159.695 415.982 161.637Z" fill="#1DA6D6"/>
<path opacity="0.7" d="M421.2 159.9L492.024 226.271C493.102 227.252 492.455 229.636 490.634 231.59C488.813 233.544 486.473 234.31 485.415 233.327L414.59 166.957C414.301 166.593 414.121 166.155 414.069 165.693C414.018 165.231 414.097 164.764 414.299 164.346C414.492 163.78 414.761 163.243 415.097 162.749C415.363 162.367 415.658 162.006 415.98 161.669C417.802 159.696 420.143 158.907 421.2 159.9Z" fill="white"/>
<path opacity="0.3" d="M492.024 226.271C493.102 227.252 492.455 229.636 490.633 231.59C488.811 233.544 486.473 234.31 485.414 233.327C484.832 232.777 485.802 231.6 486.212 230.09L414.299 164.367C414.492 163.801 414.76 163.264 415.097 162.77L485.931 229.152C486.192 228.769 486.484 228.408 486.804 228.073C488.628 226.055 490.968 225.278 492.024 226.271Z" fill="black"/>
<path d="M433.003 373.448L427.613 373.535C422.126 347.737 418.245 315.808 415.831 291.722C415.453 287.945 415.108 284.373 414.752 281.04C414.613 279.453 414.471 277.932 414.343 276.464C413.696 269.224 413.264 263.516 412.984 259.934C412.791 257.344 412.693 255.92 412.693 255.92H432.292L432.112 260.897L431.465 277.309L431.4 279.187L430.99 290.031L430.311 308.493C437.002 334.495 433.003 373.448 433.003 373.448Z" fill="#EBB376"/>
<path d="M476.769 372.068L471.455 373.07C460.815 346.451 450.82 312.365 444.322 288.551C443.32 284.86 442.395 281.408 441.561 278.278C441.544 278.119 441.504 277.963 441.443 277.814C439.805 271.599 438.543 266.643 437.756 263.509L436.819 259.701L456.008 256.377L457.086 264.47L458.692 276.34L459.005 278.67L460.084 286.774L463.004 308.506C474.086 332.996 476.769 372.068 476.769 372.068Z" fill="#EBB376"/>
<path opacity="0.2" d="M458.747 276.359L441.564 278.28C441.547 278.12 441.507 277.964 441.446 277.816C439.808 271.6 438.546 266.645 437.759 263.511L457.163 264.475L458.747 276.359Z" fill="black"/>
<path opacity="0.2" d="M432.065 260.896L431.462 277.308L431.397 279.186L414.796 281.035C414.657 279.448 414.515 277.927 414.387 276.46C413.74 269.219 413.309 263.512 413.028 259.93L432.065 260.896Z" fill="black"/>
<path d="M417.06 391.382C418.064 390.566 419.206 389.937 420.432 389.526C420.432 389.526 424.108 385.879 425.886 374.894L430.694 373.631C431.511 373.436 432.369 373.496 433.151 373.803C433.934 374.11 434.604 374.649 435.071 375.347C435.204 375.543 435.306 375.757 435.373 375.984C435.622 377.162 435.795 378.355 435.89 379.556C436.16 383.572 436.185 387.6 435.966 391.619H435.093L434.748 384.065C434.619 381.486 432.646 384.507 432.085 387.302C431.525 390.097 430.329 393.008 424.699 393.15C418.127 393.251 415.399 392.99 417.06 391.382Z" fill="#263238"/>
<path d="M435.245 375.499C435.558 372.927 435.654 368.464 435.654 368.464L424.959 369.651C424.959 369.651 426.252 374.733 425.185 378.553C430.579 377.075 435.245 375.499 435.245 375.499Z" fill="#263238"/>
<path d="M460.568 391.383C461.572 390.569 462.714 389.943 463.94 389.534C463.94 389.534 467.616 385.887 469.384 374.903L474.201 373.64C475.018 373.445 475.876 373.504 476.658 373.811C477.441 374.118 478.111 374.656 478.578 375.355C478.711 375.551 478.813 375.765 478.88 375.992C479.129 377.17 479.302 378.363 479.397 379.563C479.665 383.58 479.686 387.608 479.462 391.627H478.643L478.297 384.073C478.169 381.494 476.195 384.515 475.635 387.31C475.075 390.105 473.877 393.016 468.239 393.157C461.636 393.251 458.908 392.991 460.568 391.383Z" fill="#263238"/>
<path d="M478.743 375.499C479.064 372.927 479.163 368.464 479.163 368.464L468.469 369.651C468.469 369.651 469.763 374.733 468.696 378.553C474.086 377.075 478.743 375.499 478.743 375.499Z" fill="#263238"/>
<path d="M477.333 365.378L466.593 366.834L465.806 366.931L435.289 258.414V365.378L423.388 364.092L412.414 273.715C402.712 216.667 419.302 203.19 419.302 203.19L448.872 209.146C462.261 231.935 459.081 258.411 459.081 258.411L477.333 365.378Z" fill="#1DA6D6"/>
<path d="M432.591 132.115C432.591 134.359 431.6 136.172 430.435 136.172C429.271 136.172 428.215 134.36 428.215 132.115C428.215 129.871 429.206 128.058 430.435 128.058C431.665 128.058 432.591 129.871 432.591 132.115Z" stroke="#263238" stroke-width="0.486" stroke-linecap="round" stroke-linejoin="round"/>
<path d="M447.201 145.671C447.122 145.745 447.035 145.81 446.942 145.865C445.713 146.803 444.309 147.489 442.814 147.883C438.448 148.897 435.462 148.292 433.51 146.318C430.78 143.351 430.104 138.096 430.492 131.751C430.559 129.227 431.025 126.729 431.872 124.35V124.231C431.9 124.138 431.936 124.047 431.979 123.961C432.514 122.619 433.376 121.432 434.487 120.511C435.599 119.589 436.923 118.961 438.34 118.685C439.568 118.41 440.822 118.269 442.08 118.263C454.445 118.164 456.666 138.644 447.201 145.671Z" fill="#EBB376"/>
<path opacity="0.2" d="M446.942 145.894C445.702 146.779 444.298 147.408 442.813 147.743C438.447 148.757 435.462 148.013 433.51 146.005C436.123 146.652 438.875 146.424 441.347 145.357C442.26 145.02 443.237 144.894 444.206 144.987C445.174 145.08 446.11 145.391 446.942 145.897V145.894Z" fill="black"/>
<path d="M448.192 157.062C448.958 160.58 444.398 162.014 444.398 162.014C436.949 158.777 435.566 154.862 435.566 154.862C441.785 151.624 439.982 142.443 439.982 142.443L441.243 143.069L450.123 144.8C450.123 144.8 447.665 149.527 447.341 150.606C445.659 156.274 448.192 157.062 448.192 157.062Z" fill="#EBB376"/>
<path d="M431.861 124.293C431.861 124.293 431.181 132.926 439.409 136.691C439.409 136.691 442.933 145.701 448.119 145.82C455.201 145.992 461.432 135.925 458.984 125.663C455.782 112.348 435.634 111.269 431.861 124.293Z" fill="#263238"/>
<path d="M435.224 134.198C435.224 132.849 436.302 130.572 438.458 130.885C440.614 131.198 441.843 136.572 436.496 137.769C435.687 137.942 435.224 137.035 435.224 134.198Z" fill="#EBB376"/>
<path d="M446.941 115.077C446.941 115.077 438.684 112.983 434.113 116.318C428.777 120.202 426.751 124.215 433.035 130.453C433.035 130.453 446.909 125.952 451.523 126.902C454.22 127.447 456.866 128.216 459.436 129.201C460.438 120.03 451.553 113.2 446.941 115.077Z" fill="#263238"/>
<path d="M435.224 132.115C435.224 132.115 437.38 142.107 433.995 150.631C433.995 150.631 453.615 157.44 460.438 153.739C467.261 150.038 461.009 137.618 460.719 130.453C460.428 123.289 457.323 112.704 446.941 115.078C436.56 117.452 435.224 132.115 435.224 132.115Z" fill="#263238"/>
<path d="M428.163 131.479H436.449" stroke="#263238" stroke-width="0.486" stroke-linecap="round" stroke-linejoin="round"/>
<path opacity="0.2" d="M440.258 273.659L439.616 273.799L435.288 258.412C435.288 258.412 444.257 243.08 441.454 235.095C441.854 235.658 451.509 249.998 440.258 273.659Z" fill="black"/>
<path d="M423.464 156.286C423.464 156.286 433.327 152.767 448.193 157.063C463.059 161.358 463.62 167.691 463.62 167.691C463.62 167.691 454.198 189.069 452.71 213.269L413.967 211.822C413.967 211.822 409.342 177.661 423.464 156.286Z" fill="#263238"/>
<path opacity="0.2" d="M463.619 167.686C463.619 167.686 454.197 189.064 452.71 213.264L413.966 211.817C413.503 207.878 413.266 203.915 413.255 199.948C413.179 194.143 413.539 188.34 414.333 182.589C415.627 173.633 418.29 164.073 423.464 156.239C423.464 156.239 433.327 152.721 448.193 157.016C463.059 161.311 463.619 167.686 463.619 167.686Z" fill="white"/>
<path opacity="0.2" d="M422.921 184.092C422.921 184.092 421.315 193.933 413.219 199.997C413.142 194.192 413.503 188.389 414.297 182.638L422.921 184.092Z" fill="black"/>
<path d="M380.116 155.605L375.233 148.353C375.233 148.353 374.489 145.202 373.541 144.491C372.593 143.78 363.214 139.776 362.082 139.798C360.95 139.819 361.003 147.111 362.082 148.354C363.16 149.598 369.131 152.25 370.706 152.52C372.28 152.79 371.503 152.52 371.503 152.52L375.815 161.152L380.116 155.605Z" fill="#EBB376"/>
<path d="M423.463 156.285C413.001 160.67 402.907 165.888 393.279 171.888L377.508 150.308C377.508 150.308 373.261 151.624 371.687 159.026C371.687 159.026 379.783 189.897 390.303 192.962C400.823 196.027 422.945 184.041 422.945 184.041C422.945 184.041 429.348 168.003 423.463 156.285Z" fill="#263238"/>
<path opacity="0.2" d="M423.463 156.285C413.001 160.67 402.907 165.888 393.279 171.888L377.508 150.308C377.508 150.308 373.261 151.624 371.687 159.026C371.687 159.026 379.783 189.897 390.303 192.962C400.823 196.027 422.945 184.041 422.945 184.041C422.945 184.041 429.348 168.003 423.463 156.285Z" fill="white"/>
<path d="M433.435 154.926C433.435 154.926 436.873 179.571 447.773 180.563C458.672 181.555 463.554 163.298 461.711 161.141C459.868 158.983 445.821 154.764 433.435 154.926Z" fill="#263238"/>
<path opacity="0.3" d="M433.435 154.926C433.435 154.926 436.873 179.571 447.773 180.563C458.672 181.555 463.554 163.298 461.711 161.141C459.868 158.983 445.821 154.764 433.435 154.926Z" fill="white"/>
<path d="M45.6776 381.617H53.6641L54.3216 363.101H46.3343L45.6776 381.617Z" fill="#B97964"/>
<path d="M54.7656 380.689H45.0633C44.9036 380.686 44.7481 380.74 44.6239 380.84C44.4997 380.941 44.4148 381.082 44.3841 381.239L42.8104 388.35C42.7768 388.501 42.7737 388.658 42.8013 388.811C42.8288 388.964 42.8865 389.11 42.971 389.24C43.0553 389.37 43.1644 389.483 43.2921 389.571C43.4199 389.659 43.5636 389.721 43.7152 389.753H43.9746C47.1115 389.699 49.3645 389.505 53.3316 389.505C55.7685 389.505 63.034 389.763 66.4407 389.763C69.8474 389.763 70.224 386.451 68.855 386.147C62.6999 384.798 58.0752 382.91 56.1025 381.173C55.734 380.848 55.2563 380.675 54.7656 380.689Z" fill="#263238"/>
<path d="M55.3156 381.801C55.2791 381.79 55.2465 381.769 55.2217 381.74C55.1966 381.712 55.1807 381.676 55.1759 381.638C55.1692 381.603 55.174 381.566 55.1895 381.533C55.2045 381.499 55.2298 381.471 55.2618 381.453C55.5533 381.269 58.129 379.685 59.013 380.136C59.1123 380.183 59.1957 380.259 59.2527 380.353C59.3098 380.447 59.3381 380.555 59.3342 380.665C59.3632 380.855 59.3413 381.048 59.2707 381.227C59.2002 381.405 59.0835 381.561 58.9327 381.679C58.4865 381.992 57.9447 382.137 57.4024 382.089C56.6985 382.068 55.999 381.971 55.3156 381.801ZM55.8648 381.531C56.797 381.847 57.8144 381.797 58.7111 381.391C58.8046 381.306 58.876 381.2 58.9193 381.082C58.9625 380.963 58.9762 380.836 58.9592 380.711C58.9592 380.56 58.895 380.484 58.8412 380.484C58.7645 380.445 58.679 380.426 58.5931 380.43C57.6228 380.621 56.6976 380.994 55.8664 381.531H55.8648Z" fill="#1DA6D6"/>
<path d="M55.261 381.833C55.2329 381.814 55.2102 381.788 55.1952 381.758C55.1804 381.728 55.1735 381.694 55.1751 381.661C55.1751 381.553 55.3798 379.255 56.2534 378.499C56.3599 378.402 56.4869 378.33 56.625 378.288C56.7632 378.246 56.9089 378.236 57.0515 378.258C57.1947 378.259 57.3333 378.309 57.4449 378.399C57.5563 378.489 57.6343 378.614 57.6665 378.754C57.8271 379.596 56.2325 381.355 55.4031 381.808H55.3164L55.261 381.833ZM56.5457 378.736C55.9865 379.456 55.6594 380.329 55.6079 381.239C56.4276 380.613 57.4401 379.286 57.3438 378.768C57.3438 378.768 57.3438 378.574 57.0627 378.574H56.9768C56.8173 378.571 56.6627 378.629 56.5441 378.736H56.5457Z" fill="#1DA6D6"/>
<path opacity="0.2" d="M46.3351 363.111H54.3224L53.9772 372.661H45.9891L46.3351 363.111Z" fill="black"/>
<path d="M86.7815 382.21L95.0281 383.084L96.5705 365.302L88.3343 364.428L86.7815 382.21Z" fill="#B97964"/>
<path d="M95.892 380.43H86.2572C86.0984 380.431 85.9448 380.486 85.8215 380.586C85.6981 380.686 85.6122 380.825 85.5779 380.98L84.0034 388.101C83.9649 388.251 83.9565 388.407 83.9785 388.56C84.0006 388.712 84.0527 388.859 84.1319 388.992C84.2106 389.124 84.3152 389.24 84.4394 389.331C84.5635 389.423 84.7046 389.489 84.8545 389.526H85.1138C88.2508 389.472 90.5037 389.276 94.4813 389.276C96.9069 389.276 104.184 389.526 107.579 389.526C110.975 389.526 111.363 386.213 109.994 385.909C103.838 384.572 99.2144 382.673 97.2417 380.935C96.8704 380.604 96.3891 380.424 95.892 380.43Z" fill="#263238"/>
<path d="M96.4412 381.544C96.4048 381.533 96.3722 381.512 96.3473 381.483C96.3225 381.454 96.3066 381.419 96.3015 381.381C96.2938 381.344 96.2995 381.305 96.3176 381.272C96.3349 381.239 96.3633 381.212 96.3979 381.198C96.6781 381.015 99.2546 379.43 100.139 379.893C100.238 379.937 100.322 380.009 100.379 380.102C100.437 380.194 100.465 380.302 100.46 380.41C100.486 380.6 100.464 380.793 100.396 380.972C100.328 381.151 100.216 381.31 100.071 381.435C99.6171 381.739 99.074 381.88 98.5296 381.837C97.825 381.814 97.1249 381.715 96.4412 381.544ZM96.9912 381.284C97.9244 381.597 98.9417 381.544 99.8367 381.134C99.9311 381.05 100.003 380.943 100.047 380.825C100.09 380.706 100.104 380.578 100.086 380.453C100.086 380.303 100.021 380.238 99.9668 380.238C99.8944 380.194 99.8099 380.175 99.7259 380.184C98.7647 380.373 97.8493 380.747 97.0306 381.285L96.9912 381.284Z" fill="#1DA6D6"/>
<path d="M96.4003 381.585C96.371 381.566 96.3467 381.541 96.3296 381.511C96.3124 381.481 96.3033 381.447 96.3031 381.413C96.3031 381.294 96.5079 379.006 97.4352 378.25C97.5447 378.158 97.6717 378.088 97.8086 378.046C97.9456 378.003 98.0897 377.988 98.2325 378.002C98.3765 378.001 98.5163 378.05 98.6283 378.141C98.7404 378.231 98.8178 378.357 98.8475 378.498C99.0081 379.35 97.4136 381.109 96.5834 381.552H96.4974L96.4003 381.585ZM97.6729 378.477C97.1141 379.192 96.7869 380.061 96.7351 380.968C97.5541 380.353 98.5673 379.015 98.4702 378.498C98.4702 378.498 98.4702 378.304 98.19 378.304H98.1145C97.9504 378.308 97.7929 378.369 97.6697 378.478L97.6729 378.477Z" fill="#1DA6D6"/>
<path opacity="0.2" d="M88.3343 364.428L96.5705 365.302L95.762 374.474L87.5258 373.599L88.3343 364.428Z" fill="black"/>
<path d="M49.6005 200.751H91.9979C96.0189 222.771 108.632 300.69 99.5453 370.157L85.1973 368.377C85.1973 368.377 86.5229 276.218 73.8667 242.132C72.4111 260.367 70.6326 279.768 69.1778 290.094C65.4916 315.506 57.6007 371.024 57.6007 371.024H43.0368C43.0368 371.024 46.0228 317.871 47.403 292.902C48.9116 265.762 49.6005 206.319 49.6005 200.751Z" fill="#263238"/>
<path d="M101.227 373.459L83.4727 370.819L84.0219 365.899L102.489 368.326L101.227 373.459Z" fill="#1DA6D6"/>
<path d="M59.4008 371.118H42.1745V365.974L60.0479 365.64L59.4008 371.118Z" fill="#1DA6D6"/>
<path opacity="0.2" d="M73.9109 242.1C75.9915 248.074 77.5746 254.209 78.644 260.444C79.8299 244.259 75.0863 226.995 75.0863 226.995L73.9109 242.1Z" fill="black"/>
<path d="M48.4275 208.132L47.4576 213.257C47.4576 213.257 77.1137 217.098 95.558 216.991L94.9109 213.472L48.4275 208.132Z" fill="#1DA6D6"/>
<path d="M108.612 163.752C108.612 163.752 118.863 196.123 125.86 198.28C132.856 200.438 150.653 173.688 150.653 173.688C150.653 173.688 166.64 173.538 167.354 172.447C168.068 171.357 163.204 160.082 162.039 160.071C160.875 160.06 146.945 165.304 146.419 166.188C145.893 167.072 129.905 182.373 129.171 181.921C128.437 181.469 122.358 162.231 122.358 162.231L108.612 163.752Z" fill="#B97964"/>
<path d="M152.764 171.943C152.892 171.917 153.018 171.884 153.142 171.845L152.959 171.727C152.9 171.804 152.835 171.876 152.764 171.943Z" fill="#B97964"/>
<path d="M102.791 160.019L104.041 162.317L109.873 173.107L111.091 175.341L127.466 169.643C127.466 169.643 120.653 144.199 118.292 141.589L102.791 160.019Z" fill="#1DA6D6"/>
<path opacity="0.4" d="M102.791 160.019L104.041 162.317L109.873 173.107L111.091 175.341L127.466 169.643C127.466 169.643 120.653 144.199 118.292 141.589L102.791 160.019Z" fill="white"/>
<path opacity="0.2" d="M104.042 162.317L109.873 173.107C113.486 166.018 112.442 156.311 112.442 156.311L104.042 162.317Z" fill="black"/>
<path d="M118.292 141.6C115.207 138.034 111.43 135.134 107.189 133.075C102.949 131.017 98.3354 129.843 93.6278 129.625C77.5866 128.869 72.5419 130.466 66.6775 135.71C58.1073 143.372 47.4455 209.332 47.4455 209.332C63.0865 213.69 79.3346 215.458 95.546 214.565C95.546 214.565 95.7395 196.221 101.529 183.91C108.049 170.195 113.649 156.06 118.292 141.6Z" fill="#1DA6D6"/>
<path opacity="0.4" d="M47.4464 209.33C63.0874 213.689 79.335 215.46 95.5468 214.574C95.5468 214.574 95.5468 212.308 95.8591 208.845C95.9884 207.204 96.1803 205.284 96.4517 203.212C96.7231 201.14 97.1101 198.777 97.53 196.425C97.7893 195.163 98.092 193.889 98.4132 192.627C99.1654 189.63 100.19 186.708 101.475 183.898C102.186 182.387 102.876 180.887 103.545 179.42C104.698 176.848 105.798 174.357 106.779 171.975C108.934 166.958 110.767 162.372 112.298 158.358C113.376 155.476 114.346 152.898 115.134 150.686C116.006 148.214 116.697 146.185 117.203 144.675C117.861 142.679 118.184 141.589 118.184 141.589C117.648 140.918 117.072 140.28 116.459 139.679C110.443 133.743 102.489 130.18 94.0582 129.644H93.5211C81.296 129.073 75.4645 129.86 70.786 132.59C69.2775 133.493 67.8653 134.549 66.5716 135.741C65.3541 137.06 64.3959 138.598 63.7469 140.273C61.7533 144.909 60.116 149.692 58.8492 154.578L58.1378 157.199C57.0595 161.203 56.0463 165.465 55.0764 169.782C54.7962 171.011 54.5272 172.242 54.2574 173.461C53.856 175.339 53.4593 177.205 53.0819 179.05C52.112 183.701 51.2353 188.212 50.4733 192.268C49.395 198.095 48.5222 202.972 48.0052 206.004C47.6511 208.143 47.4464 209.33 47.4464 209.33ZM94.5552 130.238C95.6368 130.265 96.7163 130.348 97.7893 130.486C102.102 131.069 108.731 134.533 108.569 136.173C108.407 137.813 105.885 142 99.4385 140.985C97.1925 140.57 95.0609 139.68 93.1863 138.374C89.6286 136.022 87.0416 132.84 86.7831 131.804C86.4619 130.563 90.6419 130.142 94.5657 130.261L94.5552 130.238Z" fill="white"/>
<path d="M80.7348 152.228C80.7348 152.228 72.24 172.802 70.4937 189.908L93.4664 192.842C93.4664 192.842 103.772 165.035 105.906 156.339C105.906 156.317 87.5587 154.483 80.7348 152.228Z" fill="#1DA6D6"/>
<path opacity="0.4" d="M101.422 157.126L104.613 157.44L102.274 159.252L101.422 157.126Z" fill="white"/>
<path d="M88.9164 131.855C90.6515 136.818 97.106 139.088 100.493 139.41C101.74 139.607 103.017 139.388 104.127 138.788C105.237 138.187 106.12 137.238 106.638 136.086C106.638 136.086 102.769 134.158 103.157 131.988C103.431 130.661 103.974 129.405 104.752 128.297C105.155 127.665 105.594 127.056 106.067 126.475L99.8688 113.17C98.4886 118.929 94.2525 129.999 88.9164 131.855Z" fill="#B97964"/>
<path opacity="0.2" d="M99.6215 119.307C96.6677 125.781 100.84 130.236 103.154 131.943C103.428 130.616 103.971 129.36 104.75 128.252L99.6215 119.307Z" fill="black"/>
<path d="M120.405 102.032C120.405 102.032 122.389 112.995 116.675 117.386C110.962 121.777 110.38 101.298 110.38 101.298L120.405 102.032Z" fill="#B97964"/>
<path opacity="0.4" d="M120.405 102.032C120.405 102.032 122.389 112.995 116.675 117.386C110.962 121.777 110.38 101.298 110.38 101.298L120.405 102.032Z" fill="black"/>
<path d="M99.9772 126.612C101.251 128.389 103.073 129.699 105.162 130.341C107.252 130.982 109.494 130.919 111.544 130.162C114.222 129.221 116.44 127.291 117.742 124.767C117.925 124.432 118.088 124.065 118.249 123.687C120.923 116.879 121.483 100.262 114.282 100.877C108.331 101.384 102.51 99.5501 99.4698 104.696C98.6019 106.161 98.0921 107.81 97.982 109.509C97.3357 117.451 96.5809 122.058 99.9772 126.612Z" fill="#B97964"/>
<path d="M109.549 113.437C109.42 114.063 109.721 114.635 110.142 114.7C110.563 114.765 110.972 114.279 111.069 113.621C111.165 112.962 110.885 112.422 110.476 112.369C110.067 112.315 109.647 112.79 109.549 113.437Z" fill="#263238"/>
<path d="M116.758 114.462C116.629 115.088 116.941 115.66 117.35 115.724C117.76 115.788 118.181 115.304 118.267 114.645C118.353 113.986 118.095 113.447 117.674 113.383C117.253 113.318 116.848 113.858 116.758 114.462Z" fill="#263238"/>
<path d="M114.419 114.451C114.905 116.51 115.67 118.492 116.694 120.343C116.211 120.594 115.679 120.736 115.135 120.761C114.591 120.785 114.049 120.69 113.546 120.482L114.419 114.451Z" fill="#A24E3F"/>
<path d="M107.652 110.783C107.718 110.803 107.788 110.805 107.855 110.788C107.921 110.77 107.981 110.735 108.03 110.686C108.36 110.346 108.764 110.087 109.211 109.93C109.658 109.773 110.136 109.721 110.606 109.78C110.705 109.8 110.807 109.78 110.892 109.726C110.976 109.671 111.036 109.586 111.059 109.488C111.069 109.44 111.069 109.39 111.059 109.341C111.051 109.292 111.032 109.246 111.004 109.205C110.977 109.163 110.942 109.127 110.901 109.099C110.859 109.071 110.812 109.053 110.763 109.044C110.178 108.958 109.58 109.011 109.018 109.198C108.456 109.386 107.947 109.703 107.529 110.123C107.46 110.196 107.421 110.292 107.421 110.393C107.421 110.493 107.46 110.59 107.529 110.662C107.565 110.708 107.606 110.749 107.652 110.783Z" fill="#263238"/>
<path d="M120.213 112.413C120.282 112.44 120.359 112.44 120.428 112.413C120.501 112.394 120.566 112.353 120.614 112.295C120.662 112.238 120.69 112.166 120.695 112.091C120.699 112.042 120.693 111.992 120.676 111.946C120.505 111.37 120.199 110.844 119.782 110.413C119.366 109.981 118.851 109.655 118.283 109.464C118.235 109.449 118.185 109.444 118.136 109.45C118.087 109.455 118.039 109.47 117.996 109.494C117.952 109.518 117.914 109.551 117.884 109.59C117.854 109.63 117.832 109.675 117.819 109.723C117.793 109.819 117.805 109.921 117.853 110.008C117.902 110.095 117.982 110.16 118.078 110.187C118.524 110.351 118.926 110.617 119.252 110.964C119.578 111.31 119.818 111.728 119.954 112.184C119.976 112.24 120.011 112.29 120.056 112.329C120.1 112.37 120.154 112.398 120.213 112.413Z" fill="#263238"/>
<path d="M108.547 120.764C108.547 120.764 109.872 123.613 112.579 123.505" stroke="#263238" stroke-width="0.486" stroke-linecap="round" stroke-linejoin="round"/>
<path d="M105.109 100.596L105.216 104.115C104.602 104.338 104.094 104.786 103.796 105.369C103.498 105.951 103.432 106.625 103.61 107.255C104.451 110.276 102.371 114.657 99.9668 116.256C99.9668 116.256 99.9668 114.983 98.8885 115.177C97.8102 115.37 97.477 121.996 99.2554 125.33C99.2554 125.33 95.4505 121.823 94.3184 114.734C93.2401 108.185 93.4448 104.031 94.3184 100.89L105.109 100.596Z" fill="#B97964"/>
<path opacity="0.4" d="M105.109 100.596L105.216 104.115C104.602 104.338 104.094 104.786 103.796 105.369C103.498 105.951 103.432 106.625 103.61 107.255C104.451 110.276 102.371 114.657 99.9668 116.256C99.9668 116.256 99.9668 114.983 98.8885 115.177C97.8102 115.37 97.477 121.996 99.2554 125.33C99.2554 125.33 95.4505 121.823 94.3184 114.734C93.2401 108.185 93.4448 104.031 94.3184 100.89L105.109 100.596Z" fill="black"/>
<path d="M93.713 104.815C97.56 105.192 101.443 104.955 105.215 104.113C116.071 101.955 120.696 105.947 120.696 105.947C121.447 105.271 122.039 104.436 122.429 103.503C122.818 102.57 122.996 101.562 122.949 100.552C122.637 97.4228 118.292 96.894 118.292 96.894C118.292 96.894 116.988 93.3659 114.11 92.2978C111.232 91.2297 108.343 93.9051 108.343 93.9051C108.343 93.9051 104.753 90.4309 100.571 91.4234C99.1624 91.7125 97.8961 92.477 96.9837 93.5888C96.0712 94.7007 95.5679 96.0924 95.5581 97.5313C95.5581 97.5313 90.6531 98.0272 90.7607 100.552C90.8683 103.077 93.713 104.815 93.713 104.815Z" fill="#263238"/>
<path d="M110.391 118.034C112.338 118.034 113.916 116.213 113.916 113.965C113.916 111.718 112.339 109.898 110.391 109.898C108.443 109.898 106.865 111.719 106.865 113.965C106.865 116.212 108.443 118.034 110.391 118.034Z" stroke="#263238" stroke-width="0.486" stroke-linecap="round" stroke-linejoin="round"/>
<path d="M122.774 114.569C122.677 115.245 122.388 115.878 121.942 116.394C121.495 116.91 120.91 117.286 120.256 117.478C119.602 117.671 118.906 117.671 118.252 117.479C117.597 117.287 117.012 116.911 116.565 116.395C116.118 115.88 115.829 115.247 115.732 114.571C115.634 113.896 115.733 113.206 116.015 112.585C116.298 111.964 116.753 111.438 117.326 111.068C117.9 110.699 118.567 110.502 119.249 110.501C120.253 110.578 121.186 111.049 121.846 111.81C122.506 112.572 122.839 113.563 122.774 114.569Z" stroke="#263238" stroke-width="0.486" stroke-linecap="round" stroke-linejoin="round"/>
<path d="M113.904 114.451C113.904 114.451 115.048 113.739 115.726 114.569" stroke="#263238" stroke-width="0.486" stroke-linecap="round" stroke-linejoin="round"/>
<path d="M106.865 113.965L100.689 113.134C99.879 113.03 99.0611 113.251 98.414 113.749L98.1442 113.965" stroke="#263238" stroke-width="0.486" stroke-linecap="round" stroke-linejoin="round"/>
<path d="M93.6495 115.455C94.269 117.353 95.6135 118.928 97.3895 119.836C99.7508 121.013 101.432 119.027 101.195 116.535C100.979 114.312 99.5027 110.967 96.8836 110.838C96.3245 110.819 95.7694 110.94 95.2688 111.19C94.7681 111.44 94.3377 111.811 94.0166 112.269C93.6954 112.728 93.4936 113.26 93.4295 113.816C93.3655 114.372 93.4411 114.936 93.6495 115.455Z" fill="#B97964"/>
<path opacity="0.2" d="M54.259 173.495C64.4358 169.266 72.4777 151.796 72.4777 151.796L66.6968 148.3L58.8492 154.612L58.137 157.234C57.0587 161.238 56.0495 165.5 55.0763 169.816C54.7977 171.046 54.5287 172.276 54.259 173.495Z" fill="black"/>
<path d="M110.305 175.35L127.855 168.897L128.362 170.387L110.801 176.647L110.305 175.35Z" fill="#1DA6D6"/>
<path d="M64.8365 219.754L13.9644 211.681L8.98636 243.087L59.8584 251.161L64.8365 219.754Z" fill="#1DA6D6"/>
<path d="M31.9551 223.638L21.6169 229.003L29.7881 237.301" stroke="white" stroke-width="1.946" stroke-linecap="round" stroke-linejoin="round"/>
<path d="M41.8292 239.208L52.157 233.845L43.9963 225.547" stroke="white" stroke-width="1.946" stroke-linecap="round" stroke-linejoin="round"/>
<path d="M33.3891 237.869L40.396 224.975" stroke="white" stroke-width="1.946" stroke-linecap="round" stroke-linejoin="round"/>
<path d="M60.6091 138.525C60.6091 138.525 41.431 157.783 38.8255 161.529C36.2201 165.275 31.2148 206.783 31.2148 206.783C31.2148 206.783 30.1365 207.15 30.0723 208.046C30.008 208.941 29.8996 220.595 30.0723 221.134C30.2449 221.674 39.0648 227.123 40.3671 225.828C41.6694 224.532 43.4824 211.337 43.4824 211.337L38.8255 206.783C38.8255 206.783 44.2154 176.215 47.6326 171.261C51.0498 166.307 64.9754 155.713 64.9754 155.713L60.6091 138.525Z" fill="#B97964"/>
<path d="M75.3449 130.766C78.1374 136.689 76.0137 149.164 70.8606 153.565C65.4085 158.091 59.6449 162.226 53.6126 165.942L44.2122 153.608C44.2122 153.608 54.2156 143.832 60.2743 138.2C64.3949 134.202 69.6669 131.601 75.3449 130.766Z" fill="#1DA6D6"/>
<path opacity="0.4" d="M75.3449 130.766C78.1374 136.689 76.0137 149.164 70.8606 153.565C65.4085 158.091 59.6449 162.226 53.6126 165.942L44.2122 153.608C44.2122 153.608 54.2156 143.832 60.2743 138.2C64.3949 134.202 69.6669 131.601 75.3449 130.766Z" fill="white"/>
<path d="M44.2122 152.822L43.0472 154.408L52.8683 167.259L54.2582 166.266L44.2122 152.822Z" fill="#1DA6D6"/>
<path opacity="0.2" d="M433.644 365.178L425.771 364.335L426.429 367.605L433.531 366.892L433.644 365.178Z" fill="black"/>
<path opacity="0.2" d="M476.176 365.525L468.877 366.509L469.665 368.567L476.236 366.509L476.176 365.525Z" fill="black"/>
</svg>
