<svg width="41" height="41" viewBox="0 0 41 41" fill="none" xmlns="http://www.w3.org/2000/svg">
<path d="M39.4127 14.0837C42.8568 24.6709 37.0653 36.0422 26.4781 39.4863C15.8909 42.9304 4.51958 37.1389 1.07548 26.5517C-2.36862 15.9645 3.42285 4.59316 14.0101 1.14906C16.0256 0.494877 18.1324 0.158157 20.2489 0.158157C28.9794 0.162968 36.7142 5.78128 39.4127 14.0837ZM20.2489 1.97641C10.1186 1.99084 1.91726 10.2115 1.93169 20.3465C1.94612 30.4768 10.1667 38.6782 20.3018 38.6638C30.4321 38.6493 38.6335 30.4287 38.619 20.2936C38.6142 18.3744 38.3112 16.4695 37.7195 14.6465C35.2615 7.08003 28.205 1.96198 20.2489 1.97641Z" fill="white"/>
<path fill-rule="evenodd" clip-rule="evenodd" d="M23.544 13.3718C24.203 13.3718 24.886 13.3718 25.5209 13.3718H25.7903V9.94699C25.4392 9.94699 25.0784 9.86522 24.7032 9.84116C24.0298 9.84116 23.3612 9.84116 22.6877 9.84116C21.668 9.83635 20.6771 10.149 19.8401 10.7262C18.9117 11.4093 18.296 12.4339 18.1325 13.5739C18.0555 14.026 18.0122 14.483 17.9978 14.9448C17.9978 15.7096 17.9978 16.4744 17.9978 17.2441V17.6337H14.7317V21.4482H17.9689V31.0301H21.9999V21.4097H25.2371L25.6268 17.6337H21.8652C21.8652 17.6337 21.8652 15.7385 21.8652 14.9448C21.971 13.7326 22.6445 13.3959 23.544 13.3718Z" fill="white"/>
</svg>
