<svg width="15" height="17" viewBox="0 0 15 17" fill="none" xmlns="http://www.w3.org/2000/svg">
<g clip-path="url(#clip0_132_1365)">
<path d="M6.38085 12.4274C6.09565 12.4274 5.82553 12.3162 5.65244 12.1244L3.30985 9.53787C3.23742 9.45799 3.18455 9.36697 3.15425 9.27C3.12394 9.17303 3.11681 9.07202 3.13325 8.97275C3.14969 8.87348 3.18938 8.77788 3.25006 8.69144C3.31074 8.60499 3.39121 8.52939 3.48687 8.46895C3.5825 8.40825 3.69153 8.36393 3.80769 8.33851C3.92386 8.31309 4.04489 8.30708 4.16384 8.32083C4.28279 8.33457 4.39733 8.36779 4.50089 8.41859C4.60445 8.4694 4.69499 8.53678 4.76733 8.61688L6.30873 10.3175L10.1842 5.11698C10.3127 4.94527 10.5175 4.82318 10.7536 4.77747C10.9897 4.73176 11.2379 4.76618 11.4437 4.87317C11.8718 5.09561 12.0036 5.5668 11.7361 5.92511L7.15712 12.0669C7.07895 12.1722 6.97121 12.26 6.84325 12.3226C6.71529 12.3853 6.57096 12.4209 6.42281 12.4263C6.40838 12.4274 6.39527 12.4274 6.38085 12.4274Z" fill="#181059"/>
</g>
<defs>
<clipPath id="clip0_132_1365">
<rect width="9.3" height="7.97647" fill="white" transform="translate(2.84961 4.60435)"/>
</clipPath>
</defs>
</svg>
