<svg width="300" height="54" viewBox="0 0 300 54" fill="none" xmlns="http://www.w3.org/2000/svg">
<g clip-path="url(#clip0_192_741)">
<mask id="mask0_192_741" style="mask-type:luminance" maskUnits="userSpaceOnUse" x="0" y="0" width="300" height="54">
<path d="M300 0.819214H0.374023V53.8192H300V0.819214Z" fill="white"/>
</mask>
<g mask="url(#mask0_192_741)">
<path d="M105.356 46.1472C104.597 46.1472 103.856 46.3722 103.225 46.7937C102.594 47.2152 102.102 47.8143 101.812 48.5152C101.522 49.2162 101.446 49.9875 101.594 50.7316C101.742 51.4757 102.107 52.1592 102.644 52.6957C103.18 53.2321 103.864 53.5975 104.608 53.7455C105.352 53.8935 106.123 53.8175 106.824 53.5272C107.525 53.2369 108.124 52.7452 108.546 52.1144C108.967 51.4836 109.192 50.7419 109.192 49.9832C109.192 48.9658 108.788 47.9901 108.068 47.2708C107.349 46.5514 106.373 46.1472 105.356 46.1472Z" fill="white"/>
<path d="M71.1199 46.1472C70.3612 46.1472 69.6196 46.3722 68.9888 46.7937C68.3579 47.2152 67.8663 47.8143 67.5759 48.5152C67.2856 49.2162 67.2096 49.9875 67.3576 50.7316C67.5057 51.4757 67.871 52.1592 68.4075 52.6957C68.944 53.2321 69.6274 53.5975 70.3716 53.7455C71.1157 53.8935 71.887 53.8175 72.5879 53.5272C73.2889 53.2369 73.888 52.7452 74.3095 52.1144C74.731 51.4836 74.9559 50.7419 74.9559 49.9832C74.9559 48.9658 74.5518 47.9901 73.8324 47.2708C73.113 46.5514 72.1373 46.1472 71.1199 46.1472Z" fill="white"/>
<path d="M109.395 24.2252L106.064 31.3612H70.501L73.828 24.2252L81.413 7.95621H73.613L76.34 2.11021L76.94 0.821213H92.62L89.291 7.95921L81.704 24.2282L109.395 24.2252Z" fill="white"/>
<path d="M116.998 12.8072H89.3049L85.9779 19.9422H113.671L106.083 36.2102H68.7779L65.4519 43.3422V43.3482H110.627L113.955 36.2102L121.54 19.9422L124.868 12.8072H116.998Z" fill="white"/>
<path d="M81.2431 7.95422H73.6111L76.3381 2.10822L81.2431 7.95422Z" fill="white"/>
<path d="M72.988 10.8962L70.308 16.6482L52.686 15.9382L46.614 15.6962L0.374023 13.8342L46.674 11.9612L54.699 11.6362L72.988 10.8962Z" fill="white"/>
<path d="M50.3871 40.7172L59.2491 40.3622L58.0921 42.8422C48.0348 42.4356 37.9748 42.0302 27.9121 41.6262L50.3871 40.7172Z" fill="white"/>
<path d="M63.819 30.5632L62.172 34.0922L19.187 32.3602L63.819 30.5632Z" fill="white"/>
<path d="M68.41 20.7152L66.236 25.3902L9.34497 23.0962L68.41 20.7152Z" fill="white"/>
<path d="M99.7439 5.13221C99.7146 5.1322 99.6857 5.12607 99.6589 5.11421L98.9699 4.80421C98.9198 4.78167 98.8806 4.74013 98.8611 4.68875C98.8416 4.63736 98.8434 4.58033 98.8659 4.53021C98.8884 4.48008 98.93 4.44096 98.9813 4.42146C99.0327 4.40196 99.0898 4.40367 99.1399 4.42621L99.8299 4.73621C99.8759 4.75385 99.9142 4.78735 99.9377 4.83068C99.9612 4.874 99.9685 4.9243 99.9583 4.97252C99.948 5.02075 99.9209 5.06373 99.8818 5.09374C99.8427 5.12375 99.7941 5.13881 99.7449 5.13621" fill="white"/>
<path d="M99.0641 3.61521C99.0159 3.61479 98.9694 3.5976 98.9326 3.5666C98.8958 3.53561 98.8709 3.49274 98.8622 3.44538C98.8536 3.39802 98.8617 3.34913 98.8853 3.30712C98.9088 3.26511 98.9462 3.23261 98.9911 3.21521L99.6981 2.94821C99.7237 2.93725 99.7514 2.9316 99.7793 2.93159C99.8073 2.93159 99.8349 2.93725 99.8606 2.94821C99.8863 2.95917 99.9095 2.97521 99.9288 2.99537C99.9481 3.01554 99.9631 3.0394 99.973 3.06553C99.9829 3.09166 99.9873 3.11951 99.9861 3.14741C99.9849 3.17531 99.9781 3.20268 99.9661 3.22788C99.954 3.25307 99.937 3.27557 99.9161 3.29401C99.8951 3.31246 99.8706 3.32647 99.8441 3.33521L99.1371 3.60221C99.1137 3.61105 99.089 3.61546 99.0641 3.61521Z" fill="white"/>
<path d="M98.216 2.75122C98.1813 2.75134 98.1471 2.74272 98.1166 2.72615C98.086 2.70959 98.0602 2.68561 98.0414 2.65643C98.0225 2.62724 98.0113 2.59379 98.0088 2.55915C98.0063 2.52452 98.0126 2.48981 98.027 2.45822L98.34 1.76922C98.3631 1.7199 98.4047 1.68168 98.4558 1.66283C98.5069 1.64398 98.5634 1.64603 98.613 1.66853C98.6626 1.69102 98.7013 1.73215 98.7208 1.78301C98.7403 1.83387 98.7389 1.89035 98.717 1.94022L98.404 2.62922C98.3876 2.66561 98.3611 2.69649 98.3275 2.71813C98.294 2.73978 98.2549 2.75127 98.215 2.75122" fill="white"/>
<path d="M97.006 2.73821C96.9638 2.7382 96.9226 2.72526 96.8879 2.70112C96.8532 2.67699 96.8267 2.64282 96.812 2.60321L96.547 1.89421C96.5375 1.86874 96.5331 1.84163 96.5341 1.81445C96.535 1.78727 96.5413 1.76055 96.5526 1.7358C96.5639 1.71105 96.5799 1.68877 96.5998 1.67023C96.6197 1.65168 96.643 1.63723 96.6685 1.62771C96.694 1.61819 96.7211 1.61378 96.7483 1.61474C96.7755 1.61569 96.8022 1.62199 96.8269 1.63327C96.8517 1.64455 96.874 1.6606 96.8925 1.68049C96.9111 1.70039 96.9255 1.72374 96.935 1.74921L97.2 2.45721C97.2191 2.50854 97.2172 2.56535 97.1945 2.61521C97.1718 2.66507 97.1303 2.70391 97.079 2.72321C97.0557 2.73186 97.0309 2.73627 97.006 2.73621" fill="white"/>
<path d="M96.1391 3.58222C96.1094 3.58236 96.08 3.57586 96.0531 3.56322L95.3661 3.24822C95.34 3.23785 95.3163 3.22228 95.2964 3.20247C95.2766 3.18266 95.2609 3.15901 95.2505 3.13296C95.24 3.10692 95.235 3.07902 95.2357 3.05097C95.2363 3.02291 95.2427 2.99529 95.2544 2.96977C95.266 2.94425 95.2828 2.92137 95.3036 2.90252C95.3244 2.88367 95.3488 2.86925 95.3753 2.86012C95.4018 2.851 95.43 2.84737 95.4579 2.84945C95.4859 2.85153 95.5132 2.85927 95.5381 2.87222L96.2251 3.18722C96.2713 3.20487 96.3096 3.23845 96.3332 3.28189C96.3567 3.32533 96.364 3.37577 96.3536 3.42408C96.3432 3.4724 96.3158 3.5154 96.2765 3.54532C96.2372 3.57524 96.1884 3.5901 96.1391 3.58722" fill="white"/>
<path d="M93.728 7.11521L97.743 3.66521L97.75 8.93221L96.45 7.92421L95.265 10.5462L94.741 10.3092L94.216 10.0722L95.401 7.44921L93.728 7.11521Z" fill="white"/>
<path d="M131.403 37.5562V40.8452H135.312V41.7672H131.403V45.2082H136.137V46.1442H130.343V36.6212H136.137V37.5572L131.403 37.5562Z" fill="white"/>
<path d="M147.326 45.1942V46.1442H142.083V36.6212H143.143V45.1952L147.326 45.1942Z" fill="white"/>
<path d="M153.863 37.5562V40.8452H157.772V41.7672H153.863V45.2082H158.597V46.1442H152.803V36.6212H158.597V37.5572L153.863 37.5562Z" fill="white"/>
<path d="M165.437 45.7382C164.9 45.355 164.518 44.7909 164.363 44.1492C163.978 42.3274 163.978 40.4451 164.363 38.6232C164.514 37.9821 164.887 37.4152 165.416 37.0232C166.074 36.6208 166.841 36.4312 167.611 36.4802C168.477 36.4933 169.339 36.5938 170.185 36.7802L170.144 37.6752C169.355 37.5237 168.554 37.4407 167.75 37.4272C167.182 37.3896 166.616 37.5241 166.126 37.8132C165.729 38.117 165.462 38.559 165.376 39.0512C165.221 39.8673 165.154 40.6978 165.176 41.5282C165.157 42.2661 165.22 43.0039 165.362 43.7282C165.456 44.2105 165.729 44.6394 166.126 44.9282C166.655 45.2355 167.264 45.377 167.874 45.3342C168.637 45.3205 169.397 45.2375 170.145 45.0862L170.186 45.9942C169.364 46.1729 168.527 46.2697 167.686 46.2832C166.901 46.3316 166.119 46.1421 165.443 45.7392" fill="white"/>
<path d="M177.987 37.5682H175.056V36.6182H181.934V37.5682H179.034V46.1422H177.988L177.987 37.5682Z" fill="white"/>
<path d="M187.415 36.6202H190.938C191.762 36.5563 192.579 36.81 193.222 37.3292C193.493 37.62 193.701 37.9642 193.831 38.3398C193.961 38.7154 194.012 39.114 193.979 39.5102C194.059 40.1031 193.927 40.7052 193.608 41.2109C193.288 41.7166 192.801 42.0937 192.231 42.2762L194.062 46.1432H192.892L191.172 42.4962H188.472V46.1432H187.412L187.415 36.6202ZM190.952 41.5612C191.483 41.5594 191.99 41.3469 192.364 40.9705C192.738 40.5941 192.947 40.0846 192.945 39.5542C192.943 39.0238 192.731 38.5158 192.354 38.1421C191.978 37.7683 191.469 37.5594 190.938 37.5612H188.474V41.5612H190.952Z" fill="white"/>
<path d="M201.163 45.7722C200.596 45.4104 200.178 44.8557 199.986 44.2102C199.517 42.3772 199.519 40.4551 199.993 38.6232C200.186 37.9641 200.606 37.3941 201.177 37.0132C201.864 36.6651 202.623 36.4837 203.393 36.4837C204.163 36.4837 204.922 36.6651 205.608 37.0132C206.18 37.3951 206.601 37.9644 206.798 38.6232C207.28 40.4657 207.284 42.4004 206.812 44.2452C206.623 44.8841 206.207 45.4319 205.642 45.7862C204.955 46.1516 204.182 46.3244 203.405 46.2862C202.625 46.3257 201.849 46.1496 201.162 45.7772M205.022 44.9652C205.427 44.6692 205.711 44.2365 205.822 43.7472C206 42.997 206.079 42.2268 206.056 41.4562C206.077 40.6737 205.996 39.8918 205.815 39.1302C205.698 38.6198 205.409 38.1653 204.996 37.8432C204.517 37.5372 203.954 37.3902 203.386 37.4232C202.82 37.3904 202.257 37.5347 201.776 37.8362C201.362 38.1545 201.073 38.6072 200.957 39.1162C200.639 40.6328 200.637 42.1987 200.95 43.7162C201.062 44.2155 201.354 44.6564 201.769 44.9552C202.263 45.2433 202.83 45.3797 203.4 45.3472C203.965 45.3807 204.528 45.2468 205.017 44.9622" fill="white"/>
<path d="M220.196 36.6202V46.1442H218.256L214.556 37.5562H214.294V46.1442H213.234V36.6202H215.216L218.877 45.2082H219.152V36.6202H220.196Z" fill="white"/>
<path d="M227.724 36.6202H226.664V46.1432H227.724V36.6202Z" fill="white"/>
<path d="M235.183 45.7382C234.645 45.3551 234.264 44.7909 234.109 44.1492C233.723 42.3274 233.723 40.4451 234.109 38.6232C234.26 37.9821 234.633 37.4152 235.162 37.0232C235.82 36.6209 236.587 36.4313 237.357 36.4802C238.223 36.4933 239.085 36.5938 239.931 36.7802L239.89 37.6752C239.101 37.5237 238.3 37.4408 237.496 37.4272C236.928 37.3896 236.362 37.5241 235.872 37.8132C235.475 38.117 235.208 38.559 235.122 39.0512C234.967 39.8674 234.9 40.6978 234.922 41.5282C234.903 42.2662 234.966 43.0039 235.108 43.7282C235.201 44.2106 235.474 44.6395 235.872 44.9282C236.401 45.2355 237.01 45.377 237.62 45.3342C238.382 45.3204 239.142 45.2374 239.89 45.0862L239.931 45.9942C239.109 46.1729 238.272 46.2697 237.431 46.2832C236.646 46.3316 235.864 46.142 235.188 45.7392" fill="white"/>
<path d="M262.17 36.6202V46.1442H261.11V37.7442H260.917L258.151 45.7952H256.967L254.201 37.7442H254.008V46.1442H252.948V36.6202H254.861L257.561 44.6852L260.261 36.6202H262.17Z" fill="white"/>
<path d="M269.78 45.7722C269.212 45.4104 268.794 44.8557 268.603 44.2102C268.133 42.3772 268.136 40.455 268.61 38.6232C268.803 37.964 269.222 37.394 269.794 37.0132C270.481 36.6651 271.24 36.4837 272.01 36.4837C272.779 36.4837 273.538 36.6651 274.225 37.0132C274.797 37.395 275.218 37.9644 275.415 38.6232C275.897 40.4657 275.901 42.4004 275.429 44.2452C275.239 44.884 274.823 45.4318 274.259 45.7862C273.572 46.1516 272.799 46.3244 272.022 46.2862C271.242 46.3257 270.466 46.1496 269.779 45.7772M273.639 44.9652C274.046 44.6699 274.332 44.2372 274.444 43.7472C274.622 42.997 274.7 42.2268 274.678 41.4562C274.699 40.6737 274.618 39.8918 274.437 39.1302C274.32 38.6198 274.031 38.1653 273.618 37.8432C273.139 37.5372 272.576 37.3902 272.008 37.4232C271.442 37.3903 270.879 37.5347 270.398 37.8362C269.984 38.1544 269.695 38.6071 269.579 39.1162C269.261 40.6328 269.258 42.1987 269.572 43.7162C269.684 44.2155 269.976 44.6563 270.391 44.9552C270.884 45.2434 271.452 45.3797 272.022 45.3472C272.587 45.3808 273.15 45.2469 273.639 44.9622" fill="white"/>
<path d="M287.093 45.1942V46.1442H281.85V36.6212H282.91V45.1952L287.093 45.1942Z" fill="white"/>
<path d="M293.63 37.5562V40.8452H297.539V41.7672H293.63V45.2082H298.364V46.1442H292.57V36.6212H298.364V37.5572L293.63 37.5562Z" fill="white"/>
<path d="M132.803 20.6632H131.629C131.515 20.6613 131.401 20.6824 131.295 20.7253C131.188 20.7683 131.092 20.8322 131.011 20.9132C130.929 20.9899 130.864 21.0829 130.82 21.1862C130.776 21.2895 130.754 21.4009 130.755 21.5132V25.7532C130.765 25.9249 130.822 26.0906 130.92 26.2318C131.018 26.3731 131.154 26.4843 131.311 26.5532C131.413 26.5923 131.521 26.6123 131.63 26.6122H135.708C135.82 26.6138 135.931 26.5924 136.034 26.5494C136.137 26.5064 136.23 26.4427 136.308 26.3622C136.396 26.288 136.465 26.1949 136.512 26.09C136.558 25.985 136.58 25.8709 136.576 25.7562V21.5132C136.577 21.2403 136.636 20.9708 136.751 20.7232C136.865 20.4712 137.027 20.2442 137.229 20.0552C137.434 19.8637 137.674 19.713 137.935 19.6112C138.204 19.505 138.492 19.451 138.781 19.4522C139.076 19.4548 139.367 19.5174 139.636 19.6362C139.904 19.7465 140.15 19.9029 140.364 20.0982C140.557 20.2769 140.709 20.4953 140.81 20.7382C140.845 20.7985 140.875 20.8621 140.897 20.9282C140.91 20.9722 140.926 21.0482 140.947 21.1562C140.969 21.2736 140.979 21.3928 140.978 21.5122V25.7652C140.975 25.8771 140.996 25.9884 141.039 26.0917C141.082 26.1951 141.147 26.2883 141.228 26.3652C141.314 26.4475 141.416 26.5111 141.528 26.5522C141.681 26.6002 141.84 26.6216 142 26.6152V27.8202C141.654 27.8294 141.309 27.7765 140.982 27.6642C140.721 27.5538 140.482 27.3973 140.276 27.2022C140.075 27.0143 139.914 26.7882 139.802 26.5372C139.697 26.2938 139.644 26.0313 139.646 25.7662V21.5132C139.649 21.4013 139.628 21.29 139.585 21.1867C139.542 21.0833 139.477 20.9902 139.396 20.9132C139.312 20.8319 139.212 20.7683 139.103 20.7262C139.012 20.6895 138.915 20.6682 138.816 20.6632H138.747C138.533 20.6669 138.329 20.7545 138.179 20.9072C138.093 20.984 138.025 21.079 137.979 21.1852C137.933 21.2884 137.908 21.4001 137.907 21.5132V25.7532C137.908 26.0291 137.849 26.3019 137.735 26.5532C137.624 26.8039 137.462 27.0287 137.259 27.2132C137.055 27.3984 136.821 27.5473 136.566 27.6532C136.431 27.7045 136.293 27.7443 136.151 27.7722C136.006 27.7983 135.859 27.8107 135.711 27.8092H131.633C131.332 27.8107 131.033 27.7558 130.752 27.6472C130.498 27.5293 130.263 27.3758 130.052 27.1912C129.856 27.002 129.699 26.7761 129.59 26.5262C129.486 26.2825 129.433 26.0202 129.434 25.7552V21.5132C129.434 21.4463 129.438 21.3795 129.447 21.3132C129.456 21.2492 129.466 21.1812 129.478 21.1132C129.505 20.9854 129.543 20.86 129.59 20.7382C129.706 20.4793 129.871 20.2458 130.077 20.0512C130.28 19.8605 130.518 19.7102 130.777 19.6082C131.049 19.5026 131.338 19.4497 131.63 19.4522H132.804L132.803 20.6632Z" fill="white"/>
<path d="M145.831 26.6212H141.765V27.8392H145.831V26.6212Z" fill="white"/>
<path d="M147.967 19.4632V25.7772C147.966 26.0478 147.907 26.3151 147.795 26.5612C147.684 26.8115 147.525 27.0375 147.327 27.2262C147.121 27.4185 146.881 27.5693 146.618 27.6702C146.357 27.7655 146.083 27.8201 145.806 27.8322H145.606V26.6262C145.882 26.6484 146.156 26.5607 146.368 26.3822C146.454 26.307 146.523 26.2133 146.568 26.1082C146.612 26.0034 146.634 25.8908 146.633 25.7772V19.4632H147.967ZM146.63 17.5212H147.967V18.7332H146.63V17.5212Z" fill="white"/>
<path d="M158.1 27.8202C158.101 28.0841 158.047 28.3454 157.944 28.5882C157.84 28.8341 157.68 29.0522 157.476 29.2252C157.274 29.4212 157.036 29.577 156.776 29.6842C155.726 29.845 154.661 29.8859 153.601 29.8062V28.5942C155.262 28.6062 156.143 28.5969 156.246 28.5662C156.347 28.5358 156.44 28.4835 156.518 28.4132C156.601 28.3391 156.668 28.2476 156.712 28.1451C156.756 28.0427 156.777 27.9318 156.774 27.8202V27.6792C156.681 27.6961 156.589 27.7191 156.499 27.7482L156.231 27.7982L155.931 27.8292H151.872C151.58 27.8336 151.29 27.7782 151.02 27.6662C150.767 27.557 150.533 27.4059 150.33 27.2192C150.13 27.0373 149.97 26.8162 149.859 26.5697C149.749 26.3231 149.69 26.0564 149.687 25.7862V21.5862C149.686 21.3242 149.739 21.0647 149.843 20.8242C149.953 20.575 150.112 20.3507 150.311 20.1652C150.514 19.9706 150.752 19.815 151.011 19.7062C151.284 19.5956 151.576 19.5406 151.87 19.5442H155.917C156.061 19.5433 156.206 19.5547 156.348 19.5782C156.488 19.603 156.624 19.6439 156.754 19.7002C157.018 19.8077 157.26 19.9599 157.472 20.1502C157.667 20.3345 157.823 20.5563 157.931 20.8022C158.044 21.0483 158.102 21.3156 158.103 21.5862L158.1 27.8202ZM151.276 20.9792C151.192 21.0559 151.125 21.1494 151.08 21.2537C151.035 21.358 151.013 21.4706 151.014 21.5842V25.7842C151.01 25.9014 151.034 26.0179 151.083 26.1242C151.135 26.2214 151.2 26.3107 151.277 26.3892C151.355 26.4659 151.448 26.5264 151.55 26.567C151.652 26.6077 151.76 26.6278 151.87 26.6262H155.917C156.022 26.6244 156.126 26.603 156.223 26.5632C156.331 26.5217 156.431 26.4603 156.517 26.3822C156.6 26.3065 156.666 26.2137 156.711 26.1101C156.755 26.0066 156.776 25.8948 156.773 25.7822V21.5822C156.775 21.4675 156.753 21.3537 156.708 21.2482C156.663 21.148 156.598 21.0577 156.518 20.9822C156.439 20.9035 156.346 20.8415 156.243 20.7997C156.14 20.758 156.029 20.7374 155.918 20.7392H151.871C151.761 20.7387 151.652 20.7577 151.549 20.7952C151.446 20.8336 151.352 20.8956 151.277 20.9762" fill="white"/>
<path d="M162.179 25.7772C162.177 25.8898 162.2 26.0015 162.247 26.104C162.293 26.2066 162.362 26.2975 162.448 26.3702C162.603 26.5191 162.808 26.6059 163.023 26.6142H163.204V27.8192C162.856 27.8462 162.507 27.797 162.18 27.6752V27.8002C162.18 28.0729 162.122 28.3424 162.008 28.5902C161.896 28.8432 161.734 29.0709 161.531 29.2599C161.329 29.4489 161.091 29.5952 160.831 29.6902C160.567 29.7905 160.289 29.8476 160.007 29.8592H159.826V28.6502C159.931 28.6539 160.035 28.6455 160.138 28.6252C160.2 28.6082 160.255 28.5922 160.3 28.5752C160.407 28.5337 160.506 28.4723 160.591 28.3942C160.668 28.3165 160.73 28.2253 160.775 28.1252C160.824 28.024 160.85 27.9128 160.85 27.8002V19.4512H162.18L162.179 25.7772Z" fill="white"/>
<path d="M167.082 26.6212H163.016V27.8392H167.082V26.6212Z" fill="white"/>
<path d="M168.568 27.2262C168.371 27.4086 168.142 27.5528 167.893 27.6512C167.568 27.7726 167.222 27.83 166.875 27.8202V26.6142C167.153 26.6346 167.429 26.5436 167.64 26.3612C167.723 26.2848 167.788 26.1919 167.833 26.0886C167.878 25.9853 167.9 25.8737 167.899 25.7612V19.4512H169.229V25.7652C169.229 25.8802 169.252 25.994 169.299 26.0994C169.345 26.2048 169.412 26.2994 169.497 26.3772C169.572 26.4574 169.664 26.5193 169.766 26.5582C169.924 26.6033 170.089 26.6223 170.253 26.6142V27.8192C169.905 27.8308 169.559 27.7712 169.235 27.6442C168.99 27.5442 168.765 27.4028 168.568 27.2262ZM166.937 17.5032H168.274V18.7152H166.937V17.5032ZM168.854 17.5032H170.196V18.7152H168.856L168.854 17.5032Z" fill="white"/>
<path d="M174.108 26.6212H170.042V27.8392H174.108V26.6212Z" fill="white"/>
<path d="M181.483 27.2262C181.287 27.4024 181.06 27.5419 180.815 27.6382C180.537 27.7512 180.24 27.8086 179.941 27.8072H173.659V26.6072H179.941C180.053 26.6075 180.164 26.5864 180.269 26.5452C180.424 26.4786 180.557 26.3703 180.653 26.2324C180.75 26.0945 180.806 25.9323 180.816 25.7642V24.3782C180.816 24.2666 180.792 24.1563 180.747 24.0542C180.702 23.9521 180.636 23.8605 180.554 23.7852C180.474 23.7036 180.379 23.6389 180.274 23.5949C180.169 23.5509 180.056 23.5286 179.942 23.5292H174.682V21.5132C174.68 21.2463 174.734 20.9819 174.838 20.7362C174.946 20.4875 175.103 20.2633 175.3 20.0772C175.508 19.8785 175.755 19.7234 176.024 19.6212C176.159 19.5723 176.297 19.5306 176.436 19.4962L176.661 19.4652L176.848 19.4522H180.864V20.6632H176.886C176.773 20.6656 176.661 20.6865 176.555 20.7252C176.452 20.767 176.359 20.8285 176.28 20.9062C176.195 20.9822 176.126 21.0756 176.08 21.1802C176.034 21.2847 176.011 21.3979 176.012 21.5122V22.3122H179.94C180.233 22.31 180.524 22.3671 180.795 22.4802C181.057 22.5901 181.3 22.7421 181.513 22.9302C181.702 23.1204 181.857 23.3424 181.969 23.5862C182.085 23.8344 182.145 24.1052 182.144 24.3792V25.7532C182.142 25.8741 182.168 25.9938 182.219 26.1032C182.264 26.2002 182.325 26.2888 182.4 26.3652C182.475 26.4435 182.565 26.506 182.665 26.549C182.765 26.5919 182.872 26.6144 182.981 26.6152H183.168V27.8212H182.987C182.701 27.8104 182.419 27.7554 182.15 27.6582C181.904 27.5548 181.678 27.4089 181.482 27.2272" fill="white"/>
<path d="M187.029 26.6212H182.963V27.8392H187.029V26.6212Z" fill="white"/>
<path d="M189.189 17.4032V25.7652C189.188 26.0358 189.13 26.3031 189.017 26.5492C188.904 26.8041 188.74 27.0337 188.536 27.2242C188.332 27.4169 188.095 27.5714 187.836 27.6802C187.511 27.8016 187.165 27.858 186.818 27.8462V26.6202C186.983 26.6273 187.148 26.6039 187.305 26.5512C187.406 26.5131 187.498 26.4533 187.574 26.3762C187.661 26.3001 187.73 26.2058 187.777 26.1001C187.823 25.9943 187.846 25.8797 187.843 25.7642V17.4032H189.189Z" fill="white"/>
<path d="M194.202 18.9022V26.6142H195.083C195.196 26.6173 195.309 26.5958 195.414 26.5512C195.515 26.5129 195.607 26.4532 195.683 26.3762C195.769 26.2999 195.838 26.2056 195.885 26.0999C195.931 25.9942 195.954 25.8796 195.951 25.7642V17.4032H197.302V25.7652C197.302 26.0379 197.244 26.3074 197.13 26.5552C197.016 26.8063 196.856 27.0339 196.659 27.2262C196.553 27.3268 196.439 27.4188 196.319 27.5012C196.202 27.5776 196.078 27.6406 195.947 27.6892C195.673 27.7978 195.38 27.8508 195.085 27.8452H190.902V26.6152H192.869V18.9022H194.202Z" fill="white"/>
<path d="M200.324 17.4222H198.994V27.8202H200.324V17.4222Z" fill="white"/>
<path d="M217.666 27.6702C217.617 27.6931 217.565 27.7118 217.513 27.7262C217.473 27.7359 217.435 27.7486 217.397 27.7642C217.209 27.8079 217.016 27.829 216.823 27.8272H212.775C212.584 27.8334 212.392 27.8122 212.207 27.7642C212.074 27.7222 211.978 27.6932 211.92 27.6762C211.66 27.5634 211.419 27.4094 211.208 27.2202C211.006 27.0373 210.846 26.8123 210.74 26.5612C210.637 26.317 210.583 26.0544 210.584 25.7892V21.5892C210.586 21.321 210.644 21.0562 210.753 20.8112C210.859 20.5611 211.014 20.3349 211.209 20.1462C211.428 19.962 211.672 19.8086 211.933 19.6902C212.065 19.6384 212.202 19.5995 212.342 19.5742C212.485 19.5505 212.631 19.5391 212.776 19.5402H216.829C217.048 19.5404 217.266 19.5742 217.475 19.6402C217.679 19.7039 217.874 19.7954 218.053 19.9122C218.227 20.0244 218.383 20.1611 218.518 20.3182C218.647 20.4688 218.753 20.6372 218.833 20.8182C218.954 21.0583 219.014 21.3245 219.008 21.5932V27.8192C219.01 28.0911 218.948 28.3596 218.827 28.6032C218.708 28.8439 218.548 29.0617 218.353 29.2462C218.152 29.4349 217.92 29.5862 217.666 29.6932H217.66C217.706 29.6722 217.66 29.6932 217.535 29.7432C217.532 29.7466 217.528 29.7487 217.523 29.7492L217.267 29.8622L217.204 29.8752H207.262C206.682 29.8741 206.124 29.6532 205.701 29.2572C205.502 29.0744 205.343 28.8523 205.235 28.6049C205.126 28.3576 205.07 28.0904 205.07 27.8202V21.5932C205.066 21.3235 205.121 21.0563 205.23 20.8095C205.339 20.5628 205.499 20.3424 205.701 20.1632C205.912 19.9737 206.153 19.8196 206.413 19.7072C206.682 19.5963 206.971 19.5412 207.262 19.5452H208.442V20.7572H207.262C207.15 20.7529 207.038 20.7711 206.933 20.8108C206.827 20.8505 206.731 20.9108 206.65 20.9882C206.576 21.0687 206.514 21.1605 206.469 21.2602C206.419 21.3646 206.394 21.4787 206.394 21.5942V27.8202C206.396 27.9362 206.423 28.0503 206.475 28.1542C206.519 28.2534 206.578 28.3451 206.65 28.4262C206.816 28.5809 207.035 28.6658 207.262 28.6632H216.842C217.058 28.6506 217.263 28.5649 217.423 28.4202C217.507 28.3486 217.569 28.2556 217.604 28.1512C217.628 28.0958 217.647 28.0382 217.66 27.9792C217.669 27.9267 217.674 27.8735 217.673 27.8202L217.666 27.6702ZM212.445 20.8002C212.344 20.8474 212.251 20.9105 212.17 20.9872C212.089 21.0658 212.024 21.16 211.98 21.2641C211.936 21.3683 211.914 21.4802 211.914 21.5932V25.7932C211.916 25.91 211.935 26.0259 211.97 26.1372C212.003 26.1832 212.037 26.2289 212.07 26.2742C212.099 26.3189 212.133 26.3608 212.17 26.3992C212.249 26.476 212.343 26.536 212.447 26.5757C212.55 26.6154 212.66 26.6339 212.77 26.6302H216.823C216.932 26.6302 217.039 26.6102 217.141 26.5712C217.245 26.5312 217.34 26.468 217.416 26.3862C217.496 26.3097 217.559 26.2176 217.602 26.1156C217.645 26.0136 217.667 25.9039 217.666 25.7932V21.5932C217.667 21.4743 217.645 21.3564 217.6 21.2462C217.562 21.1474 217.498 21.0602 217.416 20.9932C217.259 20.8339 217.046 20.7421 216.823 20.7372H212.775C212.664 20.7363 212.553 20.7577 212.45 20.8002M213.506 17.5002H214.836V18.7122H213.506V17.5002ZM215.548 17.5002H216.878V18.7122H215.548V17.5002ZM255.314 17.5002H256.644V18.7122H255.314V17.5002ZM257.356 17.5002H258.686V18.7122H257.356V17.5002Z" fill="white"/>
<path d="M229.113 27.8012C229.113 28.0651 229.06 28.3264 228.957 28.5692C228.853 28.8151 228.692 29.0332 228.489 29.2062C228.287 29.4019 228.049 29.5567 227.789 29.6622C226.74 29.8155 225.677 29.8491 224.62 29.7622V28.5822C226.277 28.5909 227.157 28.5795 227.259 28.5482C227.36 28.5177 227.453 28.4655 227.531 28.3952C227.614 28.3211 227.681 28.2296 227.725 28.1271C227.769 28.0247 227.79 27.9138 227.787 27.8022V27.6642C227.694 27.6815 227.602 27.7045 227.512 27.7332L227.244 27.7832L226.944 27.8142H222.876C222.584 27.8186 222.294 27.7632 222.024 27.6512C221.77 27.542 221.537 27.3909 221.334 27.2042C221.134 27.0224 220.974 26.8013 220.863 26.5547C220.752 26.3082 220.694 26.0414 220.691 25.7712V21.5712C220.69 21.3092 220.743 21.0497 220.847 20.8092C220.956 20.56 221.116 20.3357 221.315 20.1502C221.518 19.9557 221.756 19.8001 222.015 19.6912C222.288 19.5806 222.58 19.5256 222.874 19.5292H226.921C227.065 19.5283 227.21 19.5397 227.352 19.5632C227.492 19.5879 227.628 19.6289 227.758 19.6852C228.021 19.7929 228.264 19.9451 228.476 20.1352C228.671 20.3198 228.827 20.5419 228.935 20.7882C229.047 21.0343 229.106 21.3016 229.107 21.5722V25.7722C229.1 25.8867 229.12 26.0013 229.165 26.1066C229.211 26.2119 229.281 26.3049 229.369 26.3782C229.442 26.4531 229.53 26.5126 229.626 26.5533C229.723 26.594 229.826 26.615 229.931 26.6152H230.112V27.8152C229.868 27.8214 229.625 27.7962 229.388 27.7402C229.346 27.7322 229.305 27.7212 229.263 27.7092C229.221 27.6972 229.169 27.6782 229.107 27.6532L229.113 27.8012ZM222.287 20.9622C222.203 21.039 222.136 21.1327 222.091 21.2372C222.046 21.3416 222.023 21.4544 222.025 21.5682V25.7682C222.021 25.8854 222.044 26.0019 222.094 26.1082C222.145 26.2058 222.211 26.2954 222.288 26.3742C222.366 26.4508 222.459 26.5112 222.561 26.5519C222.663 26.5925 222.771 26.6127 222.881 26.6112H226.928C227.033 26.6092 227.137 26.5879 227.234 26.5482C227.342 26.5066 227.442 26.4452 227.528 26.3672C227.611 26.2915 227.677 26.1987 227.721 26.0951C227.766 25.9916 227.787 25.8797 227.784 25.7672V21.5672C227.786 21.4525 227.764 21.3387 227.719 21.2332C227.673 21.1334 227.609 21.0434 227.529 20.9682C227.45 20.8895 227.357 20.8275 227.254 20.7857C227.151 20.744 227.04 20.7234 226.929 20.7252H222.876C222.766 20.7247 222.657 20.7436 222.554 20.7812C222.45 20.8196 222.357 20.8816 222.282 20.9622" fill="white"/>
<path d="M233.954 26.6212H229.888V27.8392H233.954V26.6212Z" fill="white"/>
<path d="M238.406 27.2392C238.208 27.4144 237.982 27.5556 237.738 27.6572C237.602 27.7063 237.462 27.7441 237.32 27.7702C237.178 27.7955 237.039 27.8142 236.902 27.8262H236.877C236.584 27.8257 236.294 27.7705 236.021 27.6632C235.889 27.6105 235.764 27.5434 235.647 27.4632C235.543 27.3914 235.443 27.3143 235.347 27.2322C235.149 27.4057 234.923 27.5449 234.679 27.6442C234.356 27.774 234.009 27.8356 233.661 27.8252V26.6142C233.939 26.6343 234.213 26.5458 234.426 26.3672C234.509 26.2913 234.576 26.1986 234.62 26.0951C234.665 25.9917 234.687 25.8799 234.685 25.7672V19.4662H236.015V25.7662C236.015 25.8799 236.04 25.9921 236.09 26.0942C236.14 26.1962 236.205 26.29 236.283 26.3722C236.435 26.5175 236.635 26.6019 236.845 26.6092H236.908C237.002 26.6028 237.095 26.5819 237.183 26.5472C237.291 26.5055 237.39 26.4441 237.476 26.3662C237.561 26.291 237.628 26.1985 237.673 26.0949C237.718 25.9914 237.741 25.8793 237.739 25.7662V19.4662H239.069V25.7662C239.071 25.8818 239.095 25.996 239.138 26.1032C239.185 26.2038 239.254 26.2931 239.338 26.3652C239.417 26.4439 239.51 26.506 239.613 26.5478C239.716 26.5895 239.827 26.6101 239.938 26.6082C240.043 26.6064 240.147 26.5854 240.244 26.5462C240.352 26.5044 240.452 26.4431 240.538 26.3652C240.622 26.2899 240.689 26.1973 240.734 26.0938C240.78 25.9902 240.802 25.8782 240.8 25.7652V19.4662H242.13V25.7662C242.13 25.8799 242.155 25.9921 242.205 26.0942C242.255 26.1963 242.32 26.2901 242.399 26.3722C242.551 26.5176 242.751 26.602 242.961 26.6092H243.149V27.8262C242.805 27.8346 242.462 27.7794 242.137 27.6632C242.005 27.6105 241.879 27.5435 241.762 27.4632C241.671 27.4005 241.571 27.3235 241.462 27.2322C241.268 27.4111 241.044 27.5545 240.8 27.6562C240.665 27.7052 240.526 27.745 240.385 27.7752C240.238 27.808 240.088 27.8248 239.938 27.8252C239.861 27.8255 239.784 27.8212 239.707 27.8122C239.636 27.8042 239.552 27.7919 239.454 27.7752C239.327 27.7507 239.203 27.7152 239.082 27.6692C238.926 27.5991 238.778 27.5134 238.639 27.4132L238.414 27.0952C238.323 27.2325 238.319 27.2785 238.402 27.2332L238.406 27.2392Z" fill="white"/>
<path d="M245.381 17.4032V25.7652C245.38 26.0358 245.322 26.3031 245.209 26.5492C245.096 26.8042 244.932 27.0337 244.728 27.2242C244.524 27.4169 244.287 27.5714 244.028 27.6802C243.703 27.8017 243.357 27.8581 243.01 27.8462V26.6202C243.175 26.6273 243.341 26.6039 243.497 26.5512C243.598 26.513 243.69 26.4533 243.766 26.3762C243.853 26.2999 243.922 26.2056 243.968 26.0999C244.014 25.9942 244.037 25.8796 244.034 25.7642V17.4032H245.381Z" fill="white"/>
<path d="M248.516 17.4222H247.186V27.8202H248.516V17.4222Z" fill="white"/>
<path d="M261.163 27.2392C260.968 27.4129 260.744 27.5504 260.501 27.6452C260.227 27.7576 259.935 27.8151 259.639 27.8142H255.539C255.248 27.8182 254.96 27.7652 254.69 27.6582C254.56 27.6063 254.436 27.5427 254.318 27.4682C254.196 27.3891 254.082 27.298 253.978 27.1962C253.779 27.0058 253.62 26.7777 253.51 26.5252C253.4 26.2829 253.343 26.0202 253.341 25.7542V21.5132C253.34 21.244 253.393 20.9774 253.497 20.7292C253.6 20.4832 253.757 20.2635 253.956 20.0862C254.173 19.8957 254.42 19.7426 254.687 19.6332C254.956 19.5159 255.246 19.4543 255.539 19.4522H259.639C259.927 19.4517 260.213 19.5046 260.482 19.6082C260.745 19.7076 260.986 19.8582 261.191 20.0512C261.392 20.2414 261.553 20.4694 261.666 20.7222C261.779 20.9704 261.837 21.2397 261.838 21.5122V25.7522C261.839 25.8683 261.863 25.983 261.91 26.0892C261.973 26.2412 262.079 26.3717 262.215 26.4648C262.35 26.558 262.51 26.6099 262.675 26.6142H262.862V27.8262H262.681C262.397 27.8168 262.116 27.7617 261.85 27.6632C261.602 27.5555 261.37 27.4133 261.163 27.2392ZM254.937 20.9062C254.854 20.9833 254.788 21.0772 254.744 21.1817C254.7 21.2862 254.678 21.3988 254.681 21.5122V25.7522C254.679 25.8645 254.701 25.9759 254.745 26.0793C254.79 26.1826 254.855 26.2756 254.937 26.3522C255.016 26.4325 255.11 26.4961 255.214 26.539C255.319 26.582 255.43 26.6035 255.543 26.6022H259.643C259.75 26.6053 259.857 26.5873 259.958 26.5492C260.059 26.5039 260.152 26.4439 260.236 26.3712C260.316 26.2888 260.381 26.1926 260.427 26.0872C260.477 25.9828 260.503 25.8689 260.505 25.7532V21.5132C260.508 21.4001 260.486 21.2877 260.443 21.1833C260.399 21.0789 260.334 20.9848 260.252 20.9072C260.172 20.8281 260.077 20.7658 259.972 20.7239C259.867 20.682 259.755 20.6613 259.643 20.6632H255.543C255.433 20.6619 255.324 20.6799 255.221 20.7162C255.113 20.7579 255.016 20.8228 254.937 20.9062Z" fill="white"/>
<path d="M266.702 26.6212H262.636V27.8392H266.702V26.6212Z" fill="white"/>
<path d="M268.781 19.5202V20.2322C268.979 20.0529 269.205 19.9064 269.449 19.7982C269.806 19.6132 270.202 19.5178 270.604 19.5202H276.755C277.074 19.5175 277.387 19.603 277.661 19.7672C277.94 19.9353 278.18 20.1598 278.367 20.4262C278.622 20.7862 278.789 21.2015 278.854 21.6382L278.904 21.9562V25.7782C278.901 25.8919 278.924 26.0048 278.971 26.1085C279.017 26.2123 279.086 26.3044 279.173 26.3782C279.254 26.4559 279.35 26.5174 279.454 26.5592C279.543 26.5955 279.638 26.6165 279.735 26.6212H279.923V27.8212H279.738C279.456 27.8079 279.178 27.7509 278.914 27.6522C278.658 27.5434 278.421 27.3934 278.214 27.2082L278.114 27.1142L278.164 27.1642C277.984 27.3608 277.766 27.5191 277.524 27.6296C277.281 27.7401 277.019 27.8005 276.753 27.8072H269.608C269.305 27.8085 269.007 27.732 268.743 27.5852C268.532 27.4831 268.344 27.3395 268.19 27.1632L268.153 27.2012C267.947 27.3921 267.711 27.5464 267.453 27.6572C267.13 27.7773 266.786 27.8324 266.441 27.8192V26.6192C266.71 26.6411 266.978 26.556 267.185 26.3822C267.267 26.3029 267.334 26.2103 267.385 26.1082C267.433 26.0047 267.458 25.8916 267.457 25.7772V19.5202H268.781ZM277.243 21.0692C277.176 20.9617 277.089 20.8683 276.987 20.7942C276.919 20.7476 276.839 20.7216 276.756 20.7192H270.605C270.383 20.7249 270.167 20.7943 269.984 20.9192C269.759 21.0673 269.565 21.2583 269.413 21.4812C269.202 21.7816 269.044 22.1153 268.944 22.4682C268.888 22.6538 268.847 22.8438 268.823 23.0362C268.795 23.2454 268.781 23.4562 268.782 23.6672V25.0842C268.783 25.3062 268.817 25.5269 268.882 25.7392C268.932 25.9236 269.011 26.0989 269.116 26.2582C269.189 26.3603 269.278 26.4506 269.378 26.5262C269.447 26.5769 269.529 26.6052 269.615 26.6072H276.76C276.847 26.601 276.931 26.5694 277 26.5162C277.1 26.445 277.188 26.3574 277.259 26.2572C277.313 26.1846 277.359 26.1061 277.396 26.0232C277.435 25.9306 277.468 25.8358 277.496 25.7392C277.557 25.5263 277.589 25.3058 277.59 25.0842V22.2492C277.594 22.0245 277.56 21.8007 277.49 21.5872C277.438 21.4021 277.356 21.227 277.246 21.0692" fill="white"/>
<path d="M283.751 26.6212H279.685V27.8392H283.751V26.6212Z" fill="white"/>
<path d="M285.216 27.2262C285.02 27.4085 284.791 27.5526 284.542 27.6512C284.217 27.7726 283.871 27.83 283.524 27.8202V26.6142C283.662 26.6244 283.8 26.6073 283.932 26.5639C284.063 26.5204 284.184 26.4516 284.289 26.3612C284.372 26.2848 284.437 26.192 284.482 26.0886C284.527 25.9853 284.549 25.8738 284.548 25.7612V19.4512H285.878V25.7652C285.878 25.8802 285.901 25.994 285.948 26.0994C285.994 26.2048 286.061 26.2994 286.146 26.3772C286.221 26.4574 286.313 26.5193 286.415 26.5582C286.573 26.6035 286.738 26.6224 286.902 26.6142V27.8192C286.554 27.8308 286.208 27.7713 285.884 27.6442C285.639 27.5442 285.413 27.4028 285.216 27.2262ZM284.567 17.5262H285.904V18.7382H284.567V17.5262Z" fill="white"/>
<path d="M290.752 26.6212H286.686V27.8392H290.752V26.6212Z" fill="white"/>
<path d="M292.231 27.2262L292.081 27.3512C292.027 27.3918 291.97 27.4295 291.912 27.4642C291.796 27.5453 291.67 27.6106 291.537 27.6582C291.276 27.7651 290.996 27.8181 290.713 27.8142H290.532V26.6082H290.713C290.93 26.6094 291.138 26.5265 291.294 26.3772C291.374 26.2932 291.438 26.1961 291.484 26.0902C291.532 25.9842 291.556 25.8693 291.556 25.7532V21.5312C291.556 21.2551 291.616 20.9822 291.731 20.7312C291.838 20.4851 291.993 20.263 292.187 20.0782C292.399 19.8881 292.642 19.7359 292.905 19.6282C293.035 19.5719 293.172 19.531 293.311 19.5062C293.454 19.4824 293.598 19.4707 293.742 19.4712H297.814C298.105 19.4731 298.393 19.5325 298.66 19.6462C298.927 19.7537 299.172 19.907 299.385 20.0992C299.583 20.2788 299.74 20.4992 299.844 20.7452C299.949 20.9923 300.002 21.258 300 21.5262V25.7512C300.001 26.022 299.942 26.2897 299.828 26.5352C299.714 26.7826 299.554 27.0062 299.356 27.1942C299.158 27.385 298.926 27.5376 298.672 27.6442C298.4 27.7555 298.108 27.8106 297.813 27.8062H293.741C293.45 27.8079 293.161 27.7508 292.892 27.6382C292.65 27.5389 292.426 27.3996 292.23 27.2262M293.43 20.7372C293.326 20.7827 293.231 20.846 293.149 20.9242C293.066 21.0009 292.999 21.0947 292.955 21.1993C292.911 21.3039 292.89 21.4167 292.893 21.5302V25.7512C292.893 25.8732 292.916 25.9942 292.962 26.1072C293.002 26.2035 293.064 26.2891 293.143 26.3572C293.305 26.5102 293.52 26.595 293.743 26.5942H297.815C297.924 26.5939 298.031 26.5747 298.133 26.5372C298.237 26.4984 298.331 26.4366 298.408 26.3562C298.496 26.2821 298.566 26.1891 298.612 26.0841C298.659 25.9791 298.681 25.865 298.677 25.7502V21.5312C298.679 21.4173 298.657 21.3043 298.611 21.1998C298.566 21.0953 298.499 21.0017 298.414 20.9252C298.327 20.8516 298.228 20.7925 298.121 20.7502C298.026 20.7035 297.921 20.6798 297.815 20.6812H293.743C293.637 20.6801 293.53 20.6991 293.43 20.7372Z" fill="white"/>
</g>
</g>
<defs>
<clipPath id="clip0_192_741">
<rect width="299.626" height="53" fill="white" transform="translate(0.374023 0.819214)"/>
</clipPath>
</defs>
</svg>
