<svg width="92" height="39" viewBox="0 0 92 39" fill="none" xmlns="http://www.w3.org/2000/svg">
<path d="M76.9655 33.0995C76.4154 33.0995 75.8776 33.2626 75.4202 33.5682C74.9628 33.8738 74.6063 34.3082 74.3958 34.8165C74.1853 35.3247 74.1302 35.884 74.2375 36.4235C74.3448 36.963 74.6098 37.4586 74.9987 37.8476C75.3877 38.2366 75.8833 38.5015 76.4229 38.6088C76.9624 38.7161 77.5216 38.6611 78.0299 38.4505C78.5381 38.24 78.9725 37.8835 79.2781 37.4261C79.5838 36.9687 79.7469 36.431 79.7469 35.8809C79.7469 35.1432 79.4539 34.4357 78.9322 33.9141C78.4106 33.3925 77.7032 33.0995 76.9655 33.0995Z" fill="white"/>
<path d="M52.1415 33.0995C51.5914 33.0995 51.0536 33.2626 50.5962 33.5682C50.1388 33.8738 49.7823 34.3082 49.5718 34.8165C49.3613 35.3247 49.3062 35.884 49.4136 36.4235C49.5209 36.963 49.7858 37.4586 50.1748 37.8476C50.5638 38.2366 51.0593 38.5015 51.5989 38.6088C52.1384 38.7161 52.6977 38.6611 53.2059 38.4505C53.7141 38.24 54.1485 37.8835 54.4542 37.4261C54.7598 36.9687 54.9229 36.431 54.9229 35.8809C54.9229 35.1432 54.6299 34.4357 54.1083 33.9141C53.5866 33.3925 52.8792 33.0995 52.1415 33.0995Z" fill="white"/>
<path d="M79.8941 17.2042L77.4788 22.3783H51.6929L54.1052 17.2042L59.6049 5.40787H53.9493L55.9266 1.16906L56.3616 0.234436H67.7309L65.3171 5.41005L59.8159 17.2064L79.8941 17.2042Z" fill="white"/>
<path d="M85.4069 8.92511H65.3273L62.9149 14.0985H82.9945L77.4927 25.8941H50.4436L48.032 31.0654V31.0697H80.7874L83.2005 25.8941L88.7002 14.0985L91.1133 8.92511H85.4069Z" fill="white"/>
<path d="M59.4815 5.40647H53.9478L55.925 1.16766L59.4815 5.40647Z" fill="white"/>
<path d="M53.4961 7.53973L51.5529 11.7104L38.7755 11.1956L34.3729 11.0201L0.845215 9.67002L34.4164 8.31194L40.2351 8.07629L53.4961 7.53973Z" fill="white"/>
<path d="M37.1086 29.1622L43.5343 28.9048L42.6954 30.703C35.403 30.4081 28.1087 30.1142 20.8125 29.8213L37.1086 29.1622Z" fill="white"/>
<path d="M46.8478 21.7999L45.6536 24.3587L14.4861 23.1028L46.8478 21.7999Z" fill="white"/>
<path d="M50.1766 14.6592L48.6003 18.0489L7.34985 16.3856L50.1766 14.6592Z" fill="white"/>
<path d="M72.8962 3.36033C72.8749 3.36033 72.854 3.35588 72.8346 3.34728L72.335 3.12251C72.2986 3.10616 72.2703 3.07605 72.2561 3.03879C72.242 3.00153 72.2432 2.96018 72.2596 2.92383C72.2759 2.88749 72.306 2.85913 72.3433 2.84498C72.3805 2.83084 72.4219 2.83208 72.4582 2.84843L72.9585 3.0732C72.9919 3.086 73.0196 3.11028 73.0367 3.1417C73.0538 3.17311 73.0591 3.20958 73.0516 3.24455C73.0442 3.27952 73.0245 3.31068 72.9962 3.33244C72.9678 3.3542 72.9326 3.36512 72.8969 3.36323" fill="white"/>
<path d="M72.4032 2.26026C72.3683 2.25995 72.3345 2.24749 72.3078 2.22502C72.2811 2.20254 72.2631 2.17146 72.2568 2.13712C72.2506 2.10278 72.2565 2.06733 72.2735 2.03687C72.2906 2.00641 72.3177 1.98284 72.3502 1.97023L72.8629 1.77663C72.8815 1.76868 72.9015 1.76459 72.9218 1.76459C72.942 1.76459 72.9621 1.76868 72.9807 1.77663C72.9993 1.78458 73.0161 1.79621 73.0301 1.81083C73.0442 1.82545 73.0551 1.84275 73.0622 1.8617C73.0694 1.88065 73.0726 1.90084 73.0717 1.92107C73.0709 1.9413 73.0659 1.96115 73.0572 1.97942C73.0485 1.99768 73.0361 2.014 73.0209 2.02737C73.0057 2.04074 72.988 2.0509 72.9687 2.05724L72.4561 2.25083C72.4392 2.25725 72.4212 2.26045 72.4032 2.26026Z" fill="white"/>
<path d="M71.7883 1.63365C71.7631 1.63373 71.7383 1.62748 71.7162 1.61547C71.6941 1.60346 71.6753 1.58607 71.6617 1.56491C71.648 1.54375 71.6399 1.5195 71.6381 1.49439C71.6363 1.46927 71.6408 1.4441 71.6513 1.4212L71.8782 0.921619C71.895 0.885862 71.9251 0.858147 71.9622 0.844481C71.9992 0.830815 72.0402 0.832298 72.0761 0.848609C72.1121 0.86492 72.1402 0.894744 72.1543 0.931619C72.1684 0.968494 72.1674 1.00945 72.1516 1.04561L71.9246 1.54519C71.9127 1.57157 71.8935 1.59396 71.8692 1.60966C71.8449 1.62535 71.8165 1.63368 71.7876 1.63365" fill="white"/>
<path d="M70.9109 1.62446C70.8803 1.62444 70.8504 1.61506 70.8252 1.59756C70.8001 1.58006 70.7809 1.55529 70.7702 1.52657L70.5781 1.01249C70.5712 0.994016 70.568 0.974365 70.5687 0.954657C70.5694 0.934949 70.5739 0.91557 70.5821 0.897626C70.5903 0.879683 70.6019 0.863527 70.6164 0.85008C70.6308 0.836633 70.6477 0.826158 70.6662 0.819255C70.6847 0.812352 70.7043 0.809154 70.724 0.809846C70.7437 0.810537 70.7631 0.815103 70.7811 0.823284C70.799 0.831464 70.8152 0.843099 70.8286 0.857524C70.8421 0.871948 70.8525 0.88888 70.8594 0.907352L71.0516 1.42071C71.0654 1.45792 71.064 1.49912 71.0476 1.53527C71.0311 1.57142 71.001 1.59958 70.9638 1.61358C70.9469 1.61985 70.929 1.62304 70.9109 1.62301" fill="white"/>
<path d="M70.2823 2.2365C70.2608 2.2366 70.2395 2.2319 70.22 2.22273L69.7218 1.99433C69.7029 1.98681 69.6857 1.97552 69.6713 1.96116C69.6569 1.94679 69.6456 1.92964 69.638 1.91076C69.6304 1.89187 69.6268 1.87165 69.6272 1.8513C69.6277 1.83096 69.6323 1.81093 69.6408 1.79243C69.6493 1.77392 69.6614 1.75734 69.6765 1.74367C69.6916 1.73 69.7093 1.71954 69.7285 1.71293C69.7477 1.70631 69.7681 1.70368 69.7884 1.70519C69.8087 1.70669 69.8285 1.71231 69.8465 1.7217L70.3447 1.9501C70.3781 1.96289 70.4059 1.98724 70.423 2.01874C70.4401 2.05024 70.4454 2.08681 70.4378 2.12184C70.4303 2.15688 70.4105 2.18806 70.3819 2.20975C70.3534 2.23145 70.3181 2.24222 70.2823 2.24013" fill="white"/>
<path d="M68.5342 4.79821L71.4454 2.29669L71.4504 6.11568L70.5078 5.3848L69.6486 7.28596L69.2687 7.11412L68.888 6.94227L69.7472 5.04039L68.5342 4.79821Z" fill="white"/>
</svg>
