<svg width="207" height="61" viewBox="0 0 207 61" fill="none" xmlns="http://www.w3.org/2000/svg">
<rect x="0.5" y="1.03979" width="206" height="59" rx="5.5" fill="#1D274A"/>
<rect x="0.5" y="1.03979" width="206" height="59" rx="5.5" stroke="#A6A6A6"/>
<path fill-rule="evenodd" clip-rule="evenodd" d="M48.435 18.0868C48.144 18.3948 47.973 18.8718 47.973 19.4908V41.5888C47.973 42.2078 48.144 42.6848 48.435 42.9928L48.509 43.0648L60.888 30.6858V30.3938L48.509 18.0148L48.435 18.0868Z" fill="#00D7FE"/>
<mask id="mask0_53_281" style="mask-type:alpha" maskUnits="userSpaceOnUse" x="60" y="26" width="12" height="9">
<path d="M65.013 34.8138L60.888 30.6858V30.3938L65.015 26.2668L69.997 29.0968C71.393 29.8908 71.393 31.1888 69.997 31.9818L65.108 34.7598L65.013 34.8138Z" fill="white"/>
</mask>
<g mask="url(#mask0_53_281)">
<path fill-rule="evenodd" clip-rule="evenodd" d="M65.013 34.8138L60.888 30.6858V30.3938L65.015 26.2668L69.997 29.0968C71.393 29.8908 71.393 31.1888 69.997 31.9818L65.108 34.7598L65.013 34.8138Z" fill="url(#paint0_linear_53_281)"/>
</g>
<mask id="mask1_53_281" style="mask-type:alpha" maskUnits="userSpaceOnUse" x="48" y="30" width="18" height="14">
<path d="M65.108 34.7598L60.888 30.5398L48.435 42.9928C48.896 43.4798 49.656 43.5398 50.512 43.0538L65.108 34.7598Z" fill="white"/>
</mask>
<g mask="url(#mask1_53_281)">
<path fill-rule="evenodd" clip-rule="evenodd" d="M65.108 34.7598L60.888 30.5398L48.435 42.9928C48.896 43.4798 49.656 43.5398 50.512 43.0538L65.108 34.7598Z" fill="url(#paint1_linear_53_281)"/>
</g>
<mask id="mask2_53_281" style="mask-type:alpha" maskUnits="userSpaceOnUse" x="48" y="17" width="18" height="14">
<path d="M65.108 26.3198L50.512 18.0258C49.656 17.5398 48.896 17.5998 48.435 18.0868L60.888 30.5398L65.108 26.3198Z" fill="white"/>
</mask>
<g mask="url(#mask2_53_281)">
<path fill-rule="evenodd" clip-rule="evenodd" d="M65.108 26.3198L50.512 18.0258C49.656 17.5398 48.896 17.5998 48.435 18.0868L60.888 30.5398L65.108 26.3198Z" fill="url(#paint2_linear_53_281)"/>
</g>
<path fill-rule="evenodd" clip-rule="evenodd" d="M142.894 41.4928H144.76V28.9918H142.894V41.4928ZM159.701 33.4948L157.562 38.9148H157.498L155.278 33.4948H153.268L156.597 41.0698L154.699 45.2838H156.646L161.776 33.4948H159.701ZM149.119 40.0728C148.507 40.0728 147.655 39.7678 147.655 39.0118C147.655 38.0468 148.717 37.6768 149.633 37.6768C150.454 37.6768 150.839 37.8538 151.338 38.0948C151.193 39.2528 150.196 40.0728 149.119 40.0728ZM149.344 33.2218C147.993 33.2218 146.594 33.8168 146.015 35.1358L147.671 35.8268C148.025 35.1358 148.684 34.9098 149.376 34.9098C150.341 34.9098 151.322 35.4888 151.338 36.5188V36.6468C151 36.4538 150.277 36.1648 149.392 36.1648C147.607 36.1648 145.789 37.1458 145.789 38.9788C145.789 40.6518 147.253 41.7298 148.893 41.7298C150.148 41.7298 150.839 41.1668 151.274 40.5068H151.338V41.4718H153.139V36.6798C153.139 34.4598 151.483 33.2218 149.344 33.2218ZM137.812 35.0168H135.158V30.7318H137.812C139.207 30.7318 139.999 31.8868 139.999 32.8738C139.999 33.8428 139.207 35.0168 137.812 35.0168ZM137.764 28.9918H133.293V41.4928H135.158V36.7568H137.764C139.832 36.7568 141.865 35.2588 141.865 32.8738C141.865 30.4888 139.832 28.9918 137.764 28.9918ZM113.383 40.0748C112.094 40.0748 111.015 38.9958 111.015 37.5138C111.015 36.0158 112.094 34.9198 113.383 34.9198C114.656 34.9198 115.654 36.0158 115.654 37.5138C115.654 38.9958 114.656 40.0748 113.383 40.0748ZM115.525 34.1948H115.461C115.042 33.6958 114.237 33.2448 113.222 33.2448C111.095 33.2448 109.146 35.1128 109.146 37.5138C109.146 39.8978 111.095 41.7508 113.222 41.7508C114.237 41.7508 115.042 41.2998 115.461 40.7838H115.525V41.3958C115.525 43.0238 114.656 43.8938 113.254 43.8938C112.11 43.8938 111.401 43.0718 111.111 42.3788L109.484 43.0558C109.951 44.1838 111.192 45.5688 113.254 45.5688C115.445 45.5688 117.298 44.2798 117.298 41.1388V33.5018H115.525V34.1948ZM118.587 41.4928H120.456V28.9908H118.587V41.4928ZM123.21 37.3688C123.162 35.7258 124.483 34.8878 125.433 34.8878C126.175 34.8878 126.803 35.2578 127.012 35.7898L123.21 37.3688ZM129.01 35.9508C128.656 35.0008 127.576 33.2448 125.369 33.2448C123.178 33.2448 121.358 34.9678 121.358 37.4978C121.358 39.8818 123.162 41.7508 125.578 41.7508C127.528 41.7508 128.656 40.5588 129.123 39.8658L127.673 38.8988C127.19 39.6078 126.529 40.0748 125.578 40.0748C124.628 40.0748 123.951 39.6398 123.516 38.7868L129.203 36.4348L129.01 35.9508ZM83.702 34.5498V36.3538H88.019C87.89 37.3688 87.552 38.1098 87.037 38.6258C86.408 39.2538 85.425 39.9458 83.702 39.9458C81.044 39.9458 78.965 37.8038 78.965 35.1458C78.965 32.4868 81.044 30.3448 83.702 30.3448C85.136 30.3448 86.183 30.9088 86.956 31.6338L88.229 30.3608C87.149 29.3298 85.716 28.5398 83.702 28.5398C80.061 28.5398 77 31.5048 77 35.1458C77 38.7868 80.061 41.7508 83.702 41.7508C85.667 41.7508 87.149 41.1068 88.309 39.8978C89.501 38.7058 89.872 37.0308 89.872 35.6768C89.872 35.2578 89.84 34.8718 89.775 34.5498H83.702ZM94.781 40.0748C93.492 40.0748 92.38 39.0118 92.38 37.4978C92.38 35.9668 93.492 34.9198 94.781 34.9198C96.069 34.9198 97.181 35.9668 97.181 37.4978C97.181 39.0118 96.069 40.0748 94.781 40.0748ZM94.781 33.2448C92.428 33.2448 90.511 35.0328 90.511 37.4978C90.511 39.9458 92.428 41.7508 94.781 41.7508C97.133 41.7508 99.05 39.9458 99.05 37.4978C99.05 35.0328 97.133 33.2448 94.781 33.2448ZM104.094 40.0748C102.805 40.0748 101.693 39.0118 101.693 37.4978C101.693 35.9668 102.805 34.9198 104.094 34.9198C105.383 34.9198 106.494 35.9668 106.494 37.4978C106.494 39.0118 105.383 40.0748 104.094 40.0748ZM104.094 33.2448C101.742 33.2448 99.825 35.0328 99.825 37.4978C99.825 39.9458 101.742 41.7508 104.094 41.7508C106.446 41.7508 108.363 39.9458 108.363 37.4978C108.363 35.0328 106.446 33.2448 104.094 33.2448Z" fill="#FFFFFE"/>
<path d="M82.4712 21.3538V23.696C82.3921 23.8132 82.2661 23.9451 82.0933 24.0916C81.9204 24.2351 81.6816 24.3611 81.377 24.4695C81.0752 24.575 80.6855 24.6277 80.208 24.6277C79.8184 24.6277 79.4595 24.5603 79.1313 24.4255C78.8062 24.2878 78.5234 24.0886 78.2832 23.8279C78.0459 23.5642 77.8613 23.2449 77.7295 22.8699C77.6006 22.4919 77.5361 22.0642 77.5361 21.5867V21.0901C77.5361 20.6125 77.5918 20.1863 77.7031 19.8113C77.8174 19.4363 77.9844 19.1184 78.2041 18.8577C78.4238 18.594 78.6934 18.3948 79.0127 18.26C79.332 18.1223 79.6982 18.0535 80.1113 18.0535C80.6006 18.0535 81.0093 18.1384 81.3374 18.3083C81.6685 18.4753 81.9263 18.7068 82.1108 19.0027C82.2983 19.2986 82.4185 19.6355 82.4712 20.0134H81.623C81.585 19.782 81.5088 19.571 81.3945 19.3806C81.2832 19.1902 81.1235 19.0378 80.9155 18.9236C80.7075 18.8064 80.4395 18.7478 80.1113 18.7478C79.8154 18.7478 79.5591 18.802 79.3423 18.9104C79.1255 19.0188 78.9468 19.1741 78.8062 19.3762C78.6655 19.5784 78.5601 19.823 78.4897 20.1101C78.4224 20.3972 78.3887 20.7209 78.3887 21.0813V21.5867C78.3887 21.9558 78.4312 22.2854 78.5161 22.5754C78.604 22.8655 78.7285 23.113 78.8896 23.3181C79.0508 23.5203 79.2427 23.6741 79.4653 23.7795C79.6909 23.885 79.9399 23.9377 80.2124 23.9377C80.5142 23.9377 80.7588 23.9128 80.9463 23.863C81.1338 23.8103 81.2803 23.7488 81.3857 23.6785C81.4912 23.6052 81.5718 23.5364 81.6274 23.4719V22.0393H80.1465V21.3538H82.4712ZM87.6724 23.8499V24.5398H84.2842V23.8499H87.6724ZM84.4556 18.1414V24.5398H83.6074V18.1414H84.4556ZM87.2241 20.8923V21.5823H84.2842V20.8923H87.2241ZM87.6284 18.1414V18.8357H84.2842V18.1414H87.6284ZM90.9048 18.1414V24.5398H90.0699V18.1414H90.9048ZM92.9615 18.1414V18.8357H88.0176V18.1414H92.9615ZM96.337 18.1414V24.5398H95.4888V18.1414H96.337ZM99.8419 18.1414V24.5398H99.0069V18.1414H99.8419ZM101.899 18.1414V18.8357H96.9547V18.1414H101.899ZM109.291 21.1384V21.5427C109.291 22.0232 109.231 22.4539 109.11 22.8347C108.99 23.2156 108.818 23.5393 108.592 23.8059C108.366 24.0725 108.095 24.2761 107.779 24.4167C107.465 24.5574 107.114 24.6277 106.724 24.6277C106.346 24.6277 105.999 24.5574 105.683 24.4167C105.369 24.2761 105.097 24.0725 104.865 23.8059C104.637 23.5393 104.46 23.2156 104.334 22.8347C104.208 22.4539 104.145 22.0232 104.145 21.5427V21.1384C104.145 20.658 104.206 20.2288 104.329 19.8508C104.455 19.47 104.632 19.1462 104.861 18.8796C105.089 18.6101 105.36 18.405 105.674 18.2644C105.99 18.1238 106.338 18.0535 106.715 18.0535C107.105 18.0535 107.457 18.1238 107.77 18.2644C108.087 18.405 108.358 18.6101 108.583 18.8796C108.812 19.1462 108.986 19.47 109.106 19.8508C109.229 20.2288 109.291 20.658 109.291 21.1384ZM108.451 21.5427V21.1296C108.451 20.7488 108.412 20.4119 108.333 20.1189C108.256 19.8259 108.144 19.5798 107.994 19.3806C107.845 19.1814 107.662 19.0305 107.445 18.928C107.231 18.8254 106.988 18.7742 106.715 18.7742C106.452 18.7742 106.213 18.8254 105.999 18.928C105.788 19.0305 105.607 19.1814 105.454 19.3806C105.305 19.5798 105.189 19.8259 105.107 20.1189C105.025 20.4119 104.984 20.7488 104.984 21.1296V21.5427C104.984 21.9265 105.025 22.2664 105.107 22.5623C105.189 22.8552 105.306 23.1028 105.459 23.3049C105.614 23.5042 105.797 23.655 106.008 23.7576C106.222 23.8601 106.461 23.9114 106.724 23.9114C107 23.9114 107.244 23.8601 107.458 23.7576C107.672 23.655 107.852 23.5042 107.999 23.3049C108.148 23.1028 108.261 22.8552 108.337 22.5623C108.413 22.2664 108.451 21.9265 108.451 21.5427ZM115.213 18.1414V24.5398H114.36L111.139 19.6047V24.5398H110.291V18.1414H111.139L114.373 23.0896V18.1414H115.213Z" fill="white"/>
<defs>
<linearGradient id="paint0_linear_53_281" x1="69.0888" y1="30.5401" x2="60.888" y2="30.5401" gradientUnits="userSpaceOnUse">
<stop stop-color="#FFBC00"/>
<stop offset="1" stop-color="#FFDA03"/>
</linearGradient>
<linearGradient id="paint1_linear_53_281" x1="62.8146" y1="34.5106" x2="52.1111" y2="43.3331" gradientUnits="userSpaceOnUse">
<stop stop-color="#E22652"/>
<stop offset="1" stop-color="#FF3A44"/>
</linearGradient>
<linearGradient id="paint2_linear_53_281" x1="50.3207" y1="19.5859" x2="57.4569" y2="25.8609" gradientUnits="userSpaceOnUse">
<stop stop-color="#0ED574"/>
<stop offset="1" stop-color="#07F076"/>
</linearGradient>
</defs>
</svg>
