<svg width="41" height="41" viewBox="0 0 41 41" fill="none" xmlns="http://www.w3.org/2000/svg">
<path d="M20.3825 0.164505C9.2517 0.164505 0.227783 9.18842 0.227783 20.3192C0.227783 31.45 9.2517 40.4739 20.3825 40.4739C31.5133 40.4739 40.5372 31.45 40.5372 20.3192C40.5372 9.18842 31.5133 0.164505 20.3825 0.164505ZM20.3825 38.9298C10.1127 38.925 1.7911 30.589 1.79591 20.3192C1.80072 10.0494 10.1368 1.72782 20.4065 1.73263C30.6763 1.73744 38.9979 10.0735 38.9931 20.3433C38.9931 22.9696 38.4351 25.5671 37.3528 27.9626C34.3465 34.6392 27.7036 38.9298 20.3825 38.9298Z" fill="white"/>
<path d="M26.5782 9.41035H14.1871C11.6521 9.3863 9.57413 11.4162 9.53564 13.9512V26.703C9.56451 29.2428 11.6473 31.2727 14.1823 31.2438H26.5589C29.0987 31.2727 31.1767 29.2428 31.2104 26.703V13.9512C31.1815 11.4162 29.1083 9.3863 26.5782 9.41035ZM29.3584 26.703C29.3584 28.1893 28.1559 29.3919 26.6744 29.3919C26.6407 29.3919 26.6118 29.3919 26.5782 29.3919H14.1871C12.7056 29.4448 11.4597 28.2855 11.4068 26.7992C11.4068 26.7655 11.4068 26.7367 11.4068 26.703V13.9512C11.4068 12.4648 12.6094 11.2623 14.0909 11.2623C14.1246 11.2623 14.1534 11.2623 14.1871 11.2623H26.5637C28.0453 11.2094 29.2911 12.3686 29.344 13.855C29.344 13.8886 29.344 13.9175 29.344 13.9512L29.3584 26.703Z" fill="white"/>
<path d="M20.3826 14.6484C17.2512 14.6484 14.7114 17.1882 14.7114 20.3197C14.7114 23.4511 17.2512 25.9909 20.3826 25.9909C23.5141 25.9909 26.0539 23.4511 26.0539 20.3197C26.0539 17.1882 23.5141 14.6484 20.3826 14.6484ZM20.3826 24.0572C18.2902 24.0572 16.5922 22.3592 16.5922 20.2667C16.5922 18.1743 18.2902 16.4763 20.3826 16.4763C22.4751 16.4763 24.1731 18.1743 24.1731 20.2667C24.1731 20.286 24.1731 20.3004 24.1731 20.3197C24.1635 22.4073 22.4751 24.1005 20.3826 24.1101V24.0572Z" fill="white"/>
<path d="M26.4674 15.6969C27.2033 15.6969 27.7999 15.1003 27.7999 14.3645C27.7999 13.6286 27.2033 13.032 26.4674 13.032C25.7316 13.032 25.135 13.6286 25.135 14.3645C25.135 15.1003 25.7316 15.6969 26.4674 15.6969Z" fill="white"/>
</svg>
