<svg width="301" height="54" viewBox="0 0 301 54" fill="none" xmlns="http://www.w3.org/2000/svg">
<g clip-path="url(#clip0_33_2361)">
<mask id="mask0_33_2361" style="mask-type:luminance" maskUnits="userSpaceOnUse" x="0" y="0" width="301" height="54">
<path d="M300.313 0.5H0.687012V53.5H300.313V0.5Z" fill="white"/>
</mask>
<g mask="url(#mask0_33_2361)">
<path d="M105.669 45.8279C104.91 45.8279 104.169 46.0529 103.538 46.4744C102.907 46.8959 102.415 47.495 102.125 48.1959C101.835 48.8968 101.759 49.6682 101.907 50.4123C102.055 51.1564 102.42 51.8399 102.957 52.3763C103.493 52.9128 104.177 53.2782 104.921 53.4262C105.665 53.5742 106.436 53.4982 107.137 53.2079C107.838 52.9175 108.437 52.4259 108.859 51.7951C109.28 51.1642 109.505 50.4226 109.505 49.6639C109.505 48.6465 109.101 47.6708 108.381 46.9514C107.662 46.232 106.686 45.8279 105.669 45.8279Z" fill="#1FA6D6"/>
<path d="M71.433 45.8279C70.6743 45.8279 69.9326 46.0529 69.3018 46.4744C68.671 46.8959 68.1793 47.495 67.889 48.1959C67.5986 48.8968 67.5227 49.6682 67.6707 50.4123C67.8187 51.1564 68.1841 51.8399 68.7205 52.3763C69.257 52.9128 69.9405 53.2782 70.6846 53.4262C71.4287 53.5742 72.2 53.4982 72.901 53.2079C73.6019 52.9175 74.201 52.4259 74.6225 51.7951C75.044 51.1642 75.269 50.4226 75.269 49.6639C75.269 48.6465 74.8648 47.6708 74.1454 46.9514C73.4261 46.232 72.4503 45.8279 71.433 45.8279Z" fill="#1FA6D6"/>
<path d="M109.708 23.906L106.377 31.042H70.814L74.141 23.906L81.726 7.63695H73.926L76.653 1.79095L77.253 0.501953H92.933L89.604 7.63995L82.017 23.909L109.708 23.906Z" fill="#1FA6D6"/>
<path d="M117.311 12.488H89.618L86.291 19.623H113.984L106.396 35.891H69.091L65.765 43.023V43.029H110.94L114.268 35.891L121.853 19.623L125.181 12.488H117.311Z" fill="#1FA6D6"/>
<path d="M81.556 7.63506H73.924L76.651 1.78906L81.556 7.63506Z" fill="#1FA6D6"/>
<path d="M73.301 10.5769L70.621 16.3289L52.999 15.6189L46.927 15.3769L0.687012 13.5149L46.987 11.6419L55.012 11.3169L73.301 10.5769Z" fill="#1FA6D6"/>
<path d="M50.7 40.398L59.562 40.043L58.405 42.523C48.3477 42.1163 38.2877 41.711 28.225 41.307L50.7 40.398Z" fill="#F9CDA2"/>
<path d="M64.132 30.2439L62.485 33.7729L19.5 32.0409L64.132 30.2439Z" fill="#75B344"/>
<path d="M68.723 20.396L66.549 25.071L9.65802 22.777L68.723 20.396Z" fill="#EE0882"/>
<path d="M100.057 4.81286C100.028 4.81285 99.9988 4.80672 99.972 4.79486L99.283 4.48486C99.2329 4.46231 99.1938 4.42078 99.1742 4.3694C99.1547 4.31801 99.1565 4.26098 99.179 4.21086C99.2016 4.16073 99.2431 4.12161 99.2945 4.10211C99.3458 4.08261 99.4029 4.08431 99.453 4.10686L100.143 4.41686C100.189 4.4345 100.227 4.468 100.251 4.51132C100.274 4.55465 100.282 4.60495 100.271 4.65317C100.261 4.7014 100.234 4.74438 100.195 4.77439C100.156 4.8044 100.107 4.81946 100.058 4.81686" fill="#1FA6D6"/>
<path d="M99.377 3.29592C99.3288 3.2955 99.2824 3.27831 99.2455 3.24731C99.2087 3.21632 99.1838 3.17345 99.1752 3.12609C99.1665 3.07873 99.1747 3.02984 99.1982 2.98783C99.2217 2.94582 99.2591 2.91332 99.304 2.89592L100.011 2.62892C100.037 2.61796 100.064 2.6123 100.092 2.6123C100.12 2.6123 100.148 2.61796 100.173 2.62892C100.199 2.63988 100.222 2.65592 100.242 2.67608C100.261 2.69625 100.276 2.72011 100.286 2.74624C100.296 2.77237 100.3 2.80022 100.299 2.82812C100.298 2.85602 100.291 2.88339 100.279 2.90859C100.267 2.93378 100.25 2.95628 100.229 2.97472C100.208 2.99317 100.184 3.00718 100.157 3.01592L99.45 3.28292C99.4267 3.29176 99.4019 3.29617 99.377 3.29592Z" fill="#1FA6D6"/>
<path d="M98.529 2.43199C98.4943 2.43211 98.4601 2.42349 98.4296 2.40692C98.399 2.39036 98.3732 2.36638 98.3544 2.3372C98.3355 2.30801 98.3243 2.27456 98.3218 2.23993C98.3193 2.20529 98.3256 2.17058 98.34 2.13899L98.653 1.44999C98.6761 1.40067 98.7177 1.36245 98.7688 1.3436C98.8199 1.32476 98.8764 1.3268 98.926 1.3493C98.9755 1.37179 99.0143 1.41292 99.0338 1.46378C99.0532 1.51464 99.0519 1.57112 99.03 1.62099L98.717 2.30999C98.7006 2.34638 98.6741 2.37726 98.6405 2.3989C98.607 2.42055 98.5679 2.43204 98.528 2.43199" fill="#1FA6D6"/>
<path d="M97.319 2.41901C97.2768 2.419 97.2356 2.40606 97.2009 2.38192C97.1662 2.35779 97.1397 2.32363 97.125 2.28401L96.86 1.57501C96.8505 1.54954 96.8461 1.52244 96.8471 1.49526C96.848 1.46807 96.8543 1.44135 96.8656 1.4166C96.8769 1.39185 96.8929 1.36957 96.9128 1.35103C96.9327 1.33248 96.956 1.31804 96.9815 1.30851C97.007 1.29899 97.0341 1.29458 97.0613 1.29554C97.0885 1.29649 97.1152 1.30279 97.1399 1.31407C97.1647 1.32535 97.187 1.3414 97.2055 1.36129C97.2241 1.38119 97.2385 1.40454 97.248 1.43001L97.513 2.13801C97.5321 2.18934 97.5302 2.24615 97.5075 2.29601C97.4848 2.34587 97.4433 2.38471 97.392 2.40401C97.3686 2.41266 97.3439 2.41707 97.319 2.41701" fill="#1FA6D6"/>
<path d="M96.452 3.26288C96.4223 3.26302 96.3929 3.25653 96.366 3.24388L95.679 2.92888C95.653 2.91851 95.6292 2.90295 95.6094 2.88313C95.5895 2.86332 95.5739 2.83967 95.5634 2.81363C95.553 2.78758 95.5479 2.75969 95.5486 2.73163C95.5492 2.70358 95.5556 2.67595 95.5673 2.65043C95.579 2.62491 95.5957 2.60203 95.6165 2.58318C95.6373 2.56434 95.6617 2.54991 95.6882 2.54079C95.7148 2.53166 95.7429 2.52803 95.7709 2.53011C95.7989 2.53219 95.8261 2.53994 95.851 2.55288L96.538 2.86788C96.5842 2.88553 96.6225 2.91911 96.6461 2.96255C96.6696 3.00599 96.6769 3.05643 96.6665 3.10475C96.6561 3.15306 96.6288 3.19607 96.5894 3.22599C96.5501 3.25591 96.5014 3.27077 96.452 3.26788" fill="#1FA6D6"/>
<path d="M94.041 6.79595L98.056 3.34595L98.063 8.61295L96.763 7.60495L95.578 10.2269L95.054 9.98995L94.529 9.75295L95.714 7.12995L94.041 6.79595Z" fill="#1FA6D6"/>
<path d="M131.716 37.237V40.526H135.625V41.448H131.716V44.889H136.45V45.825H130.656V36.302H136.45V37.238L131.716 37.237Z" fill="#75B344"/>
<path d="M147.639 44.875V45.825H142.396V36.302H143.456V44.876L147.639 44.875Z" fill="#75B344"/>
<path d="M154.176 37.237V40.526H158.085V41.448H154.176V44.889H158.91V45.825H153.116V36.302H158.91V37.238L154.176 37.237Z" fill="#75B344"/>
<path d="M165.75 45.4189C165.213 45.0357 164.831 44.4716 164.676 43.8299C164.291 42.0081 164.291 40.1257 164.676 38.3039C164.827 37.6628 165.2 37.0958 165.729 36.7039C166.387 36.3015 167.154 36.1119 167.924 36.1609C168.79 36.174 169.652 36.2745 170.498 36.4609L170.457 37.3559C169.668 37.2044 168.867 37.1214 168.063 37.1079C167.495 37.0703 166.929 37.2048 166.439 37.4939C166.042 37.7977 165.775 38.2397 165.689 38.7319C165.534 39.548 165.467 40.3785 165.489 41.2089C165.47 41.9468 165.533 42.6846 165.675 43.4089C165.769 43.8912 166.042 44.3201 166.439 44.6089C166.968 44.9162 167.577 45.0577 168.187 45.0149C168.95 45.0012 169.71 44.9182 170.458 44.7669L170.499 45.6749C169.677 45.8536 168.84 45.9504 167.999 45.9639C167.214 46.0123 166.432 45.8227 165.756 45.4199" fill="#75B344"/>
<path d="M178.3 37.2491H175.369V36.2991H182.247V37.2491H179.347V45.8231H178.301L178.3 37.2491Z" fill="#75B344"/>
<path d="M187.728 36.301H191.251C192.075 36.2371 192.892 36.4907 193.535 37.01C193.806 37.3007 194.013 37.645 194.144 38.0205C194.274 38.3961 194.325 38.7948 194.292 39.191C194.372 39.7839 194.24 40.3859 193.921 40.8916C193.601 41.3973 193.114 41.7745 192.544 41.9569L194.375 45.824H193.205L191.485 42.177H188.785V45.824H187.725L187.728 36.301ZM191.265 41.242C191.795 41.2401 192.303 41.0276 192.677 40.6512C193.051 40.2748 193.26 39.7654 193.258 39.2349C193.256 38.7045 193.044 38.1966 192.667 37.8228C192.291 37.449 191.781 37.2401 191.251 37.242H188.787V41.242H191.265Z" fill="#75B344"/>
<path d="M201.476 45.453C200.908 45.0912 200.49 44.5365 200.299 43.891C199.829 42.058 199.832 40.1359 200.306 38.304C200.499 37.6449 200.918 37.0749 201.49 36.694C202.177 36.3459 202.936 36.1646 203.705 36.1646C204.475 36.1646 205.234 36.3459 205.921 36.694C206.493 37.0759 206.914 37.6452 207.111 38.304C207.592 40.1465 207.597 42.0812 207.125 43.926C206.935 44.5649 206.519 45.1127 205.955 45.467C205.268 45.8324 204.495 46.0052 203.718 45.967C202.938 46.0065 202.162 45.8304 201.475 45.458M205.335 44.646C205.74 44.35 206.024 43.9173 206.135 43.428C206.313 42.6778 206.391 41.9076 206.369 41.137C206.39 40.3545 206.309 39.5726 206.128 38.811C206.011 38.3006 205.722 37.8461 205.309 37.524C204.83 37.218 204.266 37.071 203.699 37.104C203.132 37.0712 202.57 37.2155 202.089 37.517C201.675 37.8353 201.386 38.288 201.27 38.797C200.952 40.3136 200.949 41.8795 201.263 43.397C201.375 43.8963 201.667 44.3372 202.082 44.636C202.575 44.9241 203.143 45.0605 203.713 45.028C204.278 45.0615 204.841 44.9276 205.33 44.643" fill="#75B344"/>
<path d="M220.509 36.301V45.825H218.569L214.869 37.237H214.607V45.825H213.547V36.301H215.529L219.19 44.889H219.465V36.301H220.509Z" fill="#75B344"/>
<path d="M228.037 36.301H226.977V45.824H228.037V36.301Z" fill="#75B344"/>
<path d="M235.496 45.4189C234.958 45.0357 234.577 44.4715 234.422 43.8299C234.037 42.008 234.037 40.1257 234.422 38.3039C234.573 37.6628 234.946 37.0958 235.475 36.7039C236.133 36.3015 236.9 36.1119 237.67 36.1609C238.536 36.174 239.398 36.2745 240.244 36.4609L240.203 37.3559C239.414 37.2044 238.613 37.1214 237.809 37.1079C237.241 37.0703 236.675 37.2048 236.185 37.4939C235.788 37.7977 235.521 38.2397 235.435 38.7319C235.28 39.548 235.213 40.3784 235.235 41.2089C235.216 41.9468 235.279 42.6846 235.421 43.4089C235.514 43.8912 235.787 44.3201 236.185 44.6089C236.714 44.9162 237.323 45.0577 237.933 45.0149C238.696 45.0011 239.455 44.9181 240.203 44.7669L240.244 45.6749C239.422 45.8536 238.585 45.9504 237.744 45.9639C236.959 46.0123 236.177 45.8227 235.501 45.4199" fill="#75B344"/>
<path d="M262.483 36.301V45.825H261.423V37.425H261.23L258.464 45.476H257.28L254.514 37.425H254.321V45.825H253.261V36.301H255.174L257.874 44.366L260.574 36.301H262.483Z" fill="#75B344"/>
<path d="M270.093 45.453C269.525 45.0912 269.107 44.5365 268.916 43.891C268.446 42.058 268.449 40.1358 268.923 38.304C269.116 37.6448 269.535 37.0748 270.107 36.694C270.794 36.3459 271.553 36.1646 272.323 36.1646C273.092 36.1646 273.851 36.3459 274.538 36.694C275.11 37.0758 275.531 37.6452 275.728 38.304C276.21 40.1465 276.214 42.0812 275.742 43.926C275.552 44.5648 275.136 45.1126 274.572 45.467C273.885 45.8324 273.112 46.0052 272.335 45.967C271.555 46.0065 270.779 45.8304 270.092 45.458M273.952 44.646C274.359 44.3507 274.645 43.918 274.757 43.428C274.935 42.6778 275.013 41.9076 274.991 41.137C275.012 40.3545 274.931 39.5726 274.75 38.811C274.633 38.3006 274.344 37.8461 273.931 37.524C273.452 37.218 272.889 37.071 272.321 37.104C271.754 37.0711 271.192 37.2155 270.711 37.517C270.297 37.8352 270.008 38.288 269.892 38.797C269.574 40.3136 269.571 41.8795 269.885 43.397C269.997 43.8963 270.289 44.3371 270.704 44.636C271.197 44.9242 271.765 45.0605 272.335 45.028C272.9 45.0616 273.463 44.9277 273.952 44.643" fill="#75B344"/>
<path d="M287.406 44.875V45.825H282.163V36.302H283.223V44.876L287.406 44.875Z" fill="#75B344"/>
<path d="M293.943 37.237V40.526H297.852V41.448H293.943V44.889H298.677V45.825H292.883V36.302H298.677V37.238L293.943 37.237Z" fill="#75B344"/>
<path d="M133.116 20.3439H131.942C131.827 20.3419 131.714 20.3631 131.608 20.406C131.501 20.449 131.405 20.5129 131.324 20.5939C131.242 20.6706 131.177 20.7636 131.133 20.8669C131.089 20.9702 131.067 21.0816 131.068 21.1939V25.4339C131.078 25.6056 131.135 25.7713 131.233 25.9125C131.331 26.0538 131.466 26.165 131.624 26.2339C131.726 26.273 131.834 26.293 131.943 26.2929H136.021C136.133 26.2944 136.244 26.2731 136.347 26.2301C136.45 26.1871 136.543 26.1234 136.621 26.0429C136.708 25.9687 136.778 25.8756 136.824 25.7706C136.871 25.6657 136.893 25.5516 136.889 25.4369V21.1939C136.89 20.921 136.949 20.6515 137.064 20.4039C137.178 20.1519 137.34 19.9249 137.542 19.7359C137.747 19.5444 137.987 19.3937 138.248 19.2919C138.517 19.1856 138.804 19.1317 139.094 19.1329C139.388 19.1355 139.679 19.1981 139.949 19.3169C140.217 19.4272 140.463 19.5836 140.677 19.7789C140.87 19.9576 141.022 20.176 141.123 20.4189C141.158 20.4792 141.187 20.5428 141.21 20.6089C141.223 20.6529 141.239 20.7289 141.26 20.8369C141.282 20.9543 141.292 21.0735 141.291 21.1929V25.4459C141.288 25.5578 141.309 25.6691 141.352 25.7724C141.395 25.8758 141.46 25.969 141.541 26.0459C141.627 26.1282 141.729 26.1918 141.841 26.2329C141.993 26.2809 142.153 26.3022 142.313 26.2959V27.5009C141.967 27.5101 141.622 27.4572 141.295 27.3449C141.034 27.2345 140.795 27.078 140.589 26.8829C140.388 26.695 140.227 26.4689 140.115 26.2179C140.01 25.9745 139.957 25.7119 139.959 25.4469V21.1939C139.962 21.082 139.941 20.9707 139.898 20.8674C139.855 20.764 139.79 20.6708 139.709 20.5939C139.625 20.5126 139.525 20.449 139.416 20.4069C139.324 20.3701 139.227 20.3489 139.129 20.3439H139.06C138.846 20.3476 138.642 20.4352 138.492 20.5879C138.406 20.6647 138.337 20.7597 138.292 20.8659C138.246 20.9691 138.221 21.0808 138.22 21.1939V25.4339C138.22 25.7098 138.162 25.9826 138.048 26.2339C137.937 26.4846 137.775 26.7094 137.572 26.8939C137.368 27.0791 137.133 27.228 136.879 27.3339C136.744 27.3852 136.605 27.425 136.464 27.4529C136.319 27.479 136.171 27.4914 136.024 27.4899H131.946C131.645 27.4914 131.346 27.4365 131.065 27.3279C130.811 27.21 130.575 27.0565 130.365 26.8719C130.169 26.6827 130.012 26.4568 129.903 26.2069C129.799 25.9632 129.746 25.7008 129.747 25.4359V21.1939C129.747 21.127 129.751 21.0602 129.76 20.9939C129.769 20.9299 129.779 20.8619 129.791 20.7939C129.818 20.6661 129.855 20.5406 129.903 20.4189C130.018 20.16 130.184 19.9265 130.39 19.7319C130.593 19.5412 130.831 19.3909 131.09 19.2889C131.362 19.1833 131.651 19.1303 131.943 19.1329H133.117L133.116 20.3439Z" fill="#1FA6D6"/>
<path d="M146.144 26.302H142.078V27.52H146.144V26.302Z" fill="#1FA6D6"/>
<path d="M148.28 19.1439V25.4579C148.279 25.7285 148.221 25.9958 148.108 26.2419C147.997 26.4922 147.838 26.7182 147.64 26.9069C147.434 27.0992 147.194 27.2499 146.931 27.3509C146.67 27.4462 146.396 27.5008 146.119 27.5129H145.919V26.3069C146.195 26.3291 146.469 26.2414 146.681 26.0629C146.767 25.9876 146.836 25.894 146.881 25.7889C146.925 25.6841 146.947 25.5715 146.946 25.4579V19.1439H148.28ZM146.943 17.2019H148.28V18.4139H146.943V17.2019Z" fill="#1FA6D6"/>
<path d="M158.413 27.501C158.413 27.7649 158.36 28.0262 158.257 28.269C158.153 28.5149 157.992 28.733 157.789 28.906C157.587 29.102 157.349 29.2578 157.089 29.365C156.039 29.5258 154.974 29.5668 153.914 29.487V28.275C155.575 28.287 156.456 28.2777 156.559 28.247C156.66 28.2166 156.753 28.1643 156.831 28.094C156.914 28.0199 156.981 27.9284 157.025 27.8259C157.069 27.7235 157.09 27.6126 157.087 27.501V27.36C156.994 27.3769 156.902 27.3999 156.812 27.429L156.544 27.479L156.244 27.51H152.185C151.893 27.5144 151.603 27.459 151.333 27.347C151.08 27.2378 150.846 27.0867 150.643 26.9C150.443 26.7181 150.283 26.497 150.172 26.2505C150.062 26.0039 150.003 25.7372 150 25.467V21.267C149.999 21.005 150.052 20.7455 150.156 20.505C150.266 20.2558 150.425 20.0315 150.624 19.846C150.827 19.6514 151.065 19.4958 151.324 19.387C151.597 19.2764 151.889 19.2214 152.183 19.225H156.23C156.374 19.2241 156.519 19.2355 156.661 19.259C156.801 19.2838 156.937 19.3247 157.067 19.381C157.331 19.4885 157.573 19.6407 157.785 19.831C157.98 20.0153 158.136 20.2371 158.244 20.483C158.357 20.7291 158.415 20.9964 158.416 21.267L158.413 27.501ZM151.589 20.66C151.505 20.7367 151.438 20.8302 151.393 20.9345C151.348 21.0388 151.326 21.1514 151.327 21.265V25.465C151.323 25.5822 151.347 25.6987 151.396 25.805C151.448 25.9022 151.513 25.9915 151.59 26.07C151.668 26.1467 151.761 26.2072 151.863 26.2478C151.965 26.2885 152.073 26.3086 152.183 26.307H156.23C156.335 26.3052 156.439 26.2838 156.536 26.244C156.644 26.2025 156.744 26.1411 156.83 26.063C156.913 25.9873 156.979 25.8945 157.024 25.7909C157.068 25.6874 157.089 25.5756 157.086 25.463V21.263C157.088 21.1483 157.066 21.0345 157.021 20.929C156.976 20.8288 156.911 20.7385 156.831 20.663C156.752 20.5843 156.659 20.5223 156.556 20.4805C156.453 20.4388 156.342 20.4182 156.231 20.42H152.184C152.074 20.4195 151.965 20.4385 151.862 20.476C151.759 20.5144 151.665 20.5764 151.59 20.657" fill="#1FA6D6"/>
<path d="M162.492 25.4578C162.49 25.5704 162.513 25.6821 162.56 25.7847C162.606 25.8872 162.675 25.9781 162.761 26.0508C162.916 26.1997 163.121 26.2866 163.336 26.2948H163.517V27.4998C163.169 27.5268 162.82 27.4777 162.493 27.3558V27.4808C162.494 27.7535 162.435 28.0231 162.321 28.2708C162.209 28.5238 162.047 28.7516 161.844 28.9405C161.642 29.1295 161.404 29.2759 161.144 29.3708C160.88 29.4711 160.602 29.5282 160.32 29.5398H160.139V28.3308C160.244 28.3345 160.348 28.3261 160.451 28.3058C160.513 28.2888 160.568 28.2728 160.613 28.2558C160.721 28.2143 160.819 28.1529 160.904 28.0748C160.981 27.9971 161.044 27.906 161.088 27.8058C161.137 27.7046 161.163 27.5935 161.163 27.4808V19.1318H162.493L162.492 25.4578Z" fill="#1FA6D6"/>
<path d="M167.395 26.302H163.329V27.52H167.395V26.302Z" fill="#1FA6D6"/>
<path d="M168.881 26.9068C168.684 27.0893 168.455 27.2334 168.206 27.3318C167.881 27.4532 167.535 27.5106 167.188 27.5008V26.2948C167.466 26.3153 167.742 26.2243 167.953 26.0418C168.036 25.9654 168.101 25.8726 168.146 25.7692C168.191 25.6659 168.213 25.5544 168.212 25.4418V19.1318H169.542V25.4458C169.542 25.5609 169.565 25.6747 169.612 25.78C169.658 25.8854 169.725 25.98 169.81 26.0578C169.885 26.138 169.977 26.1999 170.079 26.2388C170.237 26.284 170.402 26.3029 170.566 26.2948V27.4998C170.218 27.5114 169.872 27.4518 169.548 27.3248C169.303 27.2249 169.078 27.0835 168.881 26.9068ZM167.25 17.1838H168.587V18.3958H167.25V17.1838ZM169.167 17.1838H170.509V18.3958H169.169L169.167 17.1838Z" fill="#1FA6D6"/>
<path d="M174.421 26.302H170.355V27.52H174.421V26.302Z" fill="#1FA6D6"/>
<path d="M181.796 26.9071C181.6 27.0832 181.373 27.2228 181.128 27.3191C180.851 27.432 180.554 27.4894 180.254 27.4881H173.972V26.2881H180.254C180.366 26.2883 180.478 26.2673 180.582 26.2261C180.737 26.1595 180.87 26.0512 180.966 25.9132C181.063 25.7753 181.119 25.6132 181.129 25.4451V24.0591C181.129 23.9475 181.105 23.8371 181.06 23.7351C181.015 23.633 180.949 23.5414 180.867 23.4661C180.787 23.3844 180.692 23.3197 180.587 23.2757C180.482 23.2317 180.369 23.2094 180.255 23.2101H174.995V21.1941C174.993 20.9271 175.047 20.6627 175.151 20.4171C175.259 20.1684 175.416 19.9441 175.613 19.7581C175.822 19.5593 176.068 19.4043 176.337 19.3021C176.472 19.2531 176.61 19.2114 176.749 19.1771L176.974 19.1461L177.161 19.1331H181.177V20.3441H177.199C177.086 20.3464 176.974 20.3674 176.868 20.4061C176.765 20.4479 176.672 20.5094 176.593 20.5871C176.508 20.6631 176.44 20.7565 176.393 20.861C176.347 20.9655 176.324 21.0788 176.325 21.1931V21.9931H180.253C180.546 21.9908 180.837 22.048 181.108 22.1611C181.37 22.2709 181.613 22.423 181.826 22.6111C182.015 22.8012 182.17 23.0233 182.282 23.2671C182.398 23.5152 182.458 23.786 182.457 24.0601V25.4341C182.455 25.5549 182.481 25.6747 182.532 25.7841C182.577 25.8811 182.638 25.9697 182.713 26.0461C182.788 26.1244 182.878 26.1869 182.978 26.2298C183.078 26.2727 183.185 26.2953 183.294 26.2961H183.481V27.5021H183.3C183.014 27.4913 182.732 27.4363 182.463 27.3391C182.217 27.2356 181.991 27.0898 181.795 26.9081" fill="#1FA6D6"/>
<path d="M187.342 26.302H183.276V27.52H187.342V26.302Z" fill="#1FA6D6"/>
<path d="M189.502 17.084V25.446C189.501 25.7166 189.443 25.9839 189.33 26.23C189.216 26.4849 189.053 26.7144 188.849 26.905C188.645 27.0977 188.408 27.2522 188.149 27.361C187.824 27.4824 187.478 27.5388 187.131 27.527V26.301C187.296 26.3081 187.461 26.2847 187.618 26.232C187.719 26.1938 187.811 26.1341 187.887 26.057C187.974 25.9808 188.043 25.8866 188.089 25.7808C188.136 25.6751 188.159 25.5605 188.156 25.445V17.084H189.502Z" fill="#1FA6D6"/>
<path d="M194.515 18.583V26.295H195.396C195.51 26.298 195.622 26.2765 195.727 26.232C195.828 26.1937 195.92 26.134 195.996 26.057C196.083 25.9807 196.151 25.8864 196.198 25.7807C196.244 25.6749 196.267 25.5604 196.264 25.445V17.084H197.615V25.446C197.616 25.7187 197.557 25.9882 197.443 26.236C197.329 26.4871 197.169 26.7146 196.972 26.907C196.866 27.0076 196.753 27.0996 196.632 27.182C196.515 27.2584 196.391 27.3214 196.26 27.37C195.986 27.4785 195.693 27.5316 195.398 27.526H191.215V26.296H193.182V18.583H194.515Z" fill="#1FA6D6"/>
<path d="M200.637 17.103H199.307V27.501H200.637V17.103Z" fill="#1FA6D6"/>
<path d="M217.979 27.3509C217.93 27.3738 217.878 27.3925 217.826 27.4069C217.786 27.4166 217.748 27.4293 217.71 27.4449C217.522 27.4886 217.329 27.5097 217.136 27.5079H213.088C212.897 27.5141 212.705 27.4929 212.52 27.4449C212.387 27.4029 212.291 27.3739 212.233 27.3569C211.973 27.2441 211.732 27.0901 211.521 26.9009C211.319 26.7179 211.159 26.493 211.053 26.2419C210.95 25.9977 210.896 25.7351 210.897 25.4699V21.2699C210.899 21.0017 210.957 20.7369 211.066 20.4919C211.172 20.2418 211.327 20.0156 211.522 19.8269C211.741 19.6427 211.985 19.4893 212.246 19.3709C212.378 19.3191 212.515 19.2802 212.655 19.2549C212.798 19.2312 212.944 19.2198 213.089 19.2209H217.142C217.361 19.2211 217.579 19.2548 217.788 19.3209C217.992 19.3846 218.187 19.4761 218.366 19.5929C218.54 19.7051 218.696 19.8418 218.831 19.9989C218.96 20.1495 219.066 20.3179 219.146 20.4989C219.267 20.739 219.327 21.0051 219.321 21.2739V27.4999C219.323 27.7718 219.261 28.0403 219.14 28.2839C219.021 28.5246 218.861 28.7424 218.666 28.9269C218.465 29.1155 218.233 29.2669 217.979 29.3739H217.973C218.019 29.3529 217.973 29.3739 217.848 29.4239C217.845 29.4273 217.841 29.4294 217.836 29.4299L217.58 29.5429L217.517 29.5559H207.575C206.995 29.5548 206.437 29.3339 206.014 28.9379C205.815 28.7551 205.656 28.533 205.548 28.2856C205.439 28.0383 205.383 27.7711 205.383 27.5009V21.2739C205.379 21.0042 205.434 20.737 205.543 20.4902C205.652 20.2435 205.812 20.0231 206.014 19.8439C206.225 19.6544 206.466 19.5003 206.726 19.3879C206.995 19.277 207.284 19.2219 207.575 19.2259H208.755V20.4379H207.575C207.463 20.4336 207.351 20.4518 207.246 20.4915C207.14 20.5311 207.044 20.5915 206.963 20.6689C206.889 20.7494 206.827 20.8412 206.782 20.9409C206.732 21.0453 206.707 21.1594 206.707 21.2749V27.5009C206.709 27.6169 206.736 27.731 206.788 27.8349C206.832 27.9341 206.891 28.0258 206.963 28.1069C207.129 28.2616 207.348 28.3465 207.575 28.3439H217.155C217.371 28.3313 217.576 28.2456 217.736 28.1009C217.82 28.0293 217.882 27.9363 217.917 27.8319C217.941 27.7765 217.96 27.7189 217.973 27.6599C217.982 27.6074 217.986 27.5542 217.986 27.5009L217.979 27.3509ZM212.758 20.4809C212.657 20.5281 212.564 20.5912 212.483 20.6679C212.402 20.7465 212.337 20.8407 212.293 20.9448C212.249 21.049 212.227 21.1609 212.227 21.2739V25.4739C212.229 25.5907 212.248 25.7066 212.283 25.8179C212.316 25.8639 212.35 25.9096 212.383 25.9549C212.412 25.9996 212.446 26.0415 212.483 26.0799C212.562 26.1567 212.656 26.2167 212.76 26.2564C212.863 26.2961 212.973 26.3146 213.083 26.3109H217.136C217.245 26.3109 217.352 26.2909 217.454 26.2519C217.558 26.2119 217.653 26.1487 217.729 26.0669C217.809 25.9904 217.872 25.8983 217.915 25.7963C217.958 25.6943 217.98 25.5846 217.979 25.4739V21.2739C217.98 21.155 217.958 21.0371 217.913 20.9269C217.875 20.8281 217.811 20.7409 217.729 20.6739C217.572 20.5146 217.359 20.4227 217.136 20.4179H213.088C212.977 20.417 212.866 20.4384 212.763 20.4809M213.819 17.1809H215.149V18.3929H213.819V17.1809ZM215.861 17.1809H217.191V18.3929H215.861V17.1809ZM255.627 17.1809H256.957V18.3929H255.627V17.1809ZM257.669 17.1809H258.999V18.3929H257.669V17.1809Z" fill="#1FA6D6"/>
<path d="M229.426 27.4819C229.426 27.7458 229.373 28.0071 229.27 28.2499C229.166 28.4957 229.005 28.7139 228.802 28.8869C228.6 29.0826 228.363 29.2374 228.102 29.3429C227.053 29.4962 225.99 29.5298 224.933 29.4429V28.2629C226.59 28.2716 227.47 28.2602 227.572 28.2289C227.673 28.1984 227.766 28.1462 227.844 28.0759C227.927 28.0018 227.994 27.9103 228.038 27.8078C228.082 27.7054 228.103 27.5944 228.1 27.4829V27.3449C228.007 27.3621 227.915 27.3852 227.825 27.4139L227.557 27.4639L227.257 27.4949H223.189C222.897 27.4993 222.607 27.4438 222.337 27.3319C222.084 27.2227 221.85 27.0716 221.647 26.8849C221.447 26.7031 221.287 26.4819 221.176 26.2354C221.066 25.9888 221.007 25.7221 221.004 25.4519V21.2519C221.003 20.9898 221.056 20.7304 221.16 20.4899C221.27 20.2407 221.429 20.0164 221.628 19.8309C221.831 19.6364 222.069 19.4808 222.328 19.3719C222.601 19.2613 222.893 19.2062 223.187 19.2099H227.234C227.378 19.209 227.523 19.2204 227.665 19.2439C227.805 19.2686 227.941 19.3096 228.071 19.3659C228.334 19.4736 228.577 19.6258 228.789 19.8159C228.984 20.0005 229.14 20.2226 229.248 20.4689C229.361 20.715 229.419 20.9823 229.42 21.2529V25.4529C229.413 25.5674 229.433 25.6819 229.478 25.7872C229.524 25.8925 229.594 25.9856 229.682 26.0589C229.755 26.1338 229.843 26.1933 229.939 26.234C230.036 26.2747 230.139 26.2957 230.244 26.2959H230.425V27.4959C230.181 27.5021 229.938 27.4769 229.701 27.4209C229.659 27.4129 229.618 27.4019 229.576 27.3899C229.534 27.3779 229.482 27.3589 229.42 27.3339L229.426 27.4819ZM222.6 20.6429C222.516 20.7197 222.449 20.8134 222.404 20.9178C222.359 21.0223 222.336 21.1351 222.338 21.2489V25.4489C222.334 25.5661 222.358 25.6826 222.407 25.7889C222.458 25.8865 222.524 25.9761 222.601 26.0549C222.679 26.1315 222.772 26.1919 222.874 26.2325C222.976 26.2732 223.084 26.2934 223.194 26.2919H227.241C227.346 26.2899 227.45 26.2685 227.547 26.2289C227.655 26.1873 227.755 26.1259 227.841 26.0479C227.924 25.9722 227.99 25.8794 228.034 25.7758C228.079 25.6723 228.1 25.5604 228.097 25.4479V21.2479C228.099 21.1332 228.077 21.0194 228.032 20.9139C227.986 20.8141 227.922 20.7241 227.842 20.6489C227.763 20.5702 227.67 20.5081 227.567 20.4664C227.464 20.4247 227.353 20.4041 227.242 20.4059H223.189C223.079 20.4054 222.97 20.4243 222.867 20.4619C222.764 20.5003 222.67 20.5623 222.595 20.6429" fill="#1FA6D6"/>
<path d="M234.267 26.302H230.201V27.52H234.267V26.302Z" fill="#1FA6D6"/>
<path d="M238.719 26.92C238.521 27.0952 238.295 27.2364 238.051 27.338C237.915 27.3871 237.775 27.4249 237.633 27.451C237.491 27.4763 237.352 27.495 237.215 27.507H237.19C236.897 27.5065 236.607 27.4512 236.334 27.344C236.202 27.2912 236.077 27.2241 235.96 27.144C235.856 27.0721 235.756 26.995 235.66 26.913C235.462 27.0865 235.236 27.2257 234.992 27.325C234.669 27.4548 234.322 27.5164 233.974 27.506V26.295C234.251 26.3151 234.526 26.2265 234.739 26.048C234.822 25.9721 234.889 25.8793 234.933 25.7759C234.978 25.6724 235 25.5606 234.998 25.448V19.147H236.328V25.447C236.327 25.5606 236.353 25.6729 236.403 25.775C236.453 25.877 236.518 25.9707 236.596 26.053C236.748 26.1983 236.948 26.2827 237.158 26.29H237.221C237.315 26.2836 237.408 26.2627 237.496 26.228C237.604 26.1863 237.703 26.1249 237.789 26.047C237.873 25.9718 237.941 25.8792 237.986 25.7757C238.031 25.6721 238.054 25.56 238.052 25.447V19.147H239.382V25.447C239.384 25.5626 239.408 25.6768 239.451 25.784C239.498 25.8845 239.566 25.9739 239.651 26.046C239.73 26.1247 239.823 26.1868 239.926 26.2285C240.029 26.2703 240.14 26.2908 240.251 26.289C240.356 26.2872 240.46 26.2662 240.557 26.227C240.665 26.1852 240.765 26.1238 240.851 26.046C240.935 25.9706 241.002 25.878 241.047 25.7745C241.093 25.671 241.115 25.5589 241.113 25.446V19.147H242.443V25.447C242.442 25.5606 242.468 25.6729 242.518 25.775C242.568 25.8771 242.633 25.9709 242.712 26.053C242.864 26.1984 243.064 26.2827 243.274 26.29H243.462V27.507C243.118 27.5154 242.774 27.4601 242.45 27.344C242.318 27.2913 242.192 27.2242 242.075 27.144C241.984 27.0813 241.884 27.0043 241.775 26.913C241.581 27.0918 241.357 27.2353 241.113 27.337C240.978 27.386 240.839 27.4258 240.698 27.456C240.551 27.4888 240.401 27.5055 240.251 27.506C240.174 27.5063 240.097 27.5019 240.02 27.493C239.949 27.485 239.865 27.4726 239.767 27.456C239.64 27.4315 239.516 27.396 239.395 27.35C239.239 27.2799 239.091 27.1941 238.952 27.094L238.727 26.776C238.636 26.9133 238.632 26.9593 238.715 26.914L238.719 26.92Z" fill="#1FA6D6"/>
<path d="M245.694 17.084V25.446C245.693 25.7166 245.634 25.9839 245.522 26.23C245.408 26.4849 245.245 26.7145 245.041 26.905C244.837 27.0977 244.6 27.2522 244.341 27.361C244.016 27.4824 243.67 27.5388 243.323 27.527V26.301C243.488 26.3081 243.653 26.2847 243.81 26.232C243.911 26.1937 244.003 26.134 244.079 26.057C244.166 25.9807 244.234 25.8864 244.281 25.7807C244.327 25.6749 244.35 25.5604 244.347 25.445V17.084H245.694Z" fill="#1FA6D6"/>
<path d="M248.829 17.103H247.499V27.501H248.829V17.103Z" fill="#1FA6D6"/>
<path d="M261.476 26.9201C261.281 27.0938 261.057 27.2313 260.814 27.3261C260.541 27.4385 260.248 27.4959 259.952 27.4951H255.852C255.562 27.4991 255.273 27.4461 255.003 27.3391C254.874 27.2871 254.749 27.2235 254.631 27.1491C254.509 27.0699 254.395 26.9788 254.291 26.8771C254.092 26.6866 253.933 26.4585 253.823 26.2061C253.713 25.9637 253.656 25.7011 253.654 25.4351V21.1941C253.653 20.9249 253.706 20.6582 253.81 20.4101C253.913 20.1641 254.07 19.9443 254.269 19.7671C254.486 19.5765 254.733 19.4234 255 19.3141C255.269 19.1968 255.559 19.1352 255.852 19.1331H259.952C260.24 19.1325 260.526 19.1854 260.795 19.2891C261.058 19.3884 261.299 19.539 261.504 19.7321C261.705 19.9222 261.866 20.1503 261.979 20.4031C262.092 20.6512 262.15 20.9205 262.151 21.1931V25.4331C262.152 25.5491 262.176 25.6638 262.223 25.7701C262.286 25.9221 262.392 26.0525 262.528 26.1457C262.664 26.2388 262.823 26.2907 262.988 26.2951H263.175V27.5071H262.994C262.71 27.4976 262.43 27.4426 262.163 27.3441C261.915 27.2363 261.683 27.0942 261.476 26.9201ZM255.25 20.5871C255.167 20.6642 255.101 20.7581 255.057 20.8625C255.013 20.967 254.991 21.0797 254.994 21.1931V25.4331C254.993 25.5454 255.015 25.6568 255.059 25.7601C255.103 25.8634 255.168 25.9564 255.25 26.0331C255.329 26.1134 255.423 26.1769 255.528 26.2199C255.632 26.2628 255.743 26.2843 255.856 26.2831H259.956C260.063 26.2861 260.17 26.2681 260.271 26.2301C260.372 26.1848 260.466 26.1248 260.549 26.0521C260.629 25.9697 260.694 25.8734 260.74 25.7681C260.79 25.6637 260.816 25.5497 260.818 25.4341V21.1941C260.821 21.081 260.8 20.9686 260.756 20.8642C260.712 20.7598 260.647 20.6657 260.565 20.5881C260.485 20.5089 260.39 20.4466 260.285 20.4047C260.181 20.3628 260.069 20.3422 259.956 20.3441H255.856C255.746 20.3428 255.637 20.3607 255.534 20.3971C255.427 20.4387 255.33 20.5036 255.25 20.5871Z" fill="#1FA6D6"/>
<path d="M267.015 26.302H262.949V27.52H267.015V26.302Z" fill="#1FA6D6"/>
<path d="M269.094 19.201V19.913C269.292 19.7337 269.518 19.5872 269.762 19.479C270.119 19.294 270.515 19.1986 270.917 19.201H277.068C277.387 19.1983 277.701 19.2838 277.974 19.448C278.253 19.6161 278.493 19.8406 278.68 20.107C278.936 20.467 279.102 20.8822 279.167 21.319L279.217 21.637V25.459C279.214 25.5727 279.237 25.6855 279.284 25.7893C279.33 25.8931 279.399 25.9852 279.486 26.059C279.567 26.1367 279.663 26.1981 279.767 26.24C279.857 26.2763 279.951 26.2973 280.048 26.302H280.236V27.502H280.051C279.769 27.4887 279.491 27.4317 279.227 27.333C278.971 27.2242 278.735 27.0742 278.527 26.889L278.427 26.795L278.477 26.845C278.297 27.0416 278.079 27.1999 277.837 27.3104C277.595 27.4208 277.332 27.4813 277.066 27.488H269.921C269.618 27.4893 269.321 27.4128 269.056 27.266C268.845 27.1638 268.657 27.0203 268.503 26.844L268.466 26.882C268.26 27.0729 268.024 27.2272 267.766 27.338C267.443 27.4581 267.099 27.5132 266.754 27.5V26.3C267.024 26.3219 267.291 26.2368 267.498 26.063C267.58 25.9837 267.647 25.8911 267.698 25.789C267.747 25.6855 267.771 25.5723 267.77 25.458V19.201H269.094ZM277.556 20.75C277.489 20.6425 277.402 20.5491 277.3 20.475C277.232 20.4284 277.152 20.4024 277.069 20.4H270.918C270.696 20.4057 270.481 20.4751 270.297 20.6C270.072 20.7481 269.878 20.939 269.726 21.162C269.516 21.4624 269.357 21.7961 269.257 22.149C269.201 22.3346 269.16 22.5246 269.136 22.717C269.108 22.9262 269.095 23.137 269.095 23.348V24.765C269.096 24.987 269.13 25.2077 269.195 25.42C269.245 25.6044 269.324 25.7797 269.429 25.939C269.502 26.041 269.591 26.1314 269.691 26.207C269.76 26.2577 269.843 26.286 269.928 26.288H277.073C277.16 26.2818 277.244 26.2502 277.313 26.197C277.413 26.1257 277.501 26.0382 277.572 25.938C277.626 25.8654 277.672 25.7869 277.709 25.704C277.748 25.6114 277.781 25.5166 277.809 25.42C277.87 25.207 277.902 24.9866 277.903 24.765V21.93C277.907 21.7053 277.873 21.4815 277.803 21.268C277.751 21.0829 277.669 20.9078 277.559 20.75" fill="#1FA6D6"/>
<path d="M284.064 26.302H279.998V27.52H284.064V26.302Z" fill="#1FA6D6"/>
<path d="M285.529 26.907C285.333 27.0893 285.104 27.2334 284.855 27.332C284.53 27.4534 284.184 27.5108 283.837 27.501V26.295C283.975 26.3052 284.113 26.2881 284.245 26.2447C284.376 26.2013 284.497 26.1324 284.602 26.042C284.685 25.9656 284.75 25.8728 284.795 25.7695C284.84 25.6661 284.862 25.5546 284.861 25.442V19.132H286.191V25.446C286.191 25.5611 286.214 25.6749 286.261 25.7802C286.307 25.8856 286.374 25.9802 286.459 26.058C286.534 26.1382 286.626 26.2002 286.728 26.239C286.886 26.2843 287.051 26.3032 287.215 26.295V27.5C286.867 27.5116 286.521 27.4521 286.197 27.325C285.952 27.225 285.726 27.0836 285.529 26.907ZM284.88 17.207H286.217V18.419H284.88V17.207Z" fill="#1FA6D6"/>
<path d="M291.065 26.302H286.999V27.52H291.065V26.302Z" fill="#1FA6D6"/>
<path d="M292.544 26.9069L292.394 27.0319C292.34 27.0724 292.283 27.1102 292.225 27.1449C292.109 27.226 291.983 27.2913 291.85 27.3389C291.589 27.4458 291.308 27.4988 291.026 27.4949H290.845V26.2889H291.026C291.242 26.29 291.451 26.2072 291.607 26.0579C291.686 25.9739 291.751 25.8768 291.797 25.7709C291.844 25.6648 291.869 25.55 291.869 25.4339V21.2119C291.869 20.9357 291.929 20.6629 292.044 20.4119C292.151 20.1657 292.306 19.9436 292.5 19.7589C292.712 19.5688 292.955 19.4166 293.218 19.3089C293.348 19.2526 293.484 19.2116 293.624 19.1869C293.766 19.163 293.911 19.1513 294.055 19.1519H298.127C298.418 19.1537 298.705 19.2132 298.973 19.3269C299.239 19.4343 299.485 19.5876 299.698 19.7799C299.896 19.9595 300.052 20.1799 300.157 20.4259C300.261 20.673 300.314 20.9387 300.313 21.2069V25.4319C300.314 25.7027 300.255 25.9703 300.141 26.2159C300.027 26.4633 299.866 26.6869 299.669 26.8749C299.471 27.0657 299.239 27.2183 298.985 27.3249C298.712 27.4362 298.42 27.4913 298.126 27.4869H294.054C293.763 27.4886 293.474 27.4315 293.205 27.3189C292.963 27.2195 292.739 27.0803 292.543 26.9069M293.743 20.4179C293.639 20.4634 293.544 20.5267 293.462 20.6049C293.378 20.6816 293.312 20.7754 293.268 20.88C293.224 20.9845 293.203 21.0974 293.206 21.2109V25.4319C293.206 25.5539 293.229 25.6748 293.275 25.7879C293.315 25.8842 293.377 25.9698 293.456 26.0379C293.618 26.1908 293.833 26.2757 294.056 26.2749H298.128C298.237 26.2746 298.344 26.2553 298.446 26.2179C298.55 26.1791 298.644 26.1172 298.721 26.0369C298.809 25.9628 298.878 25.8697 298.925 25.7648C298.972 25.6598 298.994 25.5456 298.99 25.4309V21.2119C298.992 21.098 298.969 20.985 298.924 20.8805C298.879 20.7759 298.811 20.6823 298.727 20.6059C298.639 20.5322 298.54 20.4731 298.434 20.4309C298.339 20.3841 298.234 20.3605 298.128 20.3619H294.056C293.949 20.3608 293.843 20.3798 293.743 20.4179Z" fill="#1FA6D6"/>
</g>
</g>
<defs>
<clipPath id="clip0_33_2361">
<rect width="299.626" height="53" fill="white" transform="translate(0.687012 0.5)"/>
</clipPath>
</defs>
</svg>
