<svg width="33" height="34" viewBox="0 0 33 34" fill="none" xmlns="http://www.w3.org/2000/svg">
<path d="M29.9394 19.3032H18.4242V30.8183C18.4242 31.4291 18.1816 32.0149 17.7497 32.4468C17.3178 32.8787 16.732 33.1213 16.1212 33.1213C15.5104 33.1213 14.9246 32.8787 14.4927 32.4468C14.0608 32.0149 13.8182 31.4291 13.8182 30.8183V19.3032H2.30303C1.69223 19.3032 1.10644 19.0605 0.674543 18.6286C0.24264 18.1967 0 17.6109 0 17.0001C0 16.3893 0.24264 15.8035 0.674543 15.3716C1.10644 14.9397 1.69223 14.6971 2.30303 14.6971H13.8182V3.18194C13.8182 2.57114 14.0608 1.98535 14.4927 1.55345C14.9246 1.12155 15.5104 0.878906 16.1212 0.878906C16.732 0.878906 17.3178 1.12155 17.7497 1.55345C18.1816 1.98535 18.4242 2.57114 18.4242 3.18194V14.6971H29.9394C30.5502 14.6971 31.136 14.9397 31.5679 15.3716C31.9998 15.8035 32.2424 16.3893 32.2424 17.0001C32.2424 17.6109 31.9998 18.1967 31.5679 18.6286C31.136 19.0605 30.5502 19.3032 29.9394 19.3032Z" fill="#8C8C8C"/>
</svg>
