<svg width="40" height="29" viewBox="0 0 40 29" fill="none" xmlns="http://www.w3.org/2000/svg">
<path d="M28.8889 0H33.3333C37.0095 0 40 2.78759 40 6.21429V10.3571C40 13.7838 37.0095 16.5714 33.3333 16.5714H28.8889C28.1754 16.5714 27.5007 16.439 26.8557 16.2444C27.7517 21.1232 32.2902 24.8571 37.7778 24.8571C39.0061 24.8571 40 25.7836 40 26.9286C40 28.0735 39.0061 29 37.7778 29C29.2013 29 22.2222 22.4945 22.2222 14.5V6.21429C22.2222 2.78759 25.2127 0 28.8889 0ZM6.66667 0H11.1111C14.7873 0 17.7778 2.78759 17.7778 6.21429V10.3571C17.7778 13.7838 14.7873 16.5714 11.1111 16.5714H6.66667C5.95319 16.5714 5.27852 16.439 4.63348 16.2444C5.52948 21.1232 10.068 24.8571 15.5556 24.8571C16.7839 24.8571 17.7778 25.7836 17.7778 26.9286C17.7778 28.0735 16.7839 29 15.5556 29C6.97911 29 0 22.4945 0 14.5V6.21429C0 2.78759 2.99052 0 6.66667 0Z" fill="#1FA6D6"/>
</svg>
