<svg width="44" height="30" viewBox="0 0 44 30" fill="none" xmlns="http://www.w3.org/2000/svg">
<path d="M40.5097 29.3377H3.27988C2.84891 29.3378 2.42214 29.2532 2.02398 29.0887C1.62582 28.9241 1.26408 28.683 0.959462 28.3789C0.65484 28.0748 0.413305 27.7139 0.248672 27.3166C0.0840395 26.9194 -0.000461534 26.4937 1.89589e-06 26.0638V3.99779C1.89589e-06 3.13021 0.34556 2.29816 0.960656 1.68468C1.57575 1.07121 2.41 0.726562 3.27988 0.726562H40.5097C41.3795 0.726796 42.2135 1.07155 42.8284 1.68499C43.4433 2.29844 43.7887 3.13036 43.7887 3.99779V26.0638C43.7892 26.4936 43.7047 26.9192 43.5401 27.3164C43.3756 27.7136 43.1341 28.0745 42.8296 28.3786C42.5251 28.6826 42.1634 28.9238 41.7654 29.0884C41.3673 29.253 40.9406 29.3377 40.5097 29.3377Z" fill="#5D8B05"/>
<path d="M9.0613 10.4481C9.13534 10.9237 9.42358 11.0732 9.67831 11.0538C9.82456 11.0392 9.96076 10.973 10.0624 10.8671C10.164 10.7612 10.2245 10.6226 10.2327 10.4762V8.84371C10.2327 8.8043 10.2484 8.76651 10.2764 8.73864C10.3043 8.71078 10.3422 8.69513 10.3817 8.69513C10.4212 8.69513 10.4591 8.71078 10.487 8.73864C10.515 8.76651 10.5307 8.8043 10.5307 8.84371V10.4833C10.5306 10.5803 10.5544 10.6759 10.6 10.7616C10.6456 10.8473 10.7115 10.9206 10.7921 10.975C10.8726 11.0294 10.9653 11.0633 11.0621 11.0736C11.1588 11.084 11.2566 11.0706 11.3469 11.0345L11.4959 10.9756C11.51 12.3461 11.4262 13.5505 11.4245 13.5725C11.4189 13.6511 11.4448 13.7286 11.4966 13.7882C11.5483 13.8477 11.6216 13.8842 11.7004 13.8899H11.7215C11.7967 13.8896 11.869 13.861 11.9239 13.8098C11.9789 13.7586 12.0123 13.6886 12.0177 13.6138C12.0247 13.5171 12.1164 12.1984 12.0891 10.7382L12.1772 10.7022C12.2162 10.6868 12.2581 10.6798 12.3 10.6816C12.3419 10.6834 12.383 10.694 12.4205 10.7127C12.5801 10.7921 12.7607 10.8195 12.9368 10.791C13.1128 10.7624 13.2754 10.6794 13.4016 10.5536L13.4553 10.5C13.5731 10.3833 13.6558 10.2361 13.694 10.0749C13.7321 9.9138 13.7243 9.74523 13.6713 9.58833L13.4183 8.83052C13.4895 8.8516 13.5661 8.84539 13.6329 8.81311C13.6998 8.78083 13.7521 8.7248 13.7797 8.65601C13.8073 8.58723 13.8081 8.51064 13.782 8.44127C13.7559 8.37191 13.7048 8.31478 13.6387 8.28107L13.0437 7.98392C12.991 7.95789 12.9318 7.94797 12.8735 7.95542C12.8152 7.96287 12.7604 7.98735 12.716 8.02579C12.6717 8.06423 12.6397 8.1149 12.6241 8.17143C12.6085 8.22796 12.6101 8.28783 12.6285 8.34348L13.1072 9.77645C13.125 9.82874 13.1277 9.88496 13.1151 9.93872C13.1025 9.99249 13.075 10.0417 13.0358 10.0806L12.982 10.1343C12.9441 10.1719 12.8953 10.1967 12.8425 10.2053C12.7896 10.2138 12.7355 10.2055 12.6876 10.1817C12.496 10.0881 12.277 10.0662 12.0706 10.1202C12.058 9.25582 11.9357 8.39653 11.7065 7.56282C11.6801 7.48997 11.6261 7.43031 11.5561 7.39658C11.4862 7.36284 11.4058 7.3577 11.3321 7.38224C11.2584 7.40678 11.1972 7.45906 11.1616 7.52794C11.126 7.59682 11.1188 7.67685 11.1415 7.75096C11.3661 8.5964 11.4807 9.46713 11.4826 10.3417L11.1301 10.4842V8.84458C11.1301 8.64779 11.0517 8.45908 10.9122 8.31993C10.7726 8.18078 10.5834 8.1026 10.3861 8.1026C10.1888 8.1026 9.99959 8.18078 9.86007 8.31993C9.72055 8.45908 9.64218 8.64779 9.64218 8.84458V10.2811L9.33895 8.78656C9.33262 8.74701 9.31833 8.70915 9.29694 8.67525C9.27556 8.64135 9.24753 8.6121 9.21453 8.58928C9.18153 8.56645 9.14424 8.55052 9.10491 8.54243C9.06557 8.53435 9.02501 8.53427 8.98565 8.54222C8.94629 8.55016 8.90895 8.56597 8.87587 8.58867C8.84279 8.61138 8.81465 8.64052 8.79314 8.67435C8.77164 8.70818 8.75721 8.74599 8.75073 8.78551C8.74425 8.82504 8.74585 8.86547 8.75543 8.90437L9.0613 10.4481Z" fill="#F5F5F5"/>
<path d="M9.63611 7.95422C9.71513 7.95422 9.7909 7.92291 9.84678 7.86719C9.90265 7.81146 9.93404 7.73589 9.93404 7.65708V7.35994C9.93624 7.31961 9.93018 7.27927 9.91623 7.24137C9.90227 7.20346 9.88071 7.16878 9.85287 7.13946C9.82503 7.11014 9.79149 7.08679 9.7543 7.07083C9.7171 7.05487 9.67704 7.04663 9.63656 7.04663C9.59607 7.04663 9.556 7.05487 9.51881 7.07083C9.48162 7.08679 9.44807 7.11014 9.42023 7.13946C9.39239 7.16878 9.37083 7.20346 9.35688 7.24137C9.34292 7.27927 9.33686 7.31961 9.33906 7.35994V7.65708C9.33906 7.73573 9.37033 7.81118 9.42601 7.86688C9.48169 7.92258 9.55725 7.95399 9.63611 7.95422Z" fill="#F5F5F5"/>
<path d="M12.61 7.65684H12.9079C12.9484 7.65904 12.9888 7.653 13.0268 7.63908C13.0649 7.62516 13.0996 7.60365 13.129 7.57588C13.1584 7.54812 13.1818 7.51466 13.1978 7.47757C13.2138 7.44048 13.2221 7.40052 13.2221 7.36014C13.2221 7.31976 13.2138 7.27979 13.1978 7.2427C13.1818 7.2056 13.1584 7.17215 13.129 7.14438C13.0996 7.11662 13.0649 7.09512 13.0268 7.0812C12.9888 7.06728 12.9484 7.06123 12.9079 7.06343H12.61C12.5696 7.06123 12.5291 7.06728 12.4911 7.0812C12.4531 7.09512 12.4184 7.11662 12.389 7.14438C12.3596 7.17215 12.3362 7.2056 12.3201 7.2427C12.3041 7.27979 12.2959 7.31976 12.2959 7.36014C12.2959 7.40052 12.3041 7.44048 12.3201 7.47757C12.3362 7.51466 12.3596 7.54812 12.389 7.57588C12.4184 7.60365 12.4531 7.62516 12.4911 7.63908C12.5291 7.653 12.5696 7.65904 12.61 7.65684Z" fill="#F5F5F5"/>
<path d="M10.6707 11.5576L9.18286 12.4482C9.14778 12.4675 9.11696 12.4936 9.09225 12.525C9.06754 12.5565 9.04945 12.5926 9.03904 12.6312C9.02863 12.6697 9.02613 12.71 9.03169 12.7496C9.03725 12.7891 9.05075 12.8272 9.07139 12.8614C9.09202 12.8957 9.11937 12.9254 9.15179 12.9489C9.18421 12.9723 9.22105 12.989 9.26009 12.998C9.29913 13.0069 9.33958 13.0079 9.37901 13.0009C9.41845 12.9939 9.45606 12.979 9.4896 12.9572L10.9775 12.0666C11.0126 12.0473 11.0434 12.0212 11.0681 11.9897C11.0928 11.9583 11.1109 11.9222 11.1213 11.8836C11.1317 11.845 11.1342 11.8048 11.1287 11.7652C11.1231 11.7256 11.1096 11.6876 11.089 11.6533C11.0683 11.6191 11.041 11.5894 11.0086 11.5659C10.9761 11.5424 10.9393 11.5257 10.9003 11.5168C10.8612 11.5079 10.8208 11.5069 10.7813 11.5139C10.7419 11.5209 10.7043 11.5358 10.6707 11.5576Z" fill="#F5F5F5"/>
<path d="M14.683 12.0822L14.6901 12.0778C14.7136 12.18 14.7607 12.2754 14.8276 12.3564C14.8897 12.4278 14.9683 12.483 15.0566 12.5173C15.1449 12.5516 15.2403 12.564 15.3344 12.5534C15.4548 12.5478 15.5726 12.5159 15.6792 12.4598C15.7858 12.4037 15.8788 12.3249 15.9514 12.229C15.9714 12.2427 15.9923 12.255 16.014 12.2659C16.0961 12.3056 16.1867 12.3248 16.2779 12.3219C16.3691 12.319 16.4582 12.2941 16.5376 12.2492C16.7133 12.14 16.8555 11.9847 16.9488 11.8004C17.0421 11.6161 17.0828 11.4098 17.0665 11.2039C17.0608 11.1263 17.0255 11.0538 16.9677 11.0014C16.91 10.949 16.8342 10.9208 16.7562 10.9226C16.6776 10.9262 16.6035 10.9607 16.5502 11.0185C16.4969 11.0763 16.4686 11.1527 16.4715 11.2312C16.4715 11.2312 16.4785 11.5828 16.2626 11.7182C16.2164 11.6411 16.185 11.5562 16.17 11.4676C16.1573 11.3945 16.1175 11.3288 16.0586 11.2834C15.9997 11.238 15.9259 11.2163 15.8517 11.2224C15.7776 11.2286 15.7084 11.2623 15.6578 11.3167C15.6073 11.3712 15.579 11.4426 15.5786 11.5169C15.5786 11.56 15.5689 11.9406 15.2736 11.9732C15.2382 11.846 15.2382 11.7117 15.2736 11.5846C15.2872 11.5265 15.2829 11.4656 15.2613 11.4099C15.2397 11.3543 15.2018 11.3064 15.1525 11.2725C15.1032 11.2387 15.0449 11.2204 14.985 11.22C14.9252 11.2197 14.8666 11.2374 14.817 11.2707L14.6513 11.3833C14.5728 9.66193 14.3869 7.65577 14.3869 7.63027C14.3856 7.58976 14.3761 7.54992 14.3589 7.5132C14.3417 7.47649 14.3171 7.44368 14.2867 7.4168C14.2562 7.38991 14.2206 7.36952 14.182 7.35687C14.1434 7.34423 14.1026 7.33959 14.0621 7.34326C14.0217 7.34692 13.9824 7.35881 13.9467 7.37819C13.911 7.39756 13.8796 7.42402 13.8545 7.45593C13.8295 7.48783 13.8112 7.52452 13.8009 7.56372C13.7906 7.60293 13.7884 7.64382 13.7945 7.68389C13.7945 7.71114 14.007 10.032 14.0722 11.8044L14.0263 11.8483C13.9782 11.7099 13.8913 11.5882 13.7758 11.4976C13.6603 11.4071 13.5212 11.3515 13.375 11.3375C13.1535 11.3279 12.9344 11.386 12.747 11.5042C12.5597 11.6224 12.4131 11.7949 12.3269 11.9986C12.2529 12.149 12.2351 12.3208 12.2768 12.4831C12.3185 12.6454 12.4169 12.7876 12.5543 12.8839C12.6889 12.9591 12.8392 13.0018 12.9933 13.0089C13.1474 13.0159 13.301 12.9869 13.4419 12.9244C13.3469 13.2599 13.182 13.5718 12.958 13.8395C12.8452 13.9852 12.7013 14.1041 12.5369 14.1877C12.3724 14.2713 12.1914 14.3176 12.0069 14.323C11.8987 14.3242 11.7915 14.3029 11.6919 14.2605C11.5924 14.2181 11.5028 14.1556 11.4287 14.0769C11.2076 13.768 11.0968 13.3941 11.114 13.0149C11.1181 12.9364 11.0908 12.8594 11.0381 12.8009C10.9854 12.7424 10.9116 12.7071 10.8329 12.7028C10.7936 12.6998 10.7541 12.7048 10.7169 12.7174C10.6796 12.73 10.6453 12.7501 10.616 12.7763C10.5866 12.8025 10.5629 12.8343 10.5463 12.8699C10.5296 12.9055 10.5204 12.944 10.5191 12.9833C10.4928 13.5208 10.6583 14.0503 10.9862 14.4778C11.1131 14.6153 11.267 14.7253 11.4384 14.801C11.6097 14.8766 11.7949 14.9162 11.9823 14.9173H12.0422C12.3065 14.9085 12.5657 14.842 12.8016 14.7226C13.0375 14.6033 13.2443 14.4339 13.4076 14.2263C13.771 13.7915 14.0069 13.2648 14.0889 12.7046C14.0758 13.2292 13.9399 13.7434 13.6919 14.2062C13.444 14.6691 13.0909 15.0676 12.661 15.3701C12.4443 15.5179 12.1923 15.6059 11.9305 15.6251C11.6686 15.6442 11.4064 15.5938 11.1704 15.4791C10.949 15.358 10.7685 15.174 10.652 14.9505C10.5354 14.7271 10.4879 14.4741 10.5155 14.2237C10.5224 14.1841 10.5212 14.1435 10.5119 14.1044C10.5026 14.0653 10.4855 14.0284 10.4615 13.9961C10.4375 13.9638 10.4072 13.9367 10.3724 13.9164C10.3376 13.8961 10.2991 13.883 10.2591 13.878C10.2191 13.873 10.1785 13.8762 10.1397 13.8873C10.101 13.8984 10.0649 13.9172 10.0337 13.9426C10.0024 13.968 9.97669 13.9995 9.958 14.0351C9.93932 14.0707 9.92808 14.1098 9.92496 14.1499C9.88176 14.5226 9.95238 14.8997 10.1276 15.2317C10.3028 15.5638 10.5744 15.8354 10.9069 16.011C11.1866 16.1508 11.4949 16.2243 11.8077 16.2255C12.2222 16.22 12.6267 16.0982 12.9748 15.8738C13.4915 15.5183 13.916 15.0452 14.2132 14.4936C14.5104 13.9421 14.6717 13.328 14.6839 12.7019C14.6927 12.5112 14.6892 12.3019 14.683 12.0822ZM12.8884 12.3881C12.8355 12.3529 12.8769 12.2413 12.8884 12.2184C12.9257 12.1376 12.9837 12.068 13.0566 12.0168C13.1295 11.9655 13.2147 11.9344 13.3036 11.9266H13.3274C13.3653 11.9266 13.4666 11.9397 13.5098 12.1639C13.5142 12.1877 13.5186 12.2123 13.5213 12.2369C13.1881 12.4329 12.9651 12.4391 12.8858 12.3881H12.8884Z" fill="#F5F5F5"/>
<path d="M9.78148 15.1187C9.71343 15.0789 9.63234 15.0677 9.556 15.0875C9.47966 15.1073 9.41431 15.1564 9.37425 15.2242C9.35919 15.2488 9.3424 15.2723 9.32401 15.2945L9.31431 15.2699C9.23085 14.9388 9.23388 14.592 9.32313 14.2624C9.33835 14.1882 9.32455 14.111 9.28458 14.0465C9.2446 13.9821 9.18145 13.9353 9.10805 13.9158C9.03465 13.8963 8.95654 13.9054 8.88969 13.9414C8.82285 13.9774 8.77231 14.0375 8.74842 14.1095C8.62651 14.558 8.62956 15.0313 8.75723 15.4783C8.89386 15.8413 9.10365 15.9328 9.25525 15.9451H9.2958C9.42177 15.9279 9.54164 15.8803 9.64501 15.8064C9.74838 15.7326 9.83214 15.6348 9.88902 15.5213C9.92786 15.4536 9.93835 15.3734 9.91821 15.298C9.89808 15.2226 9.84895 15.1582 9.78148 15.1187Z" fill="#F5F5F5"/>
<path d="M15.2764 9.73498C15.3429 9.73508 15.4075 9.71278 15.4598 9.67169L16.9582 8.49718C16.9771 8.48038 16.9937 8.46117 17.0076 8.44003C17.1436 8.3594 17.2504 8.23765 17.3123 8.09244C17.3743 7.94723 17.3883 7.7861 17.3523 7.63242C17.3163 7.47874 17.2322 7.34049 17.1121 7.23771C16.992 7.13494 16.8422 7.07297 16.6845 7.06081C16.5267 7.04864 16.3691 7.08689 16.2346 7.17004C16.1001 7.25318 15.9957 7.37689 15.9364 7.52323C15.8772 7.66956 15.8662 7.83093 15.905 7.98392C15.9439 8.1369 16.0306 8.27357 16.1526 8.3741L15.0948 9.20575C15.0474 9.24429 15.013 9.29645 14.9964 9.35515C14.9797 9.41385 14.9816 9.47624 15.0017 9.53385C15.0218 9.59147 15.0592 9.64151 15.1088 9.67717C15.1585 9.71284 15.2179 9.73241 15.2791 9.73322L15.2764 9.73498ZM16.6277 7.65673C16.6571 7.65673 16.6859 7.66545 16.7104 7.68177C16.7349 7.6981 16.754 7.72129 16.7653 7.74844C16.7766 7.77559 16.7795 7.80547 16.7738 7.83429C16.768 7.86311 16.7539 7.88957 16.733 7.91035C16.7122 7.93113 16.6856 7.94529 16.6568 7.95102C16.6279 7.95676 16.5979 7.9538 16.5707 7.94256C16.5435 7.93131 16.5202 7.91228 16.5038 7.88784C16.4875 7.86341 16.4787 7.83469 16.4787 7.8053C16.4787 7.7659 16.4944 7.72811 16.5223 7.70024C16.5503 7.67238 16.5882 7.65673 16.6277 7.65673Z" fill="#F5F5F5"/>
<path d="M16.275 9.45267C16.238 9.44027 16.1989 9.43527 16.1599 9.43797C16.1209 9.44067 16.0829 9.45101 16.0479 9.46841C16.0129 9.4858 15.9818 9.50991 15.9561 9.53934C15.9305 9.56877 15.911 9.60295 15.8986 9.63992C15.841 9.78414 15.8214 9.94071 15.8418 10.0946C15.8622 10.2486 15.9218 10.3947 16.015 10.519C16.0731 10.5756 16.1422 10.6198 16.2179 10.6489C16.2937 10.6781 16.3746 10.6916 16.4557 10.6887C16.5958 10.6856 16.7345 10.6601 16.8665 10.6131C16.9057 10.6025 16.9423 10.5841 16.9741 10.5589C17.0059 10.5337 17.0322 10.5023 17.0514 10.4667C17.0705 10.431 17.0822 10.3917 17.0857 10.3514C17.0891 10.311 17.0842 10.2704 17.0713 10.232C17.0585 10.1936 17.0379 10.1582 17.0108 10.1281C16.9837 10.0979 16.9507 10.0736 16.9139 10.0566C16.877 10.0396 16.8371 10.0303 16.7965 10.0292C16.7559 10.0282 16.7155 10.0354 16.6779 10.0505C16.5992 10.0775 16.5175 10.0949 16.4346 10.1023C16.4206 10.0111 16.4291 9.9179 16.4593 9.83069C16.4722 9.79381 16.4777 9.75475 16.4754 9.71575C16.4731 9.67675 16.4631 9.63858 16.446 9.60345C16.4289 9.56831 16.4049 9.53691 16.3756 9.51104C16.3463 9.48516 16.3121 9.46532 16.275 9.45267Z" fill="#F5F5F5"/>
<path d="M19.6818 8.22575C19.7577 8.24778 19.8392 8.23885 19.9085 8.20093C19.9777 8.16301 20.029 8.09921 20.0511 8.02355L20.2274 7.43014C20.2448 7.35612 20.233 7.2783 20.1945 7.21267C20.1561 7.14704 20.0939 7.0986 20.0207 7.07732C19.9476 7.05603 19.869 7.06352 19.8012 7.09824C19.7334 7.13297 19.6815 7.19229 19.6563 7.26399L19.48 7.8574C19.4578 7.93295 19.4667 8.01415 19.5045 8.08321C19.5424 8.15227 19.6061 8.20353 19.6818 8.22575Z" fill="#F5F5F5"/>
<path d="M17.9465 8.19117C17.9803 8.21283 18.0181 8.22746 18.0577 8.23416C18.0973 8.24086 18.1379 8.2395 18.177 8.23016C18.2161 8.22083 18.2528 8.20371 18.2851 8.17983C18.3174 8.15596 18.3445 8.12582 18.3647 8.09123C18.385 8.05664 18.3981 8.01832 18.4031 7.97856C18.4082 7.93881 18.4051 7.89844 18.3941 7.8599C18.3831 7.82136 18.3644 7.78542 18.3392 7.75427C18.3139 7.72312 18.2826 7.69739 18.2471 7.67863C18.1871 7.64347 18.195 7.54589 18.1977 7.52655C18.2001 7.48416 18.2142 7.44324 18.2383 7.40822C18.2623 7.37321 18.2956 7.34543 18.3343 7.32787C18.4064 7.30192 18.4657 7.24923 18.4999 7.18078C18.5341 7.11234 18.5405 7.03339 18.5178 6.96036C18.4951 6.88733 18.445 6.82584 18.378 6.78868C18.311 6.75152 18.2322 6.74154 18.158 6.76083C18.0083 6.81156 17.8766 6.9045 17.7788 7.0284C17.6811 7.15229 17.6214 7.30182 17.6071 7.45885C17.5855 7.60065 17.6061 7.74568 17.6664 7.87589C17.7268 8.0061 17.8242 8.11574 17.9465 8.19117Z" fill="#F5F5F5"/>
<path d="M15.5865 12.9995C15.5131 13.0006 15.4428 13.0288 15.3889 13.0784C15.335 13.1281 15.3014 13.1959 15.2945 13.2688C15.2876 13.3416 15.308 13.4145 15.3516 13.4733C15.3952 13.5322 15.4591 13.5729 15.531 13.5877C15.5776 13.6813 15.5968 13.7861 15.5865 13.8901C15.5843 13.9304 15.5904 13.9707 15.6043 14.0086C15.6183 14.0466 15.6399 14.0812 15.6677 14.1105C15.6955 14.1399 15.7291 14.1632 15.7663 14.1792C15.8035 14.1951 15.8435 14.2034 15.884 14.2034C15.9245 14.2034 15.9646 14.1951 16.0018 14.1792C16.039 14.1632 16.0725 14.1399 16.1003 14.1105C16.1282 14.0812 16.1497 14.0466 16.1637 14.0086C16.1776 13.9707 16.1837 13.9304 16.1815 13.8901C16.1815 13.0092 15.6103 12.9995 15.5865 12.9995Z" fill="#F5F5F5"/>
<path d="M20.6357 11.7747C20.6727 11.7806 20.7101 11.7836 20.7476 11.7835C20.8827 11.7746 21.0147 11.7389 21.1357 11.6785C21.2568 11.6182 21.3646 11.5343 21.4528 11.4318C21.4834 11.405 21.5082 11.3722 21.5256 11.3354C21.543 11.2987 21.5527 11.2588 21.554 11.2182C21.5553 11.1775 21.5482 11.1371 21.5333 11.0993C21.5183 11.0615 21.4957 11.0271 21.4669 10.9984C21.438 10.9697 21.4036 10.9471 21.3657 10.9322C21.3278 10.9172 21.2873 10.9102 21.2465 10.9115C21.2058 10.9129 21.1658 10.9225 21.1289 10.9399C21.0921 10.9572 21.0592 10.9819 21.0323 11.0125C20.856 11.1883 20.7582 11.1936 20.7344 11.1883C20.678 11.1804 20.626 11.1065 20.6145 11.0863C20.5751 11.0232 20.5133 10.9771 20.4414 10.9571C20.3695 10.9372 20.2928 10.9449 20.2263 10.9787C20.1598 11.0125 20.1085 11.07 20.0825 11.1397C20.0564 11.2095 20.0575 11.2864 20.0856 11.3553C20.1403 11.4616 20.218 11.5545 20.3131 11.627C20.4083 11.6995 20.5185 11.75 20.6357 11.7747Z" fill="#F5F5F5"/>
<path d="M25.6933 9.68396L25.688 9.67078C25.6606 9.59907 25.6063 9.54076 25.5367 9.50806C25.467 9.47536 25.3874 9.47081 25.3145 9.49536C25.2416 9.5199 25.181 9.57165 25.1454 9.63975C25.1099 9.70785 25.1022 9.78702 25.1239 9.86067C25.1564 9.97351 25.2183 10.0757 25.3034 10.157C25.3884 10.2382 25.4934 10.2955 25.6078 10.3231C25.6295 10.3245 25.6513 10.3245 25.6731 10.3231C25.7946 10.3104 25.9111 10.2675 26.0116 10.1982C26.1122 10.1289 26.1937 10.0355 26.2486 9.9266C26.2875 9.86112 26.2998 9.78325 26.2828 9.70905C26.2658 9.63485 26.2209 9.56997 26.1574 9.52781C26.0938 9.48564 26.0165 9.46939 25.9413 9.48241C25.8661 9.49544 25.7988 9.53675 25.7533 9.59782C25.735 9.62767 25.715 9.65643 25.6933 9.68396Z" fill="#F5F5F5"/>
<path d="M25.1091 15.0778C25.1091 13.8118 25.0535 12.6241 24.976 11.5841C25.3789 12.2591 25.7281 12.9646 26.0205 13.694C26.0418 13.7505 26.0799 13.7993 26.1296 13.8336C26.1794 13.868 26.2385 13.8865 26.299 13.8866C26.3348 13.8867 26.3703 13.8804 26.4039 13.8681C26.4407 13.8546 26.4744 13.834 26.5032 13.8074C26.532 13.7809 26.5553 13.7489 26.5716 13.7134C26.588 13.6779 26.5972 13.6395 26.5987 13.6004C26.6001 13.5613 26.5939 13.5223 26.5802 13.4857C26.1095 12.3502 25.5332 11.2611 24.8587 10.2329C24.6957 8.63379 24.5141 7.61928 24.5105 7.60081C24.4927 7.527 24.4472 7.4628 24.3834 7.42138C24.3197 7.37996 24.2424 7.36447 24.1675 7.37808C24.0926 7.39169 24.0258 7.43337 23.9807 7.49457C23.9357 7.55577 23.9158 7.63185 23.9253 7.70719C23.9253 7.72038 24.0213 8.24258 24.1333 9.12258C23.905 8.78412 23.6926 8.47906 23.5163 8.22763L23.5312 8.23203C23.5689 8.24711 23.6093 8.25434 23.6499 8.25329C23.6905 8.25224 23.7304 8.24294 23.7673 8.22594C23.8041 8.20894 23.8371 8.1846 23.8642 8.15443C23.8913 8.12425 23.9119 8.08888 23.9247 8.05048C23.9376 8.01207 23.9425 7.97145 23.939 7.9311C23.9356 7.89076 23.9239 7.85153 23.9048 7.81585C23.8856 7.78016 23.8593 7.74875 23.8275 7.72357C23.7957 7.69838 23.7591 7.67995 23.7199 7.66939L22.827 7.37225C22.7668 7.35195 22.7016 7.3515 22.6411 7.37097C22.5807 7.39044 22.5281 7.42881 22.4911 7.48038C22.472 7.50712 22.4574 7.53681 22.448 7.56828C22.3665 7.49288 22.2669 7.43962 22.1589 7.4136C22.0509 7.38759 21.9379 7.38969 21.8309 7.41972C21.7333 7.46589 21.653 7.54197 21.6018 7.63686C21.5506 7.73175 21.5311 7.84048 21.5462 7.94719C21.5686 8.23658 21.638 8.52042 21.7516 8.78764C21.9279 9.28259 22.0363 9.64655 21.8512 9.82061C21.8142 9.86346 21.7665 9.8959 21.713 9.91472C21.6595 9.93353 21.602 9.93806 21.5462 9.92786C21.3629 9.88127 21.1813 9.63775 21.0597 9.27555C21.0529 9.26112 21.045 9.2473 21.0359 9.23423C21.0967 8.6857 21.0669 8.13094 20.9477 7.59203C20.9291 7.51798 20.8826 7.45393 20.8178 7.41316C20.7531 7.3724 20.6751 7.35804 20.6001 7.37308C20.525 7.38812 20.4587 7.43139 20.4147 7.49393C20.3708 7.55646 20.3527 7.63346 20.3642 7.70895C20.5896 8.40746 20.5336 9.16602 20.2082 9.82413C20.1558 9.88997 20.0886 9.94253 20.012 9.97752C19.9354 10.0125 19.8516 10.0289 19.7675 10.0255C19.7401 10.0267 19.7128 10.0213 19.688 10.0098C19.6631 9.99836 19.6414 9.9811 19.6247 9.95951C19.4059 9.43097 19.3509 8.84917 19.4669 8.28917C19.4728 8.24713 19.4696 8.2043 19.4575 8.16359C19.4455 8.12287 19.4248 8.08521 19.3969 8.05313C19.369 8.02106 19.3345 7.99532 19.2958 7.97765C19.2571 7.95998 19.215 7.95081 19.1725 7.95072C18.6604 7.95072 18.4673 8.53181 18.291 9.04434C18.2161 9.26939 18.076 9.68875 17.9781 9.73182C17.8018 9.73182 17.6819 9.20435 17.6802 8.84127C17.6799 8.76261 17.6484 8.68726 17.5926 8.63172C17.5368 8.57619 17.4611 8.545 17.3822 8.545C17.3035 8.545 17.2279 8.57622 17.1722 8.63178C17.1165 8.68734 17.0852 8.76269 17.0852 8.84127C17.0852 9.52611 17.3188 10.3252 17.9781 10.3252C18.4691 10.3252 18.6674 9.7916 18.834 9.29578C18.8365 9.67345 18.9543 10.0414 19.1716 10.3507C19.2442 10.4367 19.3349 10.5055 19.4373 10.5523C19.5398 10.5991 19.6513 10.6227 19.7639 10.6215C19.9369 10.6254 20.1084 10.5897 20.2653 10.5171C20.4222 10.4446 20.5604 10.3371 20.6692 10.203C20.7098 10.1512 20.7466 10.0966 20.7794 10.0395C20.9239 10.2653 21.1456 10.4312 21.4034 10.5063C21.4723 10.5238 21.5431 10.5326 21.6141 10.5327C21.8577 10.5275 22.0898 10.4286 22.262 10.2566C22.2987 10.2198 22.332 10.1798 22.3616 10.1371C22.4328 10.1583 22.5067 10.1696 22.5811 10.1705C22.8001 10.1647 23.0135 10.0993 23.1981 9.98149C23.2598 9.93713 23.3022 9.87086 23.3166 9.79631C23.3309 9.72175 23.3161 9.64455 23.2751 9.58055C23.2342 9.51655 23.1702 9.47061 23.0964 9.45215C23.0226 9.43368 22.9445 9.44411 22.8781 9.48127C22.7763 9.54143 22.6597 9.57188 22.5414 9.56917C22.5203 9.23375 22.4441 8.90407 22.3157 8.59334C22.2539 8.43146 22.2024 8.26586 22.1615 8.09752C22.1862 8.11774 22.21 8.13973 22.2311 8.16082C22.2587 8.18839 22.2915 8.21025 22.3276 8.22517C22.3636 8.24009 22.4023 8.24778 22.4413 8.24778C22.4804 8.24778 22.5191 8.24009 22.5551 8.22517C22.5912 8.21025 22.624 8.18839 22.6516 8.16082C22.6689 8.14122 22.6834 8.11932 22.6948 8.09576C23.0033 8.5195 23.6379 9.41445 24.2902 10.4369C24.4145 11.6993 24.5238 13.309 24.5238 15.0743C24.5279 15.1502 24.5611 15.2216 24.6164 15.2739C24.6717 15.3261 24.745 15.3553 24.8213 15.3553C24.8975 15.3553 24.9708 15.3261 25.0261 15.2739C25.0815 15.2216 25.1146 15.1502 25.1187 15.0743L25.1091 15.0778Z" fill="#F5F5F5"/>
<path d="M25.4069 8.54758C25.4047 8.5879 25.4108 8.62826 25.4247 8.66617C25.4387 8.70407 25.4602 8.73874 25.4881 8.76806C25.5159 8.79738 25.5495 8.82074 25.5867 8.8367C25.6238 8.85266 25.6639 8.86089 25.7044 8.86089C25.7449 8.86089 25.7849 8.85266 25.8221 8.8367C25.8593 8.82074 25.8929 8.79738 25.9207 8.76806C25.9486 8.73874 25.9701 8.70407 25.9841 8.66617C25.998 8.62826 26.0041 8.5879 26.0019 8.54758C25.9544 8.18965 25.843 7.84309 25.6731 7.52428C25.6328 7.46398 25.5719 7.42043 25.5016 7.40182C25.4314 7.38321 25.3569 7.39082 25.2919 7.42322C25.2269 7.45562 25.1761 7.51058 25.1489 7.57776C25.1217 7.64494 25.12 7.71971 25.1442 7.78802C25.2702 8.02634 25.3588 8.2825 25.4069 8.54758Z" fill="#F5F5F5"/>
<path d="M24.0529 15.1096C24.0181 15.092 23.9802 15.0815 23.9412 15.0785C23.9023 15.0756 23.8632 15.0804 23.8261 15.0925C23.789 15.1047 23.7547 15.1241 23.7251 15.1495C23.6955 15.1749 23.6713 15.2058 23.6537 15.2406C23.6201 15.3042 23.5787 15.3632 23.5303 15.4164C23.5254 15.2305 23.5519 15.045 23.6087 14.8678C23.6281 14.8045 23.6257 14.7364 23.6019 14.6746C23.5781 14.6127 23.5343 14.5606 23.4773 14.5264C23.4204 14.4922 23.3536 14.478 23.2877 14.4861C23.2217 14.4941 23.1604 14.5239 23.1133 14.5707L22.5183 15.1641C22.4877 15.1909 22.463 15.2237 22.4456 15.2605C22.4281 15.2972 22.4185 15.3371 22.4171 15.3778C22.4158 15.4184 22.4229 15.4588 22.4379 15.4966C22.4528 15.5344 22.4755 15.5688 22.5043 15.5975C22.5331 15.6262 22.5675 15.6488 22.6054 15.6637C22.6433 15.6787 22.6839 15.6857 22.7246 15.6844C22.7653 15.6831 22.8053 15.6734 22.8422 15.6561C22.879 15.6387 22.9119 15.614 22.9388 15.5835L22.9538 15.5685C22.9755 15.6858 23.031 15.7942 23.1133 15.8806C23.1632 15.9333 23.2231 15.9756 23.2895 16.0049C23.356 16.0342 23.4277 16.0499 23.5003 16.0511C23.5278 16.0509 23.5552 16.0486 23.5823 16.0441C23.7156 16.0031 23.8385 15.9339 23.9425 15.8412C24.0466 15.7485 24.1294 15.6345 24.1852 15.507C24.2204 15.4368 24.2263 15.3555 24.2015 15.281C24.1767 15.2065 24.1233 15.1449 24.0529 15.1096Z" fill="#F5F5F5"/>
<path d="M23.9375 12.7219H21.8397C21.8585 12.6481 21.8776 12.5778 21.897 12.5109C22.7335 12.3351 23.2306 12.0714 23.3769 11.7092C23.4198 11.5983 23.432 11.4779 23.4123 11.3607C23.3926 11.2435 23.3417 11.1337 23.265 11.0428C23.1852 10.9213 23.0711 10.8261 22.9372 10.7692C22.8032 10.7122 22.6554 10.6961 22.5122 10.7228C22.0891 10.8107 21.7127 11.2626 21.4421 11.9905C20.8115 12.0734 20.2166 12.33 19.7242 12.7316C19.6713 12.0355 19.4603 11.3606 19.1072 10.758C19.0616 10.6969 18.9943 10.6556 18.9191 10.6426C18.8439 10.6295 18.7666 10.6458 18.7031 10.688C18.6396 10.7301 18.5947 10.795 18.5777 10.8692C18.5607 10.9434 18.5729 11.0213 18.6118 11.0867C18.99 11.761 19.1786 12.5246 19.1574 13.2969C19.1791 13.8371 19.0132 14.3682 18.6879 14.8006C18.3626 15.233 17.8977 15.5402 17.3716 15.6705C17.0375 15.6705 16.8912 15.274 16.8269 14.9391C17.4587 14.5801 17.9592 14.0294 18.2557 13.3672C18.3821 12.8244 18.3118 12.2545 18.0574 11.7584L18.0353 11.7065L18.0538 11.7241C18.1107 11.7739 18.1844 11.8003 18.2601 11.7978C18.3357 11.7954 18.4076 11.7643 18.4611 11.7109C18.5146 11.6576 18.5457 11.5859 18.5482 11.5105C18.5506 11.435 18.5242 11.3615 18.4743 11.3048C18.298 11.1289 17.9622 10.8582 17.6554 10.9865C17.5578 11.0327 17.4775 11.1088 17.4263 11.2037C17.3751 11.2986 17.3556 11.4073 17.3707 11.514C17.3847 11.6807 17.4317 11.843 17.5091 11.9914C17.7101 12.3687 17.7694 12.8051 17.6766 13.2221C17.4643 13.6669 17.1256 14.0396 16.7026 14.2938C16.6755 14.2602 16.6413 14.233 16.6024 14.2142C16.5636 14.1953 16.521 14.1853 16.4778 14.1848C16.399 14.1848 16.3235 14.216 16.2678 14.2716C16.212 14.3271 16.1808 14.4025 16.1808 14.4811C16.1808 14.5347 16.1808 14.5918 16.1869 14.6498C15.5739 15.042 14.9342 15.391 14.2724 15.6943C14.2108 15.7226 14.1607 15.771 14.1304 15.8315C14.1002 15.892 14.0915 15.9611 14.1059 16.0272C14.1203 16.0933 14.1569 16.1525 14.2096 16.1951C14.2623 16.2376 14.328 16.261 14.3958 16.2613C14.4384 16.2615 14.4805 16.2525 14.5192 16.2349C15.13 15.9535 15.7237 15.6364 16.2971 15.2854C16.3375 15.5462 16.4663 15.7852 16.662 15.9628C16.8577 16.1404 17.1084 16.2457 17.3725 16.2613C17.801 16.2091 18.209 16.0483 18.5576 15.7942C18.9061 15.5401 19.1837 15.2012 19.3637 14.8098C19.4201 14.9106 19.4866 15.0054 19.562 15.0929C20.1838 15.6574 20.9954 15.9683 21.8361 15.9641C21.9116 15.9617 21.9833 15.9307 22.0368 15.8776C22.0902 15.8244 22.1215 15.753 22.1242 15.6777C22.1269 15.6025 22.1008 15.529 22.0513 15.4722C22.0017 15.4154 21.9324 15.3794 21.8573 15.3716C21.7175 15.3555 21.5871 15.2936 21.4862 15.1958C21.4443 15.1409 21.414 15.078 21.3972 15.0111C21.3803 14.9441 21.3773 14.8745 21.3884 14.8063C21.4192 14.4406 22.6021 14.1672 23.6449 14.1514C23.7056 14.1504 23.7646 14.1309 23.8139 14.0956C23.8632 14.0602 23.9005 14.0107 23.9208 13.9536L24.2187 13.1193C24.2346 13.0745 24.2396 13.0266 24.2331 12.9795C24.2266 12.9324 24.2089 12.8876 24.1814 12.8487C24.1539 12.8099 24.1176 12.7782 24.0753 12.7563C24.033 12.7344 23.9861 12.7229 23.9384 12.7228L23.9375 12.7219ZM22.6312 11.3048C22.6388 11.304 22.6465 11.304 22.6541 11.3048C22.6823 11.3048 22.7273 11.3188 22.7872 11.3988C22.7987 11.4138 22.8348 11.4657 22.826 11.4868C22.7916 11.5747 22.5863 11.7101 22.1579 11.8384C22.3456 11.4674 22.5316 11.325 22.6312 11.3048ZM20.8339 15.2063C20.5192 15.1167 20.2345 14.9442 20.0098 14.707C19.891 14.5631 19.8057 14.3947 19.76 14.2139C19.7143 14.0332 19.7093 13.8446 19.7453 13.6617C19.7625 13.6182 19.7831 13.5762 19.807 13.536C20.2257 13.4973 21.3461 13.6626 21.4236 13.9826C21.2598 14.0452 21.1154 14.1498 21.0049 14.2858C20.8944 14.4217 20.8218 14.5843 20.7943 14.7571C20.7801 14.908 20.7935 15.0602 20.8339 15.2063Z" fill="#F5F5F5"/>
<path d="M27.1778 8.45313L26.8798 7.56257C26.856 7.49417 26.8079 7.43682 26.7446 7.40128C26.6814 7.36574 26.6073 7.35447 26.5362 7.36958C26.4652 7.3847 26.4022 7.42516 26.359 7.48336C26.3158 7.54156 26.2954 7.6135 26.3016 7.68565C26.507 9.73401 26.8957 13.7279 26.8957 14.1859C26.8957 14.5973 26.1623 15.407 24.9768 15.9978C24.9163 16.0379 24.8727 16.0987 24.854 16.1688C24.8353 16.2388 24.843 16.3132 24.8755 16.378C24.9079 16.4428 24.963 16.4935 25.0304 16.5206C25.0978 16.5478 25.1727 16.5494 25.2412 16.5253C26.3236 15.9855 27.4889 15.022 27.4889 14.1824C27.4889 13.7428 27.1848 10.5885 27.0103 8.81973C27.0793 8.79077 27.1348 8.73698 27.1658 8.66906C27.1969 8.60113 27.2011 8.52404 27.1778 8.45313Z" fill="#F5F5F5"/>
<path d="M29.6599 11.1323C29.7061 11.178 29.766 11.2074 29.8305 11.2159C29.895 11.2245 29.9606 11.2118 30.0171 11.1797C30.0737 11.1476 30.1182 11.0979 30.1438 11.0382C30.1694 10.9785 30.1746 10.9121 30.1588 10.8492C30.107 10.6619 30.0924 10.4663 30.1156 10.2734C30.1895 10.276 30.2618 10.2514 30.3189 10.2045C30.3759 10.1575 30.4136 10.0913 30.425 10.0184C30.4361 9.94055 30.4158 9.86149 30.3685 9.79854C30.3213 9.73559 30.2509 9.6939 30.1729 9.68258C30.0839 9.66681 29.9923 9.67368 29.9066 9.70257C29.821 9.73146 29.744 9.78142 29.6828 9.84785C29.6058 9.93898 29.5541 10.0487 29.533 10.1661L29.1883 9.82236C29.1315 9.77256 29.0577 9.7462 28.9821 9.74865C28.9065 9.7511 28.8346 9.78217 28.7811 9.83554C28.7276 9.8889 28.6965 9.96058 28.694 10.036C28.6916 10.1114 28.718 10.185 28.7679 10.2417L29.6599 11.1323Z" fill="#F5F5F5"/>
<path d="M30.3308 11.4418L29.2149 12.2392C29.1809 12.261 29.1518 12.2894 29.1292 12.3228C29.1066 12.3562 29.091 12.3938 29.0834 12.4333C29.0759 12.4729 29.0764 12.5135 29.085 12.5529C29.0937 12.5922 29.1103 12.6293 29.1338 12.6621C29.1573 12.6948 29.1872 12.7225 29.2218 12.7433C29.2563 12.7642 29.2947 12.7778 29.3347 12.7834C29.3747 12.789 29.4154 12.7864 29.4543 12.7758C29.4933 12.7653 29.5297 12.7469 29.5613 12.7219L30.6772 11.9245C30.7111 11.9027 30.7403 11.8743 30.7629 11.8409C30.7855 11.8075 30.8011 11.7699 30.8087 11.7304C30.8162 11.6908 30.8157 11.6502 30.807 11.6109C30.7984 11.5715 30.7818 11.5344 30.7583 11.5016C30.7348 11.4689 30.7049 11.4413 30.6703 11.4204C30.6358 11.3995 30.5974 11.3859 30.5574 11.3803C30.5174 11.3747 30.4767 11.3773 30.4378 11.3879C30.3988 11.3985 30.3624 11.4168 30.3308 11.4418Z" fill="#F5F5F5"/>
<path d="M30.2312 12.5569C30.1865 12.6144 30.1645 12.6863 30.1694 12.7589C30.1742 12.8315 30.2056 12.8998 30.2576 12.9508C30.3154 13.0853 30.3361 13.2328 30.3176 13.378C30.315 13.4566 30.3436 13.5329 30.3973 13.5904C30.451 13.6479 30.5253 13.6819 30.604 13.6848H30.6146C30.6915 13.6847 30.7654 13.6549 30.8208 13.6016C30.8761 13.5483 30.9087 13.4758 30.9117 13.3991C30.9337 12.7934 30.7354 12.5719 30.6472 12.5051C30.585 12.4573 30.5064 12.4359 30.4285 12.4457C30.3506 12.4554 30.2797 12.4954 30.2312 12.5569Z" fill="#F5F5F5"/>
<path d="M32.8287 14.7435C32.9078 14.7435 32.9835 14.7122 33.0394 14.6564C33.0953 14.6007 33.1267 14.5251 33.1267 14.4463C33.1267 14.0068 33.1037 13.5197 33.0676 13.0107C33.329 13.4253 33.562 13.857 33.7648 14.303C33.7883 14.3557 33.8267 14.4003 33.8752 14.4316C33.9237 14.4628 33.9803 14.4792 34.0381 14.4789C34.0784 14.4791 34.1183 14.471 34.1553 14.4551C34.1912 14.4398 34.2238 14.4176 34.251 14.3897C34.2783 14.3618 34.2998 14.3288 34.3143 14.2927C34.3288 14.2565 34.336 14.2178 34.3355 14.1789C34.335 14.1399 34.3268 14.1014 34.3113 14.0657C33.9231 13.2491 33.4676 12.466 32.9495 11.7246C32.8331 10.6353 32.6806 9.56719 32.5616 8.80147C32.6271 8.80789 32.6927 8.79176 32.7476 8.75575C32.7916 8.72691 32.827 8.6868 32.8501 8.63962C32.8732 8.59245 32.8832 8.53995 32.879 8.48761C32.885 8.51849 32.896 8.54818 32.9116 8.57553C33.0318 8.79779 33.0702 9.05503 33.02 9.30256C33.012 9.34078 33.0116 9.3802 33.0189 9.41856C33.0262 9.45692 33.041 9.49346 33.0624 9.52611C33.0839 9.55877 33.1115 9.5869 33.1439 9.60888C33.1762 9.63086 33.2126 9.64627 33.251 9.65422C33.271 9.65824 33.2913 9.66029 33.3118 9.66037C33.3801 9.66019 33.4463 9.6366 33.4992 9.59355C33.5522 9.55049 33.5887 9.49059 33.6026 9.42388C33.6828 9.02524 33.6154 8.61115 33.4131 8.25817C33.37 8.19256 33.3028 8.14652 33.2259 8.13007C33.149 8.11361 33.0687 8.12805 33.0024 8.17026C32.9581 8.19895 32.9224 8.23897 32.899 8.28614C32.8756 8.33331 32.8653 8.38589 32.8693 8.43838C32.863 8.40746 32.8517 8.37778 32.8358 8.35048L32.3334 7.57157C32.2961 7.51401 32.24 7.47106 32.1747 7.45C32.1093 7.42893 32.0387 7.43104 31.9747 7.45597C31.9107 7.48089 31.8573 7.52711 31.8235 7.58678C31.7898 7.64646 31.7778 7.71593 31.7895 7.78344C31.7895 7.80717 32.0213 9.10916 32.2223 10.6793C31.994 10.3575 31.7657 10.0437 31.5445 9.74388C31.5083 9.29465 31.4722 8.87971 31.4413 8.53597C31.458 8.53093 31.4742 8.52446 31.4898 8.51663C31.5603 8.48136 31.614 8.41963 31.6389 8.34496C31.6639 8.2703 31.6581 8.18881 31.6229 8.11838L31.325 7.52498C31.2936 7.4632 31.2416 7.41428 31.1779 7.38668C31.1142 7.35908 31.0429 7.35453 30.9762 7.37382C30.9095 7.3931 30.8517 7.43501 30.8127 7.49231C30.7737 7.5496 30.756 7.61869 30.7626 7.68762C30.7979 8.03927 30.8349 8.43399 30.871 8.8463C30.6824 8.59839 30.5088 8.37245 30.3598 8.1808C30.3969 8.14887 30.4256 8.10831 30.4432 8.0627C30.4609 8.01708 30.4669 7.96783 30.4609 7.91931C30.4549 7.87079 30.4369 7.82449 30.4087 7.78454C30.3805 7.74458 30.3428 7.7122 30.299 7.69025L29.704 7.39311C29.6433 7.36303 29.5741 7.35449 29.5079 7.36889C29.4417 7.3833 29.3824 7.41979 29.3398 7.47233C29.2972 7.52488 29.2738 7.59035 29.2735 7.65793C29.2732 7.72552 29.296 7.79119 29.3382 7.8441C29.3541 7.86432 30.0874 8.78037 30.9636 9.96279C31.1379 11.4325 31.1748 12.9153 31.0738 14.3918C31.0473 14.4701 31.0015 14.5624 30.9592 14.5676C30.7829 14.5923 30.3501 14.1914 30.1341 13.7615C30.1041 13.6809 30.0495 13.6116 29.9781 13.5634C29.9067 13.5152 29.8219 13.4904 29.7357 13.4925C29.4158 13.5118 29.295 13.8635 29.0641 14.5C28.9385 14.9487 28.7386 15.3733 28.4726 15.7562C28.2787 15.3926 28.1532 14.9966 28.1024 14.5879C28.1261 14.6532 28.1721 14.7082 28.2324 14.743C28.2926 14.7779 28.3633 14.7904 28.4319 14.7785C28.5006 14.7665 28.5628 14.7308 28.6076 14.6776C28.6525 14.6244 28.6771 14.5571 28.6771 14.4877C28.6771 14.0481 28.3668 10.674 28.1932 8.82608C28.2635 8.79793 28.3204 8.74401 28.3522 8.67536C28.384 8.60671 28.3883 8.52854 28.3642 8.45685L28.0662 7.5663C28.043 7.49717 27.9951 7.43897 27.9317 7.40278C27.8682 7.36659 27.7936 7.35492 27.7221 7.37001C27.6506 7.3851 27.5871 7.42589 27.5438 7.48462C27.5005 7.54334 27.4803 7.6159 27.4871 7.68849C27.689 9.8063 28.0689 13.896 28.0804 14.4578V14.4428C28.076 14.403 28.0637 14.3645 28.0441 14.3296C28.0244 14.2946 27.9979 14.264 27.9661 14.2396C27.9344 14.2151 27.8979 14.1973 27.8591 14.1873C27.8202 14.1772 27.7798 14.175 27.7401 14.181C27.7004 14.1869 27.6623 14.2008 27.6281 14.2218C27.5939 14.2427 27.5643 14.2704 27.5411 14.303C27.5179 14.3357 27.5015 14.3727 27.493 14.4118C27.4845 14.451 27.484 14.4914 27.4916 14.5307C27.5797 15.1373 27.8009 16.1808 28.3122 16.3505C28.3633 16.3675 28.4169 16.3762 28.4708 16.376C28.5501 16.3738 28.6282 16.3555 28.7001 16.3223C28.7721 16.289 28.8366 16.2415 28.8895 16.1826C29.2296 15.7408 29.4799 15.237 29.6264 14.6995C29.6705 14.5764 29.7216 14.4314 29.771 14.3065C30.0442 14.7039 30.5202 15.1997 31.005 15.1602C31.1589 15.1436 31.3035 15.0788 31.418 14.975C31.5326 14.8712 31.6111 14.7338 31.6423 14.5826C31.7765 13.3509 31.7729 12.108 31.6317 10.8771C31.8821 11.2287 32.1333 11.5865 32.373 11.9408C32.4656 12.8296 32.5326 13.7202 32.5326 14.4516C32.5337 14.5293 32.5654 14.6034 32.6208 14.6579C32.6762 14.7125 32.7509 14.7433 32.8287 14.7435Z" fill="#F5F5F5"/>
<path d="M35.087 13.1824C34.8764 11.6158 34.5828 9.80125 34.3969 8.6874C34.4397 8.69795 34.4844 8.69868 34.5276 8.68955C34.5708 8.68041 34.6114 8.66165 34.6463 8.63466C34.6774 8.61108 34.7036 8.58162 34.7233 8.54795C34.743 8.51427 34.7558 8.47705 34.7611 8.43842C34.7663 8.39979 34.7638 8.36051 34.7538 8.32283C34.7438 8.28514 34.7264 8.2498 34.7027 8.21882L34.1633 7.51554C34.1225 7.46345 34.0656 7.42638 34.0014 7.41019C33.9372 7.394 33.8694 7.3996 33.8087 7.42611C33.7481 7.45263 33.698 7.49855 33.6664 7.55661C33.6349 7.61467 33.6236 7.68158 33.6344 7.74675C33.6397 7.77751 34.1703 10.8237 34.4991 13.2633C34.5799 13.648 34.578 14.0455 34.4935 14.4295C34.409 14.8135 34.2439 15.1753 34.009 15.491C33.8705 15.6376 33.7001 15.7505 33.5109 15.8209C33.3216 15.8913 33.1187 15.9174 32.9178 15.8971C32.8777 15.8928 32.8373 15.8966 32.7988 15.9084C32.7603 15.9201 32.7245 15.9395 32.6938 15.9654C32.663 15.9913 32.6378 16.0231 32.6197 16.059C32.6016 16.0948 32.591 16.134 32.5885 16.1741C32.586 16.2141 32.5916 16.2543 32.6051 16.2921C32.6186 16.33 32.6396 16.3647 32.667 16.3942C32.6943 16.4237 32.7273 16.4473 32.7641 16.4637C32.8008 16.4801 32.8405 16.489 32.8808 16.4896C32.931 16.4896 32.9804 16.494 33.0297 16.494C33.2947 16.4995 33.5578 16.449 33.8018 16.3458C34.0457 16.2426 34.2651 16.0891 34.4453 15.8954C34.7434 15.5168 34.9552 15.0779 35.066 14.6094C35.1769 14.1409 35.184 13.6539 35.087 13.1824Z" fill="#F5F5F5"/>
<path d="M31.8133 15.1383C31.7613 15.1962 31.7338 15.272 31.7366 15.3497C31.7394 15.4274 31.7722 15.501 31.8283 15.555C31.8457 15.5717 31.858 15.5931 31.8635 15.6165C31.8554 15.6427 31.8398 15.666 31.8186 15.6834C31.7889 15.7105 31.7649 15.7433 31.7483 15.7799C31.7317 15.8165 31.7226 15.856 31.7218 15.8962C31.7209 15.9363 31.7281 15.9763 31.7432 16.0135C31.7582 16.0508 31.7806 16.0846 31.8091 16.113C31.8377 16.1414 31.8717 16.1637 31.9091 16.1786C31.9465 16.1935 31.9865 16.2007 32.0267 16.1998C32.067 16.1988 32.1067 16.1897 32.1433 16.173C32.1799 16.1563 32.2128 16.1324 32.2399 16.1027C32.3103 16.0385 32.3662 15.9602 32.404 15.8729C32.4419 15.7857 32.4607 15.6914 32.4594 15.5963C32.4487 15.4107 32.3647 15.2369 32.2258 15.1128C32.1674 15.0624 32.0915 15.0368 32.0143 15.0416C31.9372 15.0463 31.865 15.0811 31.8133 15.1383Z" fill="#F5F5F5"/>
<path d="M30.7637 21.6527H28.6808V21.3555C28.683 21.3152 28.6769 21.2749 28.663 21.237C28.649 21.1991 28.6275 21.1644 28.5996 21.1351C28.5718 21.1057 28.5382 21.0824 28.5011 21.0664C28.4639 21.0505 28.4238 21.0422 28.3833 21.0422C28.3428 21.0422 28.3028 21.0505 28.2656 21.0664C28.2284 21.0824 28.1948 21.1057 28.167 21.1351C28.1392 21.1644 28.1176 21.1991 28.1036 21.237C28.0897 21.2749 28.0836 21.3152 28.0858 21.3555V21.6527H12.3123C13.0751 22.2516 14.0241 22.5651 14.9945 22.5389H28.0894V23.1323C28.0894 23.1713 28.0971 23.2099 28.112 23.246C28.127 23.282 28.1489 23.3148 28.1766 23.3424C28.2043 23.37 28.2371 23.3918 28.2733 23.4068C28.3094 23.4217 28.3482 23.4294 28.3873 23.4294H30.7672C31.004 23.4294 31.2311 23.3356 31.3986 23.1686C31.566 23.0015 31.6601 22.775 31.6601 22.5389C31.6601 22.3027 31.566 22.0761 31.3986 21.9091C31.2311 21.7421 31.004 21.6483 30.7672 21.6483L30.7637 21.6527ZM30.7637 22.8395H28.6799V22.5424H31.0598L31.0061 22.3824C31.0396 22.4291 31.0584 22.4849 31.0598 22.5424C31.0589 22.6203 31.0274 22.6947 30.972 22.7496C30.9166 22.8045 30.8418 22.8355 30.7637 22.836V22.8395Z" fill="#F5F5F5"/>
</svg>
