<svg width="63" height="13" viewBox="0 0 63 13" fill="none" xmlns="http://www.w3.org/2000/svg">
<path d="M6.75323 12.5203C3.84407 12.5203 1.47729 10.1197 1.47729 7.16898C1.47729 4.21823 3.84407 1.81763 6.75323 1.81763C9.66239 1.81763 12.0292 4.21823 12.0292 7.16898C12.0292 10.1197 9.66239 12.5203 6.75323 12.5203Z" fill="white"/>
<path d="M6.1582 2.87974C4.17316 2.87974 2.5582 4.49469 2.5582 6.47974C2.5582 8.46478 4.17316 10.0797 6.1582 10.0797C8.14325 10.0797 9.7582 8.46478 9.7582 6.47974C9.7582 4.49469 8.14325 2.87974 6.1582 2.87974ZM6.1582 0.479736C9.47191 0.479736 12.1582 3.16602 12.1582 6.47974C12.1582 9.79345 9.47191 12.4797 6.1582 12.4797C2.84449 12.4797 0.158203 9.79345 0.158203 6.47974C0.158203 3.16602 2.84449 0.479736 6.1582 0.479736Z" fill="#585859"/>
<path d="M12.2373 6.54077H61.2373" stroke="#585859" stroke-width="2.3" stroke-linecap="round"/>
</svg>
