<svg width="68" height="48" viewBox="0 0 68 48" fill="none" xmlns="http://www.w3.org/2000/svg">
<path fill-rule="evenodd" clip-rule="evenodd" d="M19.5711 4.00345C29.3612 2.46847 42.4834 6.32464 45.0667 20.8321C47.6687 35.3395 37.3918 43.576 27.0026 45.4666C22.0794 46.3651 16.5573 45.3356 12.1208 42.5838C7.21634 39.5513 3.60353 34.4597 2.53653 28.4508C1.37594 21.8055 3.54737 15.0852 7.87152 10.368C10.9976 6.96109 15.4528 4.63991 19.5711 4.00345Z" fill="#197291"/>
<path d="M26.8107 44.4613C37.7092 42.507 44.96 32.0878 43.0057 21.1892C41.0514 10.2907 30.6321 3.03989 19.7336 4.99417C8.83502 6.94846 1.58426 17.3677 3.53854 28.2663C5.49283 39.1648 15.9121 46.4156 26.8107 44.4613Z" fill="#1DA6D6"/>
<path d="M25.6208 37.8288C32.856 36.5314 37.6695 29.6144 36.3721 22.3793C35.0748 15.1441 28.1578 10.3306 20.9226 11.6279C13.6874 12.9253 8.87388 19.8423 10.1713 27.0775C11.4686 34.3127 18.3856 39.1262 25.6208 37.8288Z" fill="#F1FBFF"/>
<path d="M24.3418 31.563C28.0154 30.9043 30.4594 27.3923 29.8007 23.7187C29.1419 20.0452 25.6299 17.6012 21.9564 18.2599C18.2828 18.9186 15.8388 22.4306 16.4975 26.1042C17.1563 29.7778 20.6683 32.2218 24.3418 31.563Z" fill="#1DA6D6"/>
<path fill-rule="evenodd" clip-rule="evenodd" d="M21.5367 25.6243C25.5426 25.0627 31.851 22.1799 32.8431 21.7307C44.0185 16.5829 51.9929 12.9139 63.1683 7.7661C63.6924 7.52275 63.8983 6.83014 63.6363 6.24985C63.3555 5.65083 62.7003 5.37004 62.1762 5.61339C51.0008 10.7612 43.0264 14.4302 31.851 19.578C30.8589 20.0272 24.5692 22.9661 21.5367 25.6243Z" fill="#EDE4F1"/>
<path fill-rule="evenodd" clip-rule="evenodd" d="M32.506 21.0195L62.8312 7.05493C63.3554 6.81158 63.711 6.45591 63.6174 6.25C63.8982 6.84902 63.6923 7.5229 63.1494 7.76626L61.9701 8.30912L59.6489 9.37611L57.3278 10.4431L55.0066 11.5101L52.6854 12.5771L32.8243 21.7308C31.8321 22.1988 25.5237 25.0629 21.5178 25.6244C25.2242 24.3702 31.5139 21.4688 32.506 21.0195Z" fill="#74D0F0"/>
<path fill-rule="evenodd" clip-rule="evenodd" d="M52.7042 12.5771L57.5525 15.4785C57.983 15.7406 58.7692 15.7406 59.3308 15.4785L66.7624 12.0529C67.2304 11.847 67.3052 11.4913 66.9496 11.2667L61.989 8.30907L52.7042 12.5771ZM51.7121 10.4243L52.6668 4.86472C52.7417 4.37802 53.2658 3.76029 53.8086 3.51694L61.2402 0.0913138C61.7082 -0.114598 62.0264 0.035156 61.9515 0.465699L60.9781 6.15636L51.7121 10.4243Z" fill="#1DA6D6"/>
</svg>
