<svg width="101" height="116" viewBox="0 0 101 116" fill="none" xmlns="http://www.w3.org/2000/svg">
<mask id="mask0_133_2621" style="mask-type:luminance" maskUnits="userSpaceOnUse" x="0" y="0" width="101" height="102">
<path d="M100.873 0.323975H0.0983887V101.098H100.873V0.323975Z" fill="white"/>
</mask>
<g mask="url(#mask0_133_2621)">
<path d="M74.5646 6.08984C76.5354 6.08984 78.4255 6.87276 79.8192 8.26637C81.2128 9.65998 81.9957 11.5501 81.9957 13.521V69.4728C81.9957 71.4436 81.2128 73.3337 79.8192 74.7274C78.4255 76.121 76.5354 76.9039 74.5646 76.9039H18.6128C16.6419 76.9039 14.7518 76.121 13.3582 74.7274C11.9646 73.3337 11.1816 71.4436 11.1816 69.4728V13.521C11.1816 11.5501 11.9646 9.65998 13.3582 8.26637C14.7518 6.87276 16.6419 6.08984 18.6128 6.08984L74.5646 6.08984Z" fill="#DFE8F4"/>
<path d="M81.9996 52.6074L75.3318 45.9249C73.9069 44.5015 71.9752 43.702 69.9612 43.702C67.9471 43.702 66.0154 44.5015 64.5906 45.9249C63.1631 47.349 61.229 48.1488 59.2126 48.1488C57.1963 48.1488 55.2622 47.349 53.8347 45.9249L40.7789 32.8682C39.3545 31.4438 37.4226 30.6437 35.4083 30.6437C33.3939 30.6437 31.4621 31.4438 30.0377 32.8682L11.1819 51.7368V69.5348C11.1819 70.5036 11.3727 71.4629 11.7434 72.3579C12.1142 73.2529 12.6575 74.0661 13.3426 74.7511C14.0276 75.4362 14.8408 75.9795 15.7358 76.3503C16.6308 76.721 17.5901 76.9118 18.5589 76.9118H74.6226C76.5791 76.9118 78.4555 76.1346 79.8389 74.7511C81.2224 73.3677 81.9996 71.4913 81.9996 69.5348V52.6074Z" fill="#199AC7"/>
<path d="M65.9365 31.2641C64.8092 32.3913 63.326 33.0929 61.7394 33.2491C60.1529 33.4053 58.5612 33.0066 57.2357 32.1209C55.9102 31.2352 54.9328 29.9173 54.47 28.3917C54.0073 26.8661 54.0878 25.2273 54.6979 23.7544C55.308 22.2816 56.4099 21.0658 57.8159 20.3143C59.2219 19.5629 60.845 19.3221 62.4086 19.6332C63.9721 19.9442 65.3795 20.7878 66.3908 22.0202C67.4022 23.2525 67.9549 24.7974 67.9549 26.3917C67.9548 28.2192 67.2288 29.9718 65.9365 31.2641Z" fill="#1A9AC7"/>
<path d="M82.6482 93.898C79.4158 93.8982 76.2559 92.9398 73.5682 91.1441C70.8805 89.3484 68.7856 86.7959 67.5485 83.8096C66.3115 80.8233 65.9877 77.5372 66.6183 74.3669C67.2489 71.1966 68.8054 68.2845 71.0911 65.9988C73.3767 63.7131 76.2889 62.1566 79.4592 61.526C82.6295 60.8955 85.9156 61.2192 88.9019 62.4563C91.8882 63.6933 94.4406 65.7882 96.2364 68.4759C98.0321 71.1636 98.9905 74.3235 98.9903 77.5559C98.99 81.89 97.2682 86.0466 94.2035 89.1112C91.1388 92.1759 86.9823 93.8977 82.6482 93.898Z" fill="#DFE8F4"/>
<path d="M84.0372 69.3848C84.2771 69.3855 84.507 69.4813 84.6764 69.6512C84.8458 69.8211 84.9409 70.0513 84.9409 70.2912V84.8213C84.9409 85.0617 84.8454 85.2923 84.6754 85.4623C84.5054 85.6322 84.2749 85.7277 84.0345 85.7277H81.2602C81.0198 85.7277 80.7892 85.6322 80.6192 85.4623C80.4493 85.2923 80.3538 85.0617 80.3538 84.8213V70.2912C80.3538 70.0508 80.4493 69.8202 80.6192 69.6502C80.7892 69.4803 81.0198 69.3848 81.2602 69.3848H84.0372Z" fill="#1A9AC7"/>
<path d="M90.8188 78.945C90.8181 79.185 90.7223 79.4148 90.5524 79.5842C90.3825 79.7536 90.1524 79.8487 89.9124 79.8487H75.3823C75.1419 79.8487 74.9113 79.7532 74.7414 79.5832C74.5714 79.4132 74.4759 79.1827 74.4759 78.9423V76.168C74.4759 75.9276 74.5714 75.6971 74.7414 75.5271C74.9113 75.3571 75.1419 75.2616 75.3823 75.2616H89.9124C90.1528 75.2616 90.3834 75.3571 90.5534 75.5271C90.7234 75.6971 90.8188 75.9276 90.8188 76.168V78.945Z" fill="#1A9AC7"/>
</g>
<path d="M8.11393 105.44H8.95062V110.174C8.95062 111.399 8.75245 112.251 8.35613 112.728C7.9598 113.212 7.31026 113.454 6.40752 113.454C5.70294 113.454 5.15249 113.285 4.75616 112.948C4.40387 112.647 4.2057 112.247 4.16167 111.748H5.08643C5.13047 112.041 5.24056 112.258 5.4167 112.397C5.67358 112.596 6.01853 112.695 6.45156 112.695C7.03871 112.695 7.45705 112.518 7.70659 112.166C7.91943 111.865 8.02585 111.351 8.02585 110.625V110.262C7.55613 110.9 6.991 111.219 6.33046 111.219C5.68459 111.219 5.13781 110.977 4.6901 110.493C4.21304 109.972 3.97451 109.26 3.97451 108.357C3.97451 107.388 4.22405 106.618 4.72313 106.045C5.16349 105.561 5.71762 105.319 6.3855 105.319C7.10476 105.319 7.6809 105.641 8.11393 106.287V105.44ZM6.48458 106.144C6.00018 106.144 5.61487 106.339 5.32863 106.728C5.04973 107.109 4.91029 107.634 4.91029 108.302C4.91029 108.999 5.07175 109.531 5.39468 109.898C5.66624 110.221 6.03321 110.383 6.49559 110.383C6.97999 110.383 7.3543 110.199 7.61852 109.832C7.89008 109.465 8.02585 108.955 8.02585 108.302C8.02585 107.583 7.87173 107.032 7.56347 106.651C7.29192 106.313 6.93229 106.144 6.48458 106.144ZM11.2834 105.44V111.098H10.3917V105.44H11.2834ZM10.8541 103.227C11.0082 103.227 11.1366 103.282 11.2394 103.392C11.3495 103.495 11.4045 103.619 11.4045 103.766C11.4045 103.92 11.3495 104.052 11.2394 104.163C11.1366 104.265 11.0082 104.317 10.8541 104.317C10.7073 104.317 10.5788 104.265 10.4688 104.163C10.366 104.052 10.3146 103.92 10.3146 103.766C10.3146 103.619 10.366 103.495 10.4688 103.392C10.5788 103.282 10.7073 103.227 10.8541 103.227ZM14.8589 105.44V106.166H13.9231V111.098H13.0314V106.166H12.2717V105.44H13.0314V104.471C13.0314 104.067 13.1451 103.752 13.3727 103.524C13.6075 103.297 13.9341 103.183 14.3525 103.183C14.5139 103.183 14.6827 103.201 14.8589 103.238V103.986H14.7598C14.6791 103.979 14.6093 103.975 14.5506 103.975C14.1323 103.975 13.9231 104.166 13.9231 104.548V105.44H14.8589ZM16.2178 111.142C16.2178 111.142 16.2141 111.146 16.2068 111.153H16.1958C16.049 111.153 15.9242 111.106 15.8215 111.01C15.7261 110.907 15.6747 110.783 15.6674 110.636C15.6674 110.526 15.693 110.423 15.7444 110.328C15.8398 110.151 15.994 110.063 16.2068 110.063C16.3903 110.063 16.5407 110.137 16.6582 110.284C16.7756 110.43 16.8343 110.621 16.8343 110.856C16.8343 111.392 16.5921 111.939 16.1077 112.496H15.8985L15.6343 112.287C15.7885 112.089 15.9242 111.865 16.0417 111.616C16.1224 111.462 16.1811 111.304 16.2178 111.142ZM23.7211 110.988C23.3394 111.128 22.9395 111.197 22.5211 111.197C21.7285 111.197 21.1009 110.918 20.6386 110.361C20.2275 109.869 20.022 109.241 20.022 108.478C20.022 107.707 20.2386 107.091 20.6716 106.629C21.134 106.144 21.7578 105.902 22.5431 105.902C23.1376 105.902 23.622 106.052 23.9963 106.353C24.444 106.713 24.6679 107.23 24.6679 107.906V110.999C24.6605 111.939 24.3523 112.647 23.7431 113.124C23.4349 113.366 23.0642 113.535 22.6312 113.63C22.345 113.689 22.0477 113.718 21.7395 113.718C21.5633 113.718 21.3945 113.715 21.233 113.707L20.8697 113.256V112.904C21.0899 112.933 21.3211 112.948 21.5633 112.948C22.9945 112.948 23.7138 112.295 23.7211 110.988ZM23.7211 107.906C23.7211 107.451 23.5596 107.109 23.2367 106.882C23.0532 106.757 22.822 106.695 22.5431 106.695C22.0514 106.695 21.6624 106.86 21.3762 107.19C21.0973 107.52 20.9578 107.979 20.9578 108.566C20.9578 109.124 21.1193 109.564 21.4422 109.887C21.7285 110.188 22.1101 110.339 22.5872 110.339C23.0055 110.339 23.3835 110.273 23.7211 110.14V107.906ZM25.8373 101.939C25.6832 101.741 25.6061 101.498 25.6061 101.212C25.6061 100.926 25.6905 100.698 25.8594 100.53C26.0282 100.353 26.252 100.265 26.5309 100.265C26.707 100.265 26.8832 100.295 27.0593 100.353V100.805C26.9272 100.768 26.7988 100.75 26.674 100.75C26.2924 100.75 26.1016 100.944 26.1016 101.333C26.1016 101.473 26.1493 101.601 26.2447 101.719C26.3621 101.865 26.5199 101.939 26.7181 101.939H27.4226V102.126L27.2025 102.39H25.3529V101.939H25.8373ZM26.9713 103.216V110.988L26.4979 111.373H26.0355V103.216H26.9713ZM30.4969 105.44H31.3997V112.276C31.3997 113.062 30.8786 113.454 29.8364 113.454C29.7263 113.454 29.6309 113.443 29.5501 113.421V112.662C29.6089 112.662 29.6639 112.662 29.7153 112.662H29.7593C30.0456 112.662 30.24 112.61 30.3428 112.507C30.4455 112.405 30.4969 112.21 30.4969 111.924V105.44ZM30.9263 103.271C31.0804 103.271 31.2088 103.326 31.3116 103.436C31.4143 103.539 31.4657 103.663 31.4657 103.81C31.4657 103.957 31.4143 104.085 31.3116 104.196C31.2088 104.298 31.0804 104.35 30.9263 104.35C30.7795 104.35 30.6511 104.298 30.541 104.196C30.4382 104.085 30.3868 103.957 30.3868 103.81C30.3868 103.663 30.4382 103.539 30.541 103.436C30.6511 103.326 30.7795 103.271 30.9263 103.271ZM32.7293 113.454V105.44H33.566V106.309C33.9843 105.649 34.5861 105.319 35.3714 105.319C36.1714 105.319 36.788 105.627 37.221 106.243C37.6026 106.779 37.7934 107.484 37.7934 108.357C37.7934 109.289 37.5439 110.016 37.0448 110.537C36.6118 110.992 36.0503 111.219 35.3604 111.219C34.6632 111.219 34.0871 110.966 33.632 110.46V113.454H32.7293ZM35.2173 106.155C34.7403 106.155 34.3549 106.35 34.0614 106.739C33.7751 107.128 33.632 107.649 33.632 108.302C33.632 108.977 33.7972 109.506 34.1274 109.887C34.4063 110.21 34.7696 110.372 35.2173 110.372C35.7164 110.372 36.1127 110.185 36.4063 109.81C36.7072 109.429 36.8577 108.926 36.8577 108.302C36.8577 107.612 36.6889 107.069 36.3513 106.673C36.0503 106.328 35.6724 106.155 35.2173 106.155ZM42.6033 105.44H43.44V110.174C43.44 111.399 43.2418 112.251 42.8455 112.728C42.4492 113.212 41.7996 113.454 40.8969 113.454C40.1923 113.454 39.6419 113.285 39.2455 112.948C38.8932 112.647 38.6951 112.247 38.651 111.748H39.5758C39.6198 112.041 39.7299 112.258 39.9061 112.397C40.1629 112.596 40.5079 112.695 40.9409 112.695C41.5281 112.695 41.9464 112.518 42.196 112.166C42.4088 111.865 42.5152 111.351 42.5152 110.625V110.262C42.0455 110.9 41.4804 111.219 40.8198 111.219C40.174 111.219 39.6272 110.977 39.1795 110.493C38.7024 109.972 38.4639 109.26 38.4639 108.357C38.4639 107.388 38.7134 106.618 39.2125 106.045C39.6529 105.561 40.207 105.319 40.8749 105.319C41.5941 105.319 42.1703 105.641 42.6033 106.287V105.44ZM40.974 106.144C40.4896 106.144 40.1042 106.339 39.818 106.728C39.5391 107.109 39.3997 107.634 39.3997 108.302C39.3997 108.999 39.5611 109.531 39.8841 109.898C40.1556 110.221 40.5226 110.383 40.985 110.383C41.4694 110.383 41.8437 110.199 42.1079 109.832C42.3794 109.465 42.5152 108.955 42.5152 108.302C42.5152 107.583 42.3611 107.032 42.0528 106.651C41.7813 106.313 41.4217 106.144 40.974 106.144ZM45.2994 111.142C45.2994 111.142 45.2957 111.146 45.2884 111.153H45.2774C45.1306 111.153 45.0058 111.106 44.9031 111.01C44.8077 110.907 44.7563 110.783 44.7489 110.636C44.7489 110.526 44.7746 110.423 44.826 110.328C44.9214 110.151 45.0755 110.063 45.2884 110.063C45.4719 110.063 45.6223 110.137 45.7398 110.284C45.8572 110.43 45.9159 110.621 45.9159 110.856C45.9159 111.392 45.6737 111.939 45.1893 112.496H44.9801L44.7159 112.287C44.87 112.089 45.0058 111.865 45.1233 111.616C45.204 111.462 45.2627 111.304 45.2994 111.142ZM49.0816 113.454V105.44H49.9183V106.309C50.3367 105.649 50.9385 105.319 51.7238 105.319C52.5238 105.319 53.1403 105.627 53.5733 106.243C53.955 106.779 54.1458 107.484 54.1458 108.357C54.1458 109.289 53.8963 110.016 53.3972 110.537C52.9642 110.992 52.4027 111.219 51.7128 111.219C51.0155 111.219 50.4394 110.966 49.9844 110.46V113.454H49.0816ZM51.5697 106.155C51.0926 106.155 50.7073 106.35 50.4137 106.739C50.1275 107.128 49.9844 107.649 49.9844 108.302C49.9844 108.977 50.1495 109.506 50.4798 109.887C50.7587 110.21 51.122 110.372 51.5697 110.372C52.0687 110.372 52.4651 110.185 52.7587 109.81C53.0596 109.429 53.21 108.926 53.21 108.302C53.21 107.612 53.0412 107.069 52.7036 106.673C52.4027 106.328 52.0247 106.155 51.5697 106.155ZM55.2676 105.44H56.1043V106.397C56.5593 105.678 57.1832 105.319 57.9758 105.319C58.5263 105.319 58.963 105.458 59.2859 105.737C59.6088 106.008 59.7703 106.375 59.7703 106.838V111.098H58.8786V107.201C58.8786 106.863 58.7722 106.596 58.5593 106.397C58.3538 106.199 58.0712 106.1 57.7116 106.1C57.2419 106.1 56.8676 106.273 56.5887 106.618C56.3098 106.963 56.1703 107.421 56.1703 107.994V111.098H55.2676V105.44ZM64.9655 105.44H65.8022V110.174C65.8022 111.399 65.604 112.251 65.2077 112.728C64.8114 113.212 64.1618 113.454 63.2591 113.454C62.5545 113.454 62.004 113.285 61.6077 112.948C61.2554 112.647 61.0573 112.247 61.0132 111.748H61.938C61.982 112.041 62.0921 112.258 62.2683 112.397C62.5251 112.596 62.8701 112.695 63.3031 112.695C63.8903 112.695 64.3086 112.518 64.5581 112.166C64.771 111.865 64.8774 111.351 64.8774 110.625V110.262C64.4077 110.9 63.8426 111.219 63.182 111.219C62.5361 111.219 61.9894 110.977 61.5417 110.493C61.0646 109.972 60.8261 109.26 60.8261 108.357C60.8261 107.388 61.0756 106.618 61.5747 106.045C62.015 105.561 62.5692 105.319 63.2371 105.319C63.9563 105.319 64.5325 105.641 64.9655 106.287V105.44ZM63.3361 106.144C62.8517 106.144 62.4664 106.339 62.1802 106.728C61.9013 107.109 61.7618 107.634 61.7618 108.302C61.7618 108.999 61.9233 109.531 62.2462 109.898C62.5178 110.221 62.8848 110.383 63.3471 110.383C63.8315 110.383 64.2059 110.199 64.4701 109.832C64.7416 109.465 64.8774 108.955 64.8774 108.302C64.8774 107.583 64.7233 107.032 64.415 106.651C64.1435 106.313 63.7838 106.144 63.3361 106.144ZM72.402 103.612C72.5488 103.612 72.6736 103.667 72.7763 103.777C72.8864 103.88 72.9415 104.005 72.9415 104.152C72.9415 104.306 72.8864 104.438 72.7763 104.548C72.6736 104.651 72.5488 104.702 72.402 104.702C72.2552 104.702 72.1268 104.651 72.0167 104.548C71.914 104.438 71.8626 104.306 71.8626 104.152C71.8626 104.005 71.914 103.88 72.0167 103.777C72.1268 103.667 72.2552 103.612 72.402 103.612ZM69.6057 107.829C69.8626 107.183 70.2919 106.68 70.8938 106.32C71.3782 106.041 71.8809 105.902 72.402 105.902C72.9231 105.902 73.4259 106.041 73.9103 106.32C74.5194 106.68 74.9488 107.183 75.1983 107.829L75.0882 108.093C74.5818 108.298 74.1708 108.588 73.8552 108.963C73.5176 109.344 73.3048 109.796 73.2167 110.317H75.3084V111.098H73.0736C72.8461 111.098 72.6332 110.992 72.435 110.779H72.402C72.2185 110.977 72.0314 111.084 71.8406 111.098C71.0993 111.142 70.5965 111.37 70.3323 111.781C70.1855 112.008 70.1048 112.302 70.0901 112.662C70.1048 113.322 70.347 113.806 70.8167 114.115C71.1837 114.35 71.6681 114.467 72.2699 114.467C72.7176 114.467 73.1947 114.408 73.7011 114.291V114.599L73.2717 115.128C72.9928 115.208 72.6259 115.249 72.1708 115.249C71.3195 115.249 70.6406 115.069 70.1342 114.709C69.4883 114.262 69.1617 113.583 69.1543 112.673C69.1543 112.071 69.3011 111.586 69.5947 111.219C70.0057 110.691 70.6699 110.39 71.5873 110.317C71.514 109.869 71.3305 109.447 71.0369 109.051C70.7066 108.64 70.2663 108.32 69.7158 108.093L69.6057 107.829ZM74.1745 107.718C73.9396 107.366 73.6644 107.102 73.3488 106.926C73.0552 106.772 72.7396 106.695 72.402 106.695C72.0644 106.695 71.7635 106.764 71.4993 106.904C71.1763 107.065 70.8864 107.337 70.6296 107.718C71.0112 107.887 71.3415 108.126 71.6204 108.434C71.958 108.816 72.2149 109.293 72.391 109.865H72.413C72.5965 109.271 72.8644 108.783 73.2167 108.401C73.4882 108.107 73.8075 107.88 74.1745 107.718ZM78.1416 106.034V110.052C78.1416 110.14 78.1306 110.229 78.1086 110.317H78.6921V111.098H78.2627L77.9435 110.713H77.9104C77.7123 110.97 77.4554 111.098 77.1398 111.098H75.2242V110.317H76.7875C76.9049 110.317 77.0003 110.28 77.0737 110.207C77.1618 110.126 77.2058 110.023 77.2058 109.898V106.034H78.1416ZM76.2591 112.243C76.4059 112.243 76.5306 112.295 76.6334 112.397C76.7435 112.507 76.7985 112.636 76.7985 112.783C76.7985 112.937 76.7435 113.065 76.6334 113.168C76.5306 113.278 76.4059 113.333 76.2591 113.333C76.1123 113.333 75.9838 113.278 75.8737 113.168C75.771 113.065 75.7196 112.937 75.7196 112.783C75.7196 112.636 75.771 112.507 75.8737 112.397C75.9838 112.295 76.1123 112.243 76.2591 112.243ZM77.5912 112.243C77.7453 112.243 77.8737 112.295 77.9765 112.397C78.0866 112.507 78.1416 112.636 78.1416 112.783C78.1416 112.937 78.0866 113.065 77.9765 113.168C77.8737 113.278 77.7453 113.333 77.5912 113.333C77.4444 113.333 77.3159 113.278 77.2058 113.168C77.1031 113.065 77.0517 112.937 77.0517 112.783C77.0517 112.636 77.1031 112.507 77.2058 112.397C77.3159 112.295 77.4444 112.243 77.5912 112.243ZM81.5062 108.456C82.519 106.753 83.8474 105.902 85.4915 105.902C86.3649 105.902 87.0658 106.174 87.5942 106.717C88.0713 107.208 88.3098 107.832 88.3098 108.588V110.052C88.3098 110.148 88.2988 110.236 88.2768 110.317H88.6621V111.098H88.4309L88.1226 110.713H88.0896C87.8841 110.97 87.6272 111.098 87.319 111.098H78.6108V110.317H80.5924L80.5814 106.034H81.5172L81.5062 108.456ZM87.374 108.489C87.3667 107.902 87.1502 107.447 86.7245 107.124C86.3722 106.845 85.9098 106.706 85.3373 106.706C84.7649 106.706 84.2291 106.863 83.73 107.179C82.8053 107.759 82.064 108.805 81.5062 110.317H86.9557C87.2346 110.317 87.374 110.177 87.374 109.898V108.489ZM91.5052 106.034V110.052C91.5052 110.324 91.4171 110.559 91.241 110.757C91.0428 110.985 90.7969 111.098 90.5033 111.098H88.5878V110.317H90.1511C90.2758 110.317 90.3786 110.273 90.4593 110.185C90.5327 110.111 90.5694 110.016 90.5694 109.898V106.034H91.5052ZM90.7566 112.243C90.9033 112.243 91.0281 112.295 91.1309 112.397C91.241 112.507 91.296 112.636 91.296 112.783C91.296 112.937 91.241 113.065 91.1309 113.168C91.0281 113.278 90.9033 113.333 90.7566 113.333C90.6098 113.333 90.4813 113.278 90.3712 113.168C90.2685 113.065 90.2171 112.937 90.2171 112.783C90.2171 112.636 90.2685 112.507 90.3712 112.397C90.4813 112.295 90.6098 112.243 90.7566 112.243Z" fill="#BAC7D5"/>
</svg>
