<svg width="42" height="41" viewBox="0 0 42 41" fill="none" xmlns="http://www.w3.org/2000/svg">
<path d="M40.2823 14.0837C43.7264 24.6709 37.935 36.0422 27.3477 39.4863C16.7605 42.9304 5.38921 37.1389 1.94511 26.5517C-1.49899 15.9645 4.29248 4.59316 14.8797 1.14906C16.8952 0.494877 19.002 0.158157 21.1185 0.158157C29.849 0.162968 37.5838 5.78128 40.2823 14.0837ZM21.1233 1.97641C10.9931 1.99084 2.79169 10.2115 2.80612 20.3465C2.82055 30.4816 11.0412 38.6782 21.1763 38.6638C31.3065 38.6493 39.5079 30.4287 39.4935 20.2936C39.4887 18.3744 39.1856 16.4695 38.594 14.6465C36.1311 7.08003 29.0746 1.96198 21.1233 1.97641Z" fill="white"/>
<path d="M10.06 9.92322L18.6366 21.3907L10.0071 30.7177H11.9504L19.5072 22.5548L25.6114 30.7177H32.2206L23.1582 18.6056L31.1912 9.92803H29.2479L22.2971 17.4416L16.674 9.92322H10.06ZM12.9172 11.3518H15.9525L29.3633 29.2842H26.3281L12.9172 11.3518Z" fill="white"/>
</svg>
