<svg width="13" height="46" viewBox="0 0 13 46" fill="none" xmlns="http://www.w3.org/2000/svg">
<path d="M11.3685 25.964C11.5352 26.1307 11.6185 26.3331 11.6185 26.5711C11.6185 26.8092 11.5352 27.0116 11.3685 27.1783L10.1542 28.3926C9.98754 28.5592 9.78516 28.6426 9.54707 28.6426C9.30897 28.6426 9.10659 28.5592 8.93992 28.3926L6.31492 25.7676L3.68992 28.3926C3.52326 28.5592 3.32088 28.6426 3.08278 28.6426C2.84469 28.6426 2.64231 28.5592 2.47564 28.3926L1.26135 27.1783C1.09469 27.0116 1.01135 26.8092 1.01135 26.5711C1.01135 26.3331 1.09469 26.1307 1.26135 25.964L3.88635 23.339L1.26135 20.714C1.09469 20.5473 1.01135 20.345 1.01135 20.1069C1.01135 19.8688 1.09469 19.6664 1.26135 19.4997L2.47564 18.2854C2.64231 18.1188 2.84469 18.0354 3.08278 18.0354C3.32088 18.0354 3.52326 18.1188 3.68992 18.2854L6.31492 20.9104L8.93992 18.2854C9.10659 18.1188 9.30897 18.0354 9.54707 18.0354C9.78516 18.0354 9.98754 18.1188 10.1542 18.2854L11.3685 19.4997C11.5352 19.6664 11.6185 19.8688 11.6185 20.1069C11.6185 20.345 11.5352 20.5473 11.3685 20.714L8.7435 23.339L11.3685 25.964Z" fill="#FF0000"/>
</svg>
