<svg width="42" height="41" viewBox="0 0 42 41" fill="none" xmlns="http://www.w3.org/2000/svg">
<path d="M40.152 14.0837C43.5961 24.6709 37.8046 36.0422 27.2174 39.4863C16.6301 42.9304 5.25884 37.1389 1.81474 26.5517C-1.62936 15.9645 4.16211 4.59316 14.7493 1.14906C16.7648 0.494877 18.8717 0.158157 20.9882 0.158157C29.7139 0.162968 37.4486 5.78128 40.152 14.0837ZM20.9882 1.97641C10.8579 1.99084 2.65652 10.2115 2.67095 20.3465C2.68538 30.4768 10.906 38.6782 21.0411 38.6638C31.1713 38.6493 39.3727 30.4287 39.3583 20.2936C39.3535 18.3744 39.0504 16.4695 38.4588 14.6465C35.996 7.08003 28.9442 1.96198 20.9882 1.97641Z" fill="white"/>
<path fill-rule="evenodd" clip-rule="evenodd" d="M12.8445 27.0373C12.1086 26.8305 11.5169 26.2773 11.2572 25.5606C10.5741 23.6798 10.3721 15.844 11.6853 14.2999C12.1134 13.7804 12.7339 13.4485 13.4073 13.386C16.9428 13.0108 27.8812 13.0637 29.1415 13.5207C29.8438 13.7419 30.4114 14.2662 30.6855 14.9445C31.4359 16.8782 31.4504 23.9347 30.5893 25.8011C30.3536 26.2869 29.9592 26.6814 29.4734 26.9171C28.165 27.6674 14.5762 27.653 12.8445 27.0373ZM18.4628 23.3527L24.8315 20.0481L18.4628 16.7146V23.3527Z" fill="white"/>
</svg>
